<?xml version="1.0" encoding="utf-8"?>
<!-- Generator: Adobe Illustrator 20.1.0, SVG Export Plug-In . SVG Version: 6.00 Build 0)  -->
<svg version="1.1" id="mapa_brasil" xmlns="http://www.w3.org/2000/svg" xmlns:xlink="http://www.w3.org/1999/xlink" x="0px"
	 y="0px" viewBox="0 0 1068 1057.3" style="enable-background:new 0 0 1068 1057.3;" xml:space="preserve">
<style type="text/css">
	.st0{fill:#31BEF0;stroke:#DBDBDB;stroke-width:4;stroke-linecap:round;stroke-linejoin:round;}
	.st1{fill:#FFFFFF;stroke:#DBDBDB;stroke-width:4;stroke-linecap:round;stroke-linejoin:round;}
	.st2{fill:none;}
	.st3{fill:#31BEF0;stroke:#FFFFFF;stroke-width:4;stroke-linecap:round;stroke-linejoin:round;}
</style>
<path class="st0" d="M225.6,412c-0.9-0.3-1.7-0.6-2.6-0.9l-0.3-0.1c-1.3-0.5-2.6-1-3.9-1.5c-4.7-1.8-9.3-3.9-13.8-5.9
	c-3.8-1.7-7.7-3.5-11.7-5.1c-10.4-4.3-17.2-9.4-24.5-14.9c-5.5-4.1-11.2-8.4-18.9-12.7c-6.5-3.6-13.4-4.9-20-6.2
	c-3.3-0.7-6.4-1.2-9.5-2.1c-1.4-0.4-3-0.7-4.7-1.1c-2.6-0.3-5.6-0.6-8.4-0.8c-4.8-0.5-9-0.9-11.4-1.4c-3.6-0.8-7.1-1.6-10.5-2.4
	c-2.5-0.5-4.7-0.9-6.5-1.5c-4.9-1.5-9.8-3.7-14.6-6c-1-0.5-1.9-1-2.8-1.4c-1.2-0.6-2.4-1.4-3.6-2.2c-1.3-0.6-2.7-1.2-4.1-1.8
	c-1.1-0.2-2.3-0.1-3.6,0.4c-1.2,0.7-2.1,1.5-2.9,2.2l-0.6,0.6c-0.7,0.7-1.4,1.3-2.1,1.8c-0.3,0.2-0.6,0.4-0.8,0.5
	c-1.9,1-3.1,3-3.3,5.3c-0.1,2.6,1.1,5.1,3.4,6.8l0.1,0.1c2.2,1.6,2.8,2,3.1,4.5c1.1,8.3,7,14.9,13.2,20.9c5.9,5.6,6.3,6.7,1.8,12.6
	c-1.2,1.7-0.8,3.4-0.7,4c0.1,0.1,0.1,0.2,0.1,0.3c0.3,1.9,2,3.4,4,3.4c0.1,0,0.1,0,0.1,0c1,0,2.1,0,3.1,0c3.8,0,7.9,0.2,11.7,1.4
	c2.7,0.9,2.7,1,2.7,1.8c0.1,2.2,1.2,4,1.9,5.2c0.6,1,1,1.6,1,2.2c0.1,0.8,0.7,4.8,6.4,4.8c0.9,0,1.8-0.1,2.7-0.2
	c0.8,0,1.6-0.1,2.2-0.1c0.2,0,0.4,0,0.5,0c1.3,0.1,2.6,0.2,3.9,0.2c1.4,0,2.7-0.1,3.9-0.2h0.3c3.3-0.4,7.4-0.8,11-4.3
	c2.7-2.6,5.7-4.9,8.9-7.3c0.3-0.2,0.5-0.4,0.8-0.6c0,0.5,0,0.9-0.1,1.1c-2.3,3.2-2.5,6.2-2.5,8.9v2.7c0,5.2,0,10.5,0,15.8
	c0.1,5.6,5.5,11,10.9,11c1.3,0,2.5-0.3,3.6-0.9c3-1.6,6.3-2.3,10.8-2.3c1.6,0,3.3,0.1,4.9,0.2c0.8,0.1,1.7,0.1,2.7,0.1
	s2.1-0.1,3.1-0.1c1-0.1,1.9-0.1,2.9-0.1c4.4,0,7.6,0.6,10.4,3.4c0.9,0.9,2.2,1.4,3.8,1.4c0.9,0,2.5-0.2,3.4-1.1c0.7-0.5,1.8-1,3-1.5
	c2.8-1.1,6.6-2.7,8.3-7.5c0.7-1.9,1.7-2.3,3.1-2.3c0.5,0,1.1,0.1,1.8,0.2c0.6,0.1,1.1,0.2,1.6,0.2c2.8,0,4.3-1.5,5.2-2.4
	c0.1-0.1,0.2-0.2,0.3-0.3c1.3-0.8,2.4-1.7,3.5-2.5c2.3-1.7,4.2-3.2,6.8-3.9c3.6-1,7-3.2,9.8-6.3c0.4-0.4,0.7-0.8,1-1.2
	c0.6-0.8,1.2-1.7,1.8-2.7c0.4-0.8,0.9-1.7,1.2-2.5c0-0.1,0.1-0.2,0.1-0.3c0.3-0.9,0.4-1.9,0-2.8c-0.6-0.6-1.2-1.3-1.7-2.1
	C226.2,412.2,225.9,412.1,225.6,412z"/>
<path class="st0" d="M385.3,509.7c0.9-1.5,1.5-2.9,2-4.2c0.4-0.8,0.7-1.6,1-2.3c0.1-0.2,0.3-0.4,0.4-0.6c2.3-2.9,3.4-6.3,4.4-9.3
	c1.1-3.4,2.1-6.4,4.5-8.2c2.4-1.8,3-4,3.2-5.8c0-0.2,0.1-0.5,0.1-0.7s0.1-0.3,0.1-0.5c0.2-1.1-0.1-2.3-0.8-3.2
	c-0.1-0.1-0.3-0.2-0.4-0.3c-0.1-0.1-0.1-0.1-0.2-0.2c-0.6-0.5-1-1.1-1.2-1.7c-0.9-2.6-2.5-4.7-3.8-6.5c-0.3-0.4-0.5-0.7-0.7-0.9
	c-1-1.5-0.9-3.5,0.3-4.9c0.2-0.2,0.4-0.5,0.7-0.8c3.5-3.5,3.1-6.9,2.2-9.7c-1.2-3.7-3.8-4.7-6.2-5.2l-0.4-0.1
	c-0.2,0-0.4-0.1-0.5-0.2c-7.6-2.8-15.2-3.2-22.2-3.2c-1.5,0-3.1,0-4.6,0c0,0,0,0-0.1,0c-1.1,0-2.2-0.5-3-1.3c-0.8-0.9-1.1-2-1-3.2
	c0.6-4.7-0.1-8.7-1.9-12.3c-0.4-0.8-0.5-1.7-0.4-2.6c0-0.2,0.1-0.3,0.1-0.5c1.2-4.5,2.2-10,0.7-15.6c-0.3-1.1-0.7-2.2-1.3-3.4
	c-0.2-5-1.2-11-0.2-15c0.2-0.9,0.7-1.6,1.4-2.1c-7.5-0.8-14.8-3.1-21.4-7.9c-1,2-3,1-4,1c-14-20-35-9-49,3c-5,4-6,11-11,14
	s-11,2-16,2c-2,0-4,4-5,4c-3,1-7,2-9,2c-6-1-10-1-14,4.4c-0.8,0.7-1.7,1.2-2.6,1.6c-0.2,0.1-0.4,0.2-0.5,0.3c0.5,1.1,1,2,1.5,2.8
	c0.7,0.4,1.2,1,1.5,1.7c0.1,0.1,0.1,0.3,0.1,0.4c4.6,4.5,17,3.8,19,6.8c9,11,6,23,12,33c3,7,11,13,14,21c1,3,4,4,7,5
	c17,6,42,10,52,22c9,10,24,12,37.6,14.9c0.2,0,0.3,0,1,0.4c3.4,0.4,6.5-0.4,9.1-1.9C381.1,513.6,383,511.5,385.3,509.7z"/>
<path class="st1" d="M633.4,412.9c-0.3-0.6-0.9-1.2-1.6-1.5c-19.9-1.3-39.9-2.8-59.4-4.2c-6.9-0.5-13.7-1-20.5-1.5l-10.6-0.8
	c-10.7-0.8-21.8-1.6-32.6-2.4c-0.3,0-0.6,0-0.9,0c-0.6,0-1.3-0.1-1.9-0.4c-0.4-0.2-0.8-0.3-1.2-0.4l-1.7-0.3c-0.2,0-0.4-0.1-0.6-0.1
	h-0.2c-0.5,0-0.9,0-1.4,0c-3,0-6-0.3-9.1-0.6c-3.2-0.3-6.4-0.6-9.7-0.6c-1.1,0-2.1,0-3.1,0.1c-0.1,0-0.2,0-0.3,0
	c-0.6,0-1.2-0.1-1.8-0.4c-0.5-0.3-1.1-0.7-2.1-1.3c-1-0.7-2.1-1.5-3.4-2.1c-1-0.4-1.7-1.3-2.1-2.3c-1.1-2.9-3.3-4.9-6.9-6.2
	c-2.5-0.9-4.3-1.8-5.5-2.9c-1.2-1.1-1.7-2.2-1.7-3.8c0-6.4-2.2-11.6-4.4-16.6c-1-2.3-1.9-4.5-2.6-6.8c-0.1-0.2-0.1-0.4-0.2-0.7
	c-0.5-1.7-1.1-3.8-2.8-5.7c-0.1-0.1-0.1-0.1-0.2-0.2c-0.5-0.6-0.9-1.1-1.5-1.5c-0.8-0.7-1.7-1-2.7-1.1c-0.2,0-0.3,0-0.5,0
	c-0.3,0-0.7,0-1.1,0.1c-0.2,0.1-0.4,0.1-0.6,0.1c-1,0.4-1.7,1.1-2.4,2c-1,1.4-1.2,3.3-0.8,5.1c0,0.1,0,0.2-0.5,1
	c-0.2,0.2-0.3,0.4-0.5,0.6c-0.1,0.1-0.1,0.2-0.2,0.2c-0.1,0.3-0.3,0.5-0.4,0.8c-0.2,0.3-0.4,0.5-0.5,0.8c-1.8,3.3-2,6.8-0.4,10.4
	c0.6,1.5-0.2,3.9-1.2,6.2c-0.9,2.2-2.3,5.4-1,8.5h-0.4c-0.7,0-1.4,0-2.1,0c-0.7,0.6-1.6,0.9-2.5,0.9c-3.3,0-6.5,0-9.8,0
	c-7.1,0-14.2,0-21.3,0h-11.4c-1.8,0-3.6,0-5.5,0c-0.3,0-0.6,0-0.8,0c-1.4,0-2.7,0-4,0c-5.1,0.4-10.2,0.5-15.3-0.1
	c-0.7,0.5-1.2,1.2-1.4,2.1c-1,4,0,10,0.2,15c0.6,1.1,1,2.2,1.3,3.4c1.5,5.6,0.5,11.1-0.7,15.6c0,0.2-0.1,0.3-0.1,0.5
	c-0.1,0.9,0,1.8,0.4,2.6c1.8,3.6,2.5,7.6,1.9,12.3c-0.1,1.2,0.2,2.3,1,3.2c0.8,0.8,1.9,1.3,3,1.3c0.1,0,0.1,0,0.1,0
	c1.5,0,3.1,0,4.6,0c7,0,14.6,0.4,22.2,3.2c0.1,0.1,0.3,0.2,0.5,0.2l0.4,0.1c2.4,0.5,5,1.5,6.2,5.2c0.9,2.8,1.3,6.2-2.2,9.7
	c-0.3,0.3-0.5,0.6-0.7,0.8c-1.2,1.4-1.3,3.4-0.3,4.9c0.2,0.2,0.4,0.5,0.7,0.9c1.3,1.8,2.9,3.9,3.8,6.5c0.2,0.6,0.6,1.2,1.2,1.7
	c0.1,0.1,0.1,0.1,0.2,0.2c0.1,0.1,0.3,0.2,0.4,0.3c0.7,0.9,1,2.1,0.8,3.2c0,0.2-0.1,0.3-0.1,0.5s-0.1,0.5-0.1,0.7
	c-0.2,1.8-0.8,4-3.2,5.8c-2.4,1.8-3.4,4.8-4.5,8.2c-1,3-2.1,6.4-4.4,9.3c-0.1,0.2-0.3,0.4-0.4,0.6c-0.3,0.7-0.6,1.5-1,2.3
	c-0.6,1.3-1.2,2.8-2,4.2c-2.3,1.8-4.2,3.8-5.5,6c-2.8,4.7-3.2,10.3,0.1,16.1c0.5,1.1,1,2.2,1.4,3.3s0.8,2.1,1.2,3.2
	c1,3.1,1.4,6.1,1.3,8.9c-1.3,0-3.2,0.2-4.9,1.3c-1.1,0.7-1.8,1.9-1.9,3.2c0,1.4,0.6,2.6,1.6,3.4c4.2,3.2,6.2,7.6,6.3,14.2
	c0,0.9,0.1,1.7,0.1,2.6c0.1,1.1,0.1,2.2,0.1,3.2c-0.1,2.8,0.6,5,2.1,6.6c2.3,2.4,5.7,2.4,6.8,2.4c2.4,0,4.9,0,7.3,0
	c9,0,18.3,0.1,27.3,1c0.1,0.1,0.3,0.1,0.4,0.1c0.5,0,1,0.1,1.7,0.1c0.1,0,0.3,0,0.4,0c-3.6,4.1-2.9,8.7-2.4,11.9
	c1.6,10.8,5.5,14.9,16.7,17.4c0.7,0.1,1.5,0.3,2.1,0.6c0.6,0.3,1.2,0.4,1.8,0.4c0.4,0,0.8,0,1.1-0.1c0.4-0.1,0.8-0.1,1.1-0.1
	c0.9,0,1.7,0.3,2.4,0.9c0.1,0.1,0.2,0.1,0.2,0.2c0.1,0.1,0.2,0.1,0.3,0.2c0.1,0.1,0.1,0.1,0.2,0.2c0,0,0,0,0,0
	c0.2,0.2,0.4,0.4,0.5,0.5c0.7,0.7,1.6,1,2.6,1c0.4,0,0.9,0,1.1-0.1c0.6-0.2,1.3-0.4,1.9-0.7c0.9-0.4,1.6-1.1,2-1.9
	c0.1-0.3,0.3-0.5,0.5-0.8c0.1-0.2,0.3-0.3,0.4-0.4c0.3-0.4,0.8-0.6,1.2-0.8c0.7-0.3,1.4-0.8,1.8-1.5c0.4-0.6,0.9-1.1,1.6-1.4
	c0.6-0.2,1.1-0.7,1.5-1.2c1.6-2.1,3.7-3.6,6.2-4.5c2.2-0.8,4.4-1,6.6-1.2c3.3-0.3,4.9-0.6,6.2-1.6c0.7-0.6,1.6-0.9,2.5-0.9
	c0.3,0,0.8,0,1.2,0.2c0.6,0.1,1.4,0.4,2,0.9c4.9,1.4,9.2,3.9,13.4,6.3c1.6,0.9,3.1,1.8,4.7,2.6c1,0.5,1.9,0.9,2.8,1.2
	c0.4,0.1,0.7,0.2,1,0.3c0.3,0,0.6,0.1,0.9,0.1c0.3,0,0.7,0,1-0.1c3.9-1.6,9.9-4.1,15.3-3c0.6-0.2,1.1-0.4,1.6-0.6
	c3-0.9,6.3-2.7,9.6-3.9c2.3-1.4,4.8-2.2,7.4-1.1c0.1,0,0.2,0.1,0.4,0.1c0.4,0.1,0.8,0.2,1.2,0.3c0.5-1,1.1-2,1.8-3
	c0.5-1,1.1-1.9,1.7-2.8c2.4-3.6,5.4-6.5,8.2-9.2c0.8-0.8,1.6-1.5,2.4-2.3c0.1-0.1,0.2-0.2,0.2-0.3c-3.8-9.9,8.2-14.9,12.2-22.9
	c2-2,5,0,7-1c4-4,3-12,9-15c3-1,5,4,6,3c8-3,9-14,13-22c3-8,1-18,3.7-25.9c0.4-0.9,0.8-1.8,1.4-2.6c0.5-0.9,1.1-1.7,1.9-2.6
	c1.2-1.4,1.5-3.8,1.9-6.4c0.1-0.4,0.1-0.9,0.2-1.3c0.1-0.8,0.4-1.4,0.9-2c-0.6-2.1-0.7-4.3-0.2-6.8c0-0.1,0-0.2,0-0.3
	c0-0.2,0-0.4,0.1-0.6c0,0,0,0,0-0.1c0.1-1.3,0-2.7-0.2-4.2c0-0.2,0-0.3-0.1-0.5c0-0.4-0.1-0.8-0.2-1.2c-0.3-2-0.6-4.1-0.6-6.4
	c0-0.8,0.1-1.6,0.2-2.4c0-0.5,0.1-1,0.1-1.5c0-1.5-0.2-3-0.4-4.6c-0.3-2.4-0.6-5.1-0.3-8c0.1-0.8,0.2-1.5,0.3-2.3
	c2-10.1,4.9-19.7,7.5-27.7l0.8-2.5c0-0.1,0.1-0.1,0.1-0.2c0-0.1,0-0.2,0.1-0.3c0-0.1,0.1-0.1,0.1-0.2c0,0,0,0,0,0l0.1-0.2
	c0.3-0.6,0.6-1.1,0.9-1.7c0.1-0.3,0.3-0.5,0.4-0.8C634.1,415.2,634,414,633.4,412.9z"/>
<path class="st1" d="M418.2,160.1c0-1.5,0.9-2.8,2.3-3.5c0.5-0.2,0.9-0.5,1.2-0.8c0.2-0.1,0.4-0.3,0.5-0.5c0.6-0.6,1-1.3,1.3-2.1
	c0.6-1.5,0.5-3,0.5-3.7c-0.1-3.4,0-6.9,0-10.3c0-1.1,0-2.3,0-3.4c-0.8-3.7-0.1-6.5,1.3-8.9c-14.6-8.1-25.1-23.9-23.1-40.5
	c0-1-1-4-1-6c0-6,3-13,4-19c0-2,1-7,1-8c1-9-10-25-14-28c-2-1-4-2-6-2c-4,0-9,0-10,3c-1,6,0,11-7.4,13c-1.3,0.7-2.6,1.3-3.9,1.8
	c-7.2,3-15.1,4.2-23,5.4c-1.3,0.2-2.6,0.4-4,0.5c-6.7,1.2-33.7,10.2-40.5,8.6c-1.3-0.1-2.6-0.2-3.8-0.4c-3.8-0.5-7.6-1.5-11.3-3
	c-1-1-4,0-6.3-0.1c-0.6-0.8-1.7-1.4-2.7-1.6c-0.2-0.1-0.5-0.1-0.7-0.1c-1,0-1.8,0.3-2.5,0.8l-0.7,0.5c-1.6,1.1-2.1,3.3-1.3,5
	c1,2,2.2,4.2,3.8,6.1c1.6,2,3.7,3.7,6.4,5.1c1.7,0.8,3.6,2,3.3,3.1c-2.2,4.2-1.2,9.2,0.8,11.2c0,13.5,8.7,21.2,19.2,27.1
	c5,2.8,10.4,5.2,15.5,7.7c0.5,0.7,1,1.5,1.5,2.3c-0.6,1-1.1,2.1-1.1,2.8c1,6,6,10,7,14c3,11,2,22,7.8,32.1c0.3,0.7,0.7,1.3,1.1,1.9
	c0.8,1.6,0.7,3.2-0.2,5.2c-0.5,0.8-1,1.6-1.5,2.4c-0.3,0.4-0.8,1.2-1.2,2.2c-1,1.4-3.6,5.4,0.9,8.9c0.5,0.4,1.1,0.8,1.6,1.2
	c4,3.1,7.5,5.8,9.3,10c0.7,1.7,2.4,3.8,6.8,3.8c0.4,0,0.8,0,1.2,0.1c0.3,0,0.5,0,0.8,0c0.1,0,0.2,0,0.3,0c0.2,0,0.4,0,0.6,0
	c1.5,0,3-0.7,3.8-1.8c1.3-1.6,1-3.3,0.7-4.3c1.3-2.7,1.3-5.5,1.3-7.8c0-1.1,0-2.1,0.1-3.1c0.6-3.3,2.7-5.1,8-6.6
	c0.3-0.1,0.6-0.1,1-0.1c2,0,4,2.1,5.1,4.3c1.7,3.3,4.6,5.3,7.6,5.3c1.8,0,3.4-0.7,4.5-2c0.1,0,0.3-0.1,0.4-0.1
	c1.6-0.4,4.5-1,5.7-3.9c1.2-2.6-0.2-5.2-1.4-6.9c0.1-0.5,0.6-1.3,1-1.9c0.8-1.5,1.8-3.4,2-5.6c0.1-0.4,0.7-1.6,1.2-2.3
	c0.3-0.6,0.6-1.1,1-1.7c2.3-4.8,4.3-5.7,7.1-5.7c0.6,0,1.3,0.1,1.9,0.2c1.9,0.3,4,0.4,6.5,0.4c1.5,0,3.1-0.1,4.5-0.1
	c1.3,0,2.4-0.1,3.7-0.1h0.1h0.6C418,160.1,418.1,160.1,418.2,160.1L418.2,160.1L418.2,160.1z"/>
<path class="st1" d="M736.5,185.9c-0.9-0.4-1.8-0.8-2.7-1.2c-3.9-2.3-8.1-3.7-12.5-4.6c-1.4-0.3-2.9-0.6-4.4-0.8
	c-3.6,0-7-0.2-10.5-0.8c-1.1-0.2-2.3-0.4-3.5-0.6c-15.9-0.6-28.9-8.6-36-23.1c-0.6-0.7-1.3-1.3-2.2-1.8c-0.9-0.5-1.9-0.9-3.1-1.1
	c-1.2-0.5-2.5-0.9-3.8-1.3c-1.3-0.4-2.6-0.8-3.9-1.3c-1,0-4-2-6-3c-1.6-0.5-3-0.8-4.4-0.8c-1.5,0.9-3.4,1.5-5.6,1.8
	c-0.2,0-0.4,0-0.7,0.1c-0.2,0.1-0.3,0.2-0.5,0.3c-1,0.7-1.8,1.6-2.5,2.7c-0.2,1.9-0.7,3.9-1.6,5.5c-0.3,1.2-0.7,2.4-1.7,3.3
	c-1,0.8-2,1.5-3,2.2c-3,2.6-6.2,5.2-9.2,7.9c-1,0.9-2,1.8-3,2.7c0,0-0.1,0.1-0.1,0.1c-5.6,6.3-9.6,15.2-15.6,20.1
	c-3,3-7.2,3.2-11.1,1.8c-4.8-1-7.6-4.7-9.1-9c0,0,0,0,0,0c-0.4-1.2-0.8-2.4-1-3.6c-0.6-1.2-1.4-2.4-2.3-3.7
	c-1.6-2.4-3.4-5.1-4.3-8.4c0,0,0,0-0.1-0.1c-4-3.5-7.6-11.2-11.8-20.9l-0.1-0.1c-0.6-1.3-1.1-2.6-1.6-3.7c-0.4-0.9-0.8-1.9-1.2-2.8
	c-2.2-5.3-2.3-6.5-2.3-7.1c0-0.6-0.1-1.1-0.1-1.6c-0.1-0.7-0.1-1.4-0.2-2.1c-0.1-1.2-2.2-2.8-3.3-2.9c-6.9-0.9-11.5-4.4-15.5-8
	c-1.2-1.1-2.5-1.5-5.2-1.6c-3.6-0.2-6.3-1.3-8.2-3.5c-1-1.1-1.6-2.4-2-3.9c-0.7-1.8-0.7-3.3-0.4-4.9c0.1-1.6,0.6-3.1,1.1-4.6
	c0.1-0.4,0.2-0.8,0.2-1.2c0.2-0.5,0.5-0.9,0.8-1.3c0.1-0.2,0.1-0.3,0.2-0.5c0.7-0.9,1-1.9,0.9-3c-0.1-1-0.6-2-1.5-2.7
	c-0.1,0-0.2-0.1-0.3-0.2c-1.3-1-2.9-1.5-4.6-1.5c-9,1.1-17,5.1-26,4.1c-6,0-18,4-17,12c0,3,5,2,7,5c-11-2-31-5-34,7c-3-2-5,1-7,1
	c-4,0-9-2-12,2.9c-0.8,0.8-1.5,1.6-2.1,2.5c-0.3,0.4-0.5,0.7-0.7,1.1c-1.4,2.4-2.1,5.3-1.3,8.9c0,1.2,0,2.3,0,3.4
	c0,3.4-0.1,6.9,0,10.3c0,0.7,0.1,2.2-0.5,3.7c-0.3,0.8-0.7,1.5-1.3,2.1c-0.1,0.2-0.3,0.4-0.5,0.5c-0.3,0.3-0.7,0.6-1.2,0.8
	c-1.4,0.6-2.3,2-2.3,3.5v0c0,0.1,0,0.2,0,0.3c0.1,2.6,0.2,4.7,0.4,6.6c0.3,3.6,1.9,6.5,3.4,9.1c0.4,0.8,0.9,1.6,1.2,2.3
	c0.4,0.8,0.8,1.5,1.3,2.3c0.5,0.7,1,1.4,1.6,2.1c0.8,1,1.4,2.2,1.9,3.6c8.3,9.9,19.7,15.8,30.8,22c1.2,0.8,2.5,1.5,3.8,2.2
	c5.9,3.4,11.7,7.1,16.6,11.8c0.6,0.6,0.6,1.7,0.1,3.1c-1.8,3.1-3.7,6-4.8,9.6c-0.1,0.2-0.2,0.4-0.2,0.6c-0.2,0.3-0.3,0.6-0.4,0.9
	c-0.3,0.8-0.5,1.6-0.8,2.4c-1,3-2.1,5.9-3.2,8.6c-0.3,0.7-0.6,1.4-1,2.1c-8.7,17.8-16.8,36.3-24.7,54.1c-0.4,1-0.9,2-1.3,3
	c-2.1,4.9-4.3,9.7-6.5,14.6c-0.4,1-0.9,2-1.3,2.9c-0.8,1.6-1.6,2.8-2.6,3.6c-1.9,1.4-3.1,3-3.7,4.8c-0.2,0.6-0.3,1.2-0.4,1.8
	c-0.5,3.8,2.2,7,3.1,8c1.3,1.5,2.5,3.1,3.7,4.7c0.7,1.1,1.9,1.7,3.2,1.7c0.1,0,0.1,0,0.2,0c0.1-0.1,0.3-0.1,0.4-0.2
	c0.6-0.2,1.2-0.3,1.7-0.3c1.7,0,3.2,0.8,4.4,2.3l0.2,0.3c0.1,0.1,0.1,0.2,0.2,0.2c1.7,1.9,2.4,4,2.9,5.7c0.1,0.2,0.1,0.5,0.2,0.7
	v0.1c0.7,2.2,1.6,4.3,2.6,6.6c2.2,5,4.4,10.3,4.4,16.6c0,2,0.9,4.4,7.2,6.6c1.6,0.5,6.3,2.2,7.4,7.9c2.1,0.6,3.7,1.7,5,2.7
	c1.6,1.2,2.5,1.8,3.7,1.8c0.1,0,0.2,0,0.3,0c1-0.1,2-0.1,3.2-0.1c3.3,0,6.6,0.3,9.7,0.6c3.2,0.3,6.1,0.6,9.1,0.6c0.5,0,1,0,1.4,0
	h0.1c0.2,0,0.4,0,0.6,0.1l1.7,0.3c0.7,0.1,1.3,0.4,1.8,0.8c0,0,1,0,1.2,0c0.3,0,0.6,0,0.9,0c10.8,0.8,21.7,1.6,32.5,2.4l10.7,0.8
	c6.7,0.5,13.3,1,20,1.5c19.1,1.4,38.8,2.9,58.2,4.1c0.5,0,1.1,0.2,1.6,0.5c0.1,0,0.3,0,0.4,0c0.2,0.1,0.5,0.1,0.8,0.1
	c0.2,0,0.3,0,0.4,0c1.7,0,3.3-1.1,3.7-3.1c0.5-1.3,0.8-2.5,1-3.6c0.8-4.4,3.4-7.8,5.6-10.7c1.3-1.7,2.5-3.3,3.3-5
	c0.5-1,1.4-1.8,2.5-2.1c1.6-0.5,2.8-1.5,3.9-3.5c0.6-1,1.2-2,1.8-3c2.4-4.1,4.8-8,5.7-12.3c0.2-0.9,0.3-1.8,0.3-2.7
	c-0.9-1.2-1.7-2.4-2.3-3.6c-0.6-1.2-1.1-2.5-1.4-3.7c-0.2-1.1-0.2-2.3-0.2-3.4c-0.4-7.9,2.8-16.2,9.2-21.6c0.3-0.1,0.6-0.2,0.9-0.3
	c0.6-0.6,1.3-1.1,2-1.6c1.9-1.4,4-2.7,6.1-3.6c0.3-0.5,0.5-1.1,0.8-1.6c0.4-0.4,0.9-0.7,1.3-1.1c0.2-0.4,0.4-0.9,0.6-1.3
	c2.4-5.9,1.1-12.1-0.6-18.9c-0.5-0.5-0.9-1-1.4-1.5c-1-2-1-5,0-7c0.1-0.1,0.1-0.2,0.2-0.3c1.4-5.3,7.8-9.4,12.7-12.6
	c0.2-0.1,0.5-0.3,0.8-0.5c0.7-0.5,1.2-1.2,1.5-2c0.3-0.7,0.7-1.3,1.3-1.8s1.2-0.8,1.8-0.9c0-0.1,0.1-0.1,0.2-0.1
	c0.7-0.2,1.4-0.4,2.1-0.5c0.9-0.2,1.8-0.4,2.5-0.6c0.7-0.3,1.3-0.7,1.8-1.3l1-1.2c4.5-5.4,8.8-10.6,11.5-16.4
	c0.4-0.8,0.8-1.7,1.2-2.6c2.2-4.9,4.6-9.9,8.1-14.5c0.9-1.2,1.4-2.7,1.8-4.4c0.1-0.5,0.2-1,0.3-1.5c0.2-1.1,0.5-2.4,0.8-3.6
	c0.6-2.4,1.5-4.8,3.4-6.9c0.5-0.6,0.8-1.2,0.9-1.9c0-0.1,0-0.2,0-0.3c-0.1-0.6-0.1-1.6,0.2-2.7c0.2-1.1,0.7-2.4,2-3.4
	c1.2-1,1.9-2.2,2.3-3.6c1.4-6.9,0.9-14.7,3.6-19.8c0.2-1.6,0.3-3.2,0.4-4.8C738.1,187.1,737.5,186.3,736.5,185.9z"/>
<path class="st0" d="M479.1,222.3c-5-4.6-10.7-8.3-16.6-11.8c-1.3-0.7-2.6-1.4-3.8-2.2c-11.1-6.2-22.5-12-30.8-22
	c-0.7-0.9-1.5-1.8-2.1-2.7c-0.6-0.7-1.1-1.4-1.6-2.1c-0.5-0.7-0.9-1.5-1.3-2.2c-0.3-0.7-0.7-1.5-1.2-2.3c-1.4-2.5-3.1-5.5-3.4-9.1
	c-0.2-1.7-0.3-3.6-0.4-5.9c0-0.7-0.3-1.4-0.6-1.9h-0.1c-1.3,0-2.4,0.1-3.7,0.1c-1.5,0-3.1,0.1-4.5,0.1c-2.5,0-4.6-0.1-6.5-0.4
	c-0.6-0.1-1.3-0.2-1.9-0.2c-2.7,0-4.8,0.9-7.1,5.7c-0.3,0.6-0.6,1.1-1,1.7c-0.4,0.7-1.1,1.9-1.2,2.3c-0.2,2.2-1.2,4.1-2,5.6
	c-0.3,0.6-0.8,1.4-1,1.9c1.2,1.7,2.5,4.3,1.4,6.9c-1.2,2.8-4.1,3.5-5.7,3.9c-0.1,0-0.3,0.1-0.4,0.1c-1.2,1.3-2.7,2-4.5,2
	c-3,0-5.9-2-7.6-5.3c-1.1-2.1-3.1-4.3-5.1-4.3c-0.3,0-0.6,0-1,0.1c-5.3,1.5-7.4,3.4-8,6.6c-0.1,0.9-0.1,1.9-0.1,3.1
	c0,2.3,0,5.1-1.3,7.8c0.2,1,0.5,2.6-0.7,4.3c-0.8,1.1-2.3,1.8-3.8,1.8c-0.2,0-0.4,0-0.6,0c-0.1,0-0.2,0-0.3,0c-0.3,0-0.5,0-0.8,0
	c-0.3-0.1-0.7-0.1-1.2-0.1c-4.3,0-6-2-6.8-3.8c-1.8-4.2-5.3-6.9-9.3-10c-0.5-0.4-1.1-0.8-1.6-1.2c-4.5-3.5-1.9-7.5-0.9-8.9
	c0.4-0.9,0.9-1.7,1.2-2.2c0.6-0.8,1.1-1.6,1.5-2.4c0.9-2,1-3.6,0.2-5.2c-0.3-0.6-0.7-1.2-1.1-1.9c-5.8-10.1-4.8-21.1-7.8-32.1
	c-1-4-6-8-7-14c0-0.7,0.5-1.8,1.1-2.8c-0.5-0.8-1-1.6-1.5-2.3c-5.1-2.4-10.5-4.9-15.5-7.7c-2.2,0.2-4.6,0.8-7.2,1.9
	c-8,3-18,12-27.6,16.7c-2.3,1.2-4.4,3.2-5.7,6.4c-1.4,0.2-2.5,0.8-3.4,1.5c-0.2-0.5-0.6-1-1-1.4c-1.3-1.4-3-2.1-4.9-2.1
	c-1.1,0-2,0.2-2.8,0.4c-2.9,0.8-5.1,2.7-6.6,4.1c-1.3,1.1-2.6,1.7-3.9,1.7s-2.6-0.6-4-1.8c-2.6-2.3-5-4.5-7.2-6.6
	c-1.4-1.3-3.7-3.5-7.1-3.5c-0.3,0-0.6,0.1-0.9,0.1c0.1-0.8,0.2-1.7,0.2-2.6c0-0.4,0-0.9,0-1.4c0.2-3.5,0.4-8.8-3.8-11.1
	c-2.1-1.1-2.3-2.4-2.9-6.2c-0.1-0.7-0.2-1.5-0.3-2.2c-0.3-1.4-1.3-2.6-2.7-3.1c-0.5-0.1-0.9-0.2-1.3-0.2c-1.1,0-2,0.4-2.8,1.1
	c-2,1.9-4.1,3.3-6.4,4.8c-1.3,0.9-2.7,1.8-4,2.8c-0.3,0.2-0.5,0.4-0.8,0.6c-0.3,0.2-0.6,0.5-0.9,0.7l-0.2-0.2
	c-0.7-0.7-2.1-2.2-4.4-2.2c-1.2,0-2.4,0.4-3.3,1.2c-1.2,1-1.9,2.4-2,3.9c0,0.2,0,0.4,0,0.6c-0.2,0-0.4,0-0.6,0c-2.4,0-4.9,0-7.2,0.1
	c-2.3,0-4.7,0.1-7,0.1c-5,0-8.9-0.2-12.5-0.8c-1.2-0.2-2.3-0.3-3.3-0.3c-6.4,0-8.2,3.7-8.7,5.2c-1.5,4.7-1.5,10-0.1,14.2
	c1.5,4.6,7,4.7,10.6,4.7c0.4,0,0.8,0,1.1,0c3.4,0,4.1,0.4,4.2,0.5c0.2,0.1,0.6,0.9,0.7,4.4c0,0.3,0,0.6,0.1,0.9
	c-0.1,0-0.3,0-0.5-0.2c-0.1-0.1-0.1-0.1-0.2-0.2c-0.6-0.7-2.1-2.1-4.5-2.1c-0.6,0-1.1,0-1.7,0.2c-14.2,3.7-15.5,5.4-15.6,20.4
	c-0.1,4.3,0.7,9.8,7.4,13.2l0.6,0.3c2.5,1.3,3.8,2.1,3.7,3c-0.6,5.2,1.6,8.6,3.7,11.4c0.4,0.5,0.7,1.2,0.6,3
	c-0.2,5.1-1.2,10.1-2.2,15.4c-0.5,2.5-1,5-1.4,7.5c-1.8,11.3-3.8,22.6-5.6,33c-0.3,1.5-0.5,2.9-0.7,4.3c-2.2,5.7,1.8,12.7-4.2,17.7
	c-3-5-10-6-15-4c-2,1-3,5-6.2,6.5c-1,0.6-2.1,1.1-3.2,1.5c-1.1,0.4-2.3,0.7-3.6,1c-12,3-25,2-34,10c-7,5-6,14-12,21c-3,2,1,8-1,12
	c-3,6-11,9-16,15c-3.7,6.1,0.1,9.2,4.8,11.5c1.5,0.2,2.8,1,4.1,1.8c1.6,0.7,3.1,1.4,4.1,2.1c1,0.5,1.9,1,2.8,1.4
	c4.7,2.4,9.4,4.4,14.4,5.9c2,0.6,4.1,1.2,6.1,1.7c4.4,0.8,9.5,1.5,14.5,2.2c5.7,0.8,11.2,1.5,15.8,2.4c2.2,0.3,4.1,0.5,5.2,0.9
	c3.1,0.9,6.2,1.5,9.5,2.1c6.7,1.3,13.5,2.6,20,6.2c6.4,3.6,11.7,7.6,16.7,11.4c7.4,5.6,15.2,11.5,26.7,16.2c4,1.6,8,3.4,11.8,5.1
	c4.9,2.2,10,4.5,15,6.4c0.4,0.2,0.9,0.3,1.4,0.3c0.8,0,1.6-0.3,2.1,0c0.3-0.2,0.6-0.4,0.9-0.5c0.2-0.1,0.3-0.2,0.5-0.3
	c1-0.4,1.8-0.9,2.6-1.6c4-5.4,8-5.4,14-4.4c2,0,6-1,9-2c1,0,3-4,5-4c5,0,11,1,16-2s6-10,11-14c14-12,35-23,49-3c1,0,3,1,4-1
	c6.6,4.8,13.9,7.1,21.4,7.9c3.2-2.2,10.8-0.9,16-0.8c1.3,0,2.6,0,3.9,0c0,0,0,0,0.1,0c2.1,0,4.2,0,6.4,0h11.1c7.2,0,14.4,0,21.5,0
	c3.9,0,7.8,0,11.7,0c0.8-0.7,1.4-1.6,1.5-2.7c0.2-1.9,1-3.6,1.5-4.9c1.1-2.7,1.4-3.8,1.4-4.6c0.1-0.6-0.1-1.2-0.3-1.8
	c-1.8-4-1.4-7.6,1-11.1c0.3-0.5,0.6-1,1-1.5c0.3-0.6,0.4-1.3,0.4-2c-0.1-1.3,0.1-2.5,0.7-3.6c0.7-1.3,0.6-3-0.3-4.2
	c-1.2-1.7-2.5-3.3-3.8-4.8c-0.9-1.1-3.5-4.1-3.1-8c0.1-0.7,0.3-1.6,0.7-2.5c0.6-1.8,1.8-3.4,3.7-4.8c1-0.8,1.8-2,2.6-3.6
	c0.4-1,0.9-2,1.3-2.9c2.2-4.9,4.3-9.7,6.5-14.6c0.4-1,0.9-2,1.3-3c7.9-17.8,16-36.3,24.7-54.1c0.3-0.7,0.7-1.4,1-2.1
	c1.2-2.7,2.2-5.6,3.2-8.6c0.3-0.8,0.5-1.6,0.8-2.4c0.1-0.3,0.3-0.6,0.4-0.9c0.1-0.2,0.1-0.4,0.2-0.6c1-3.5,3-6.4,4.8-9.6
	C479.7,224,479.7,222.9,479.1,222.3z"/>
<path class="st1" d="M858.9,237c0,0.1,0,0.2,0,0.3c-0.1,0.7-0.4,1.4-0.8,2c-0.4,0.5-0.7,1.1-0.8,1.8c0,0.3-0.2,0.6-0.3,0.9
	c0,0,0,0.1,0,0.1c-0.1,0.1-0.1,0.1-0.2,0.2c-0.2,0.2-0.3,0.5-0.5,0.7c0,0.1-0.1,0.1-0.1,0.2c-2.2,6.2,2.8,12.2,3,18.1c0,0,0,0,0,0
	c0.3,0.9,0.6,1.7,1,2.6c0.1,0.3,0.3,0.6,0.4,0.9c0.1,0.1,0.1,0.2,0.2,0.4c0.3,0.5,0.5,1,0.8,1.5c0,0,0,0,0,0
	c0.3,0.5,0.7,1.1,1.1,1.6c0,0.2,0,0.4-0.1,0.7c0.1,0.5,0,1-0.1,1.5c-0.1,0.3-0.4,1.6-0.4,1.6c0,0.2-0.1,0.3-0.2,0.5
	c-1.2,2.8-1.4,5.7-1.5,8.2c-0.1,1.4-0.2,2.7-0.4,3.9c-0.7,3.7,0.8,6.2,3,8.1c0.3,0.2,0.5,0.4,0.8,0.6c0.2,0.2,0.5,0.4,0.7,0.5
	c0.3,0.2,0.5,0.4,0.8,0.6c0.6,0.5,1.1,0.9,1.4,1.5c0.1,0.1,0.1,0.2,0.2,0.3c0.1,0.1,0.2,0.3,0.2,0.4c0.3,0.7,0.4,1.6,0.4,2.9v1.9
	c0,6.5-0.1,13.9,2.2,20.9c0.1,0.2,0.1,0.4,0.2,0.6c0,0.1,0.1,0.3,0.1,0.4c0.2,0.4,0.3,0.9,0.5,1.3c0,0.2,0,0.3,0,0.4
	c0,0.1,0,0.2,0,0.3c0,0.1,0,0.3,0,0.4c0,0.4-0.1,1.1,0,1.8c0.2,1.8,0.6,3.3,1.3,4.5c1.5,2.8,3.7,4.3,5.7,5.1c2.1,0.8,2.8,1.3,3,1.5
	c-0.1,0.3-0.2,1.1-1.1,3l-0.1,0.1c-0.1,0.3-0.1,0.5-0.2,0.8c-0.2,0.3-0.3,0.7-0.5,1.1c-0.1,1,0,2,0.6,2.8c0.6,1,1.4,1.6,2.5,1.8
	c0.1,0,0.1,0,0.2,0h1.2c0.3,0,0.6-0.1,0.8-0.1c0.5,0,1,0.1,1.5,0.2c0.5,0.2,1.1,0.3,1.6,0.4c0.5,0.1,1,0.1,1.4,0.1
	c1.9,0,4-0.5,7-1.7c1.3-0.5,2.6-0.8,4-0.8c2.2,0,4.3,0.6,6.9,2c1.7,0.9,3,2.1,4.2,3.3c1.2,1.2,2.3,2.6,3.3,3.8
	c0.1,0.2,0.2,0.4,0.4,0.5c0.2,0.2,0.3,0.4,0.5,0.6c0.8,1,1.9,1.5,3.1,1.5c0.8,0,1.5-0.2,1.9-1c0.7-0.5,1.4-0.8,2.2-1.1
	c1.1-0.3,1.9-1.1,2.4-2.1c0.2-0.5,0.5-0.9,0.8-1.4l0.1-0.1c0.2-0.3,0.3-0.6,0.4-0.9v-0.1c0.5-1.4,0.2-2.9-0.8-4
	c-1.5-1.6-3.2-4.2-3-7.3c0.1-1.3,0.5-2.5,1.3-3.6c0.5-0.7,0.7-1.5,0.7-2.4c-0.1-2.9,0.7-5.6,2.3-7.6c0.6-0.8,0.9-1.8,0.8-2.8
	c-0.1-0.4-0.1-1,0-1.5c0-0.4,0.1-0.9,0.3-1.4c0.1-0.1,0.1-0.3,0.2-0.5c0.2-0.5,0.4-1,0.6-1.5c0-0.1,0-0.1,0.1-0.2
	c0.7-1.4,1.4-2.2,2.2-2.8c1-0.8,2.1-1.1,3.1-1.1c3.4-1.3,4.8-4.3,6-7.4c0.9-3,1.6-6.2,4.3-8.2c0,0,0,0,0,0c0.4-0.8,0.8-1.5,1.1-2.3
	c0.4-0.8,0.8-1.5,1.1-2.3c1-1.9,1.9-3.9,2.9-5.8c0.2-0.4,0.4-0.7,0.7-1c1.5-1.6,3.2-2.7,5-3.4c1.4-0.5,2.4-1.7,2.6-3.2
	s-0.5-2.9-1.7-3.8c-0.3-0.3-0.7-0.6-1.1-0.9c-0.4-0.4-0.8-0.8-1.3-1.1c-3.6-2.8-6.7-6.2-10-9.8c-4.6-5.1-9.4-10.4-16.1-14
	c-4-2.2-7.7-4.9-11.7-7.8c-3.2-2.3-6.5-4.7-10-6.8c-5.2-3.1-12.1-6.7-20.2-6.7c-1.4,0-2.8,0.1-4.1,0.3c-4.4,0.7-8.9,1.3-13.3,1.7
	c-1.4,0.2-2.8,0.3-4.2,0.4l-1.1,0.1c-1.2,0.1-2.3,0.8-3,1.8c-0.3,0.4-0.5,0.8-0.6,1.2C858.9,236.1,859,236.6,858.9,237z"/>
<path class="st1" d="M681.1,829.4c-0.6,0-1.1-0.1-1.6-0.3c-0.1-0.1-0.2-0.3-0.4-0.4c-0.7-0.7-1.5-1-2.4-1.2
	c-0.9-0.2-1.7-0.3-2.5-0.3c-3.4,0.8-6.7,2.1-9.8,3.4c-1.4,0.3-2.7,0.5-4,0.7c-3.4,1.2-6.7,1.9-10,1.5c-0.7-0.2-1.4-0.5-2.1-0.7
	c-1.8,0-3.5-0.1-5.3-0.1c-1.8-0.7-3.5-1.5-5.3-1.9c-1.6-0.1-3.2-0.2-4.9-0.3c-0.7,0-1.4,0.1-2.1,0.2c-0.9,0.3-1.7,0.8-2.5,1.5
	c-0.5,0.3-1,0.6-1.5,0.9c-2.7,0.7-5.6,1.8-8.7,3c-1.3,0.5-2.7,1.1-4,1.7c-2.3,1.2-4.1,2.8-5.5,4.4c-1.8,0.8-3.7,1.4-5.6,1.7
	c-2.8,0.9-5.5,0.8-8.1,0.3c-1.7-0.2-3.4-0.5-5.1-0.8c-2-0.8-4-1.8-6-2.6c-1-0.3-2-0.7-3-1c-1.3-0.4-2.6-0.6-3.9-0.8
	c-0.3-0.1-0.6-0.2-0.8-0.3c-1.2-0.1-2.4-0.2-3.7-0.2c-0.8,0-1.6,0-2.4,0.1c-0.5,0.1-1,0.1-1.5,0.1c-1.9,0-3.1-0.3-4.6-1.1
	c-1.8-1-3.7-1.5-5.5-1.5c-2.4,0-4.6,0.9-6.4,2.6c-0.4,0.1-0.7,0.1-1.1,0.1c-0.3,0-0.7,0-1-0.1c-0.4-0.1-0.8-0.3-1.2-0.6
	c-1.1,1.2-2,2.7-2.7,4.6l-0.1,0.2c-0.1,0.2-0.2,0.4-0.3,0.7c-0.9,3.1-0.6,6-0.3,8.5c0.2,1.1,0.3,2.3,0.3,3.3
	c-0.1,0.9-0.2,1.7-0.5,2.3c-0.2,0.3-0.2,0.6-0.3,0.8c-0.2,0.7-0.3,1.5-0.2,2.2c0.2,0,0.4,0,0.6,0.1c0.9,0.2,1.7,0.8,2.3,1.6
	c0.2,0.4,0.4,0.8,0.6,1.2c0.1,0.1,0.2,0.2,0.3,0.3c0.1,0.1,0.1,0.2,0.2,0.2c0,0,0,0,0,0c0.7,0.8,1.7,1.4,2.8,1.7
	c0.8,0,1.6-0.1,2.4-0.4c0,0,0,0,0,0c2.4-0.8,4.8-1.1,7.2-1.1c0,0,0,0,0,0c0.1,0,0.1,0,0.2,0c1.9,0,3.7,0.3,5.6,0.7
	c1.7,0.3,3.5,0.8,5.3,1.4c0,0,0,0,0,0c0,0,0.1,0,0.1,0c0.9,0.4,1.9,0.6,2.8,0.8c1.2,0.2,2.4,0.3,3.8,0.3c0.1,0,0.3,0,0.4,0
	c0.4,0,0.9,0,1.3,0c0.1,0,0.3,0,0.5,0c1.9,0,4,0.3,6,0.9c0.8,0.2,1.6,0.4,2.4,0.7c0.4,0.1,0.8,0.4,1.2,0.6c0.4,0.3,0.7,0.6,1.1,1
	c0,0,0,0,0,0c0,0,0,0,0,0c1.6,1.5,3.8,3.5,7.3,3.6c0.4,0,0.8,0,1.1-0.1c0.1,0,0.3,0,0.4,0c0.2,0,0.5,0,1.1,0.3
	c0.6,0.2,1.1,0.5,1.6,0.8c0.2,0.2,0.3,0.3,0.5,0.6c0.3,0.4,0.8,0.7,1.3,1c0.1,0,0.1,0.1,0.2,0.1c0,0,0.1,0,0.1,0
	c0.1,0.1,0.3,0.1,0.4,0.1c0.1,0,0.1,0,0.2,0.1c0.3,0.1,0.6,0.2,0.9,0.4c0.7,0.2,0.8,0.4,0.9,0.7c0.2,0.3,0.4,0.5,0.6,0.8
	c0.2,0.3,0.4,0.6,0.6,0.9c0.1,0.1,0.1,0.1,0.2,0.2c0.4,0.4,0.9,0.7,1.4,0.9c0.3,0.1,0.7,0.3,1,0.5c0.1,0,0.3,0.1,0.4,0.1
	c0,0.1,0.1,0.2,0.1,0.4c0.2,0.2,0.4,0.4,0.5,0.6c0.2,0.2,0.3,0.4,0.5,0.6c0.4,0.4,0.9,0.7,1.4,0.9c0.1,0,0.1,0,0.2,0.1
	c2.3,1,4.1,2.5,5.6,4.6c1.3,1.7,2.4,3.8,3.2,6.5c0.1,0.2,0.1,0.3,0.2,0.5c0.3,0.4,0.7,0.8,1.2,1c0.5,0.3,1.1,0.4,1.7,0.5
	c0.1,0,0.1,0,0.2,0c1,0.1,2.1,0.2,3.1,0.3c2.5,0.2,4.8,0.4,6.9,0.9c0.8,0.2,1.6,0.3,2.5,0.3c0.9,0.1,1.7,0.4,2.3,0.9
	c0.8,0,1.7,0,2.4-0.1c0.8-0.1,1.6-0.1,2.2-0.1c0.6,0,1.1,0,1.6,0.1c-4.2,3.9-4.6,8.6-4.9,12.3c-0.2,2.5,0.1,4.4,1,5.9
	c0.6,0.6,1.4,1.1,2.4,1.6c0.3,0.2,0.6,0.3,0.9,0.4c0.9,0.3,1.6,1,2.1,1.9c0.8,0.2,1.5,0.4,2.2,0.4c1.5,0,2.8-0.5,4-1.7
	c0.9-0.7,1.8-1.7,2.4-2.5c0.3-0.4,0.5-0.7,0.8-1l0.3-0.3c4.3-5,9.6-9.1,15.9-12.4c1.9-0.9,3.9-2.3,5.2-5.2c3.9-9.3,4.2-18.8,4.3-28
	c0-2.2,0-4.4,0.1-6.4c0.1-3.2-0.3-6.3-0.7-9.3c-0.7-5.7,0.8-24.2-0.2-25.5c-0.1-0.1-0.1-0.1-0.2-0.2c-0.3,0.2-0.6,0.3-0.9,0.4
	C681.9,829.3,681.5,829.4,681.1,829.4z"/>
<path class="st1" d="M693.9,809.6c-0.1-0.1-0.2-0.3-0.3-0.4c-0.4-0.3-0.9-0.5-1.4-0.7c-8.1-4.4-15.3-9.8-21.5-16.1
	c-6.5-6-11.9-12.8-14.4-20.4c-2.6-5.5-4.5-11.3-5.7-17.5c-0.3-0.2-0.5-0.3-0.7-0.5c-0.1-0.1-0.2-0.1-0.4-0.2c0-0.1,0-0.2,0-0.2
	c-0.3-0.4-0.5-0.8-0.7-1.3c-2.1-0.3-4.2-0.6-6.2-0.8c-6.9-0.2-13.6-1.4-20.2-3.1c-5.1-1.1-10.2-2.5-15.5-4.5
	c-1.3-0.2-2.5-0.4-3.8-0.8c-0.9-0.2-1.8-0.5-2.7-0.9c-0.3,0-0.6-0.1-0.9-0.1c-0.2-0.2-0.4-0.4-0.6-0.6c0,0,0,0,0,0
	c-0.7-0.5-1.5-0.8-2.4-0.8c-0.1-0.1-0.3-0.2-0.4-0.3c-0.2-0.1-0.4-0.1-0.6-0.2c-0.3-0.2-0.6-0.3-0.9-0.4c-0.1,0-0.2-0.1-0.2-0.1
	c-0.3-0.1-0.6-0.1-0.9-0.1c0,0,0,0,0,0c-1.1,0-2.1,0.4-2.9,1.2c-1.3,1.4-2.7,2-4.8,2c0,0,0,0,0,0c0,0,0,0-0.1,0
	c-1.7,0-3.5-0.4-5.5-0.8l-0.4-0.1c0,0-0.1,0-0.1,0c-0.5-0.1-1-0.2-1.5-0.3c-0.4-0.1-0.8-0.1-1.2-0.2c-0.1,0-0.2,0-0.3-0.1
	c-0.4,0-0.7-0.1-1-0.1c-0.6-0.1-1.3-0.1-1.9-0.1c-1.8,0-3.4,0.3-5.2,0.8c-0.7,0.2-1.4,0.4-2.1,0.7c-1.5,0.6-2.8,1.2-4.1,1.9
	l-0.3,0.2c0,0,0,0-0.1,0c-1.2,0.6-2.4,1.2-3.4,1.6c-4.6,1.6-7.6,4.9-9,9.5c-0.1,0.4-0.2,0.7-0.3,1.1c-0.1,0.4-0.2,0.8-0.3,1.2
	l-0.1,0.4c-0.1,0.6-0.3,1.9-0.6,2.4c-0.1,0-0.3,0-0.4,0c-0.2,0-0.4,0-0.6,0c-1.2,0-2.4,0.6-3.2,1.6c-0.2,0.3-0.4,0.6-0.5,0.9
	c-1.4,0.8-2.2,2-2.7,3c-0.1,0.3-0.2,0.5-0.2,0.7c-0.6,1.7-0.9,3.4-1.2,5c-0.6,2.9-0.9,4.2-1.6,5.2c-0.5,1-1.3,1.7-2.5,2.2
	c-2.1,0.8-3,3.1-3.1,4.8c0,1.4,0.4,2.3,0.8,2.9c0.4,0.5,0.6,1.1,0.6,1.7c0.1,1.4-0.6,3.2-1.2,4.9l-0.1,0.2c-1.1,3.1-1.6,6.1-2,9.1
	c-0.6,3.9-1.2,7.6-3.3,10.6c-3.6,5.1-0.6,8.7,0.4,9.7c1.6,1.6,3.5,2,4.7,2c1.4,0,2.7-0.4,3.6-0.8c2.3-0.9,4.2-1.4,5.5-1.4
	c1.1,0,2.9,0,4.2,6.7c0.5,2.5,1,4.3,1.7,5.7c0.3,0.6,0.8,1.1,1.4,1.5c0.4,0.3,0.8,0.5,1.2,0.6c0.3,0.1,0.7,0.1,1,0.1
	c0.4,0,0.7,0,1.1-0.1c1.8-1.6,4-2.6,6.4-2.6c1.8,0,3.7,0.5,5.5,1.5c1.5,0.8,2.7,1.1,4.6,1.1c0.5,0,1,0,1.5-0.1
	c0.8-0.1,1.6-0.1,2.4-0.1c1.2,0,2.5,0.1,3.7,0.2c0.3,0.1,0.5,0.2,0.8,0.3c1.3,0.1,2.6,0.4,3.9,0.8c1,0.4,2,0.7,3,1
	c2,0.8,4,1.7,6,2.6c1.7,0.4,3.4,0.7,5.1,0.8c2.6,0.5,5.2,0.6,8.1-0.3c1.9-0.3,3.8-0.9,5.6-1.7c1.4-1.6,3.2-3.2,5.5-4.4
	c1.4-0.6,2.7-1.2,4-1.7c3-1.2,6-2.3,8.7-3c0.5-0.3,1-0.6,1.5-0.9c0.8-0.7,1.7-1.1,2.5-1.5c0.7-0.1,1.4-0.2,2.1-0.2
	c1.7,0.1,3.3,0.2,4.9,0.3c1.7,0.5,3.5,1.2,5.3,1.9c1.8,0.1,3.6,0.1,5.3,0.1c0.7,0.3,1.4,0.5,2.1,0.7c3.3,0.4,6.6-0.3,10-1.5
	c1.3-0.2,2.7-0.4,4-0.7c3.2-1.3,6.4-2.6,9.8-3.4c0.8,0,1.6,0,2.5,0.3c0.9,0.2,1.7,0.6,2.4,1.2c0.1,0.1,0.2,0.3,0.4,0.4
	c0.5,0.2,1,0.3,1.6,0.3c0.4,0,0.8-0.1,1.2-0.2c0.3-0.1,0.6-0.2,0.9-0.4c0.7-0.4,1.2-1,1.6-1.8c0.2-0.6,0.4-1.1,0.6-1.7
	c0.1-0.1,0.4-0.4,0.6-0.6c0.5-0.4,1.1-1,1.6-1.7c0.3-0.5,0.8-0.9,1.4-1.5l0.4-0.3c1-1,2.1-2,3.1-3.4c0.3-0.4,0.6-0.9,0.8-1.3
	c0.8-1.5,1.1-3.2,1.1-5C694.4,810.8,694.2,810.1,693.9,809.6z"/>
<path class="st1" d="M649.4,921.6c-0.1-0.2-0.2-0.4-0.3-0.6c-0.5-0.8-1.2-1.6-2.1-1.9c-0.3-0.1-0.6-0.2-0.9-0.4
	c-1-0.5-1.7-1-2.4-1.6c-0.9-1.5-1.3-3.4-1-5.9c0.3-3.6,0.7-8.3,4.9-12.3c-0.4-0.1-0.9-0.1-1.6-0.1c-0.6,0-1.3,0-2.2,0.1
	c-0.8,0.1-1.6,0.1-2.4,0.1c-0.6-0.5-1.4-0.9-2.3-0.9c-0.9,0-1.7-0.1-2.5-0.3c-2.1-0.5-4.4-0.7-6.9-0.9c-1-0.1-2.1-0.2-3.1-0.3
	c-0.1,0-0.1,0-0.2,0c-0.6-0.1-1.2-0.2-1.7-0.5c-0.5-0.3-0.9-0.6-1.2-1c-0.1-0.2-0.2-0.3-0.2-0.5c-0.9-2.7-1.9-4.8-3.2-6.5
	c-1.5-2.1-3.3-3.6-5.6-4.6c-0.1-0.1-0.1-0.1-0.2-0.1c-0.5-0.2-1-0.5-1.4-0.9c-0.2-0.2-0.3-0.4-0.5-0.6c-0.1-0.2-0.3-0.4-0.5-0.6
	c0-0.1-0.1-0.2-0.1-0.4c-0.1,0-0.3,0-0.4-0.1c-0.3-0.2-0.6-0.4-1-0.5c-0.5-0.2-1-0.5-1.4-0.9c-0.1-0.1-0.1-0.1-0.2-0.2
	c-0.2-0.3-0.4-0.6-0.6-0.9c-0.2-0.3-0.4-0.6-0.6-0.8c-0.1-0.3-0.2-0.5-0.9-0.7c-0.3-0.2-0.6-0.3-0.9-0.4c-0.1,0-0.1,0-0.2-0.1
	c-0.1,0-0.3-0.1-0.4-0.1c0,0-0.1,0-0.1,0c-0.1,0-0.1-0.1-0.2-0.1c-0.5-0.2-1-0.6-1.3-1c-0.2-0.2-0.3-0.4-0.5-0.6
	c-0.5-0.4-1-0.7-1.6-0.8c-0.5-0.3-0.9-0.3-1.1-0.3c-0.1,0-0.3,0-0.4,0c-0.4,0.1-0.8,0.1-1.1,0.1c-3.5-0.1-5.7-2.1-7.3-3.6
	c0,0,0,0,0,0c0,0,0,0,0,0c-0.4-0.4-0.8-0.7-1.1-1c-0.4-0.2-0.8-0.5-1.2-0.6c-0.8-0.3-1.6-0.5-2.4-0.7c-2.1-0.6-4.1-0.9-6-0.9
	c-0.2,0-0.4,0-0.5,0c-0.4,0-0.9,0-1.3,0c-0.1,0-0.3,0-0.4,0c-1.3,0-2.6-0.1-3.8-0.3c-1-0.2-1.9-0.5-2.8-0.8c0,0-0.1,0-0.1,0
	c0,0,0,0,0,0c-1.8-0.7-3.6-1.1-5.3-1.4c-1.9-0.5-3.8-0.7-5.6-0.7c-0.1,0-0.1,0-0.2,0c0,0,0,0,0,0c-2.5,0-4.9,0.3-7.2,1.1
	c0,0,0,0,0,0c-0.8,0.3-1.6,0.4-2.4,0.4c-1.1-0.3-2-0.9-2.8-1.7c0,0,0,0,0,0c-0.1-0.1-0.1-0.2-0.2-0.2c-0.1-0.1-0.2-0.2-0.3-0.3
	c-0.3-0.4-0.5-0.8-0.6-1.2c-0.5-0.8-1.4-1.3-2.3-1.6c-0.2-0.1-0.4-0.1-0.6-0.1c-0.1,0-0.3,0-0.4,0c-0.8,0-1.6,0.2-2.3,0.7
	c-1,0.7-2,1.4-3,2.1c-3.1,2.2-5.7,4.1-9.1,4.5c-2.3,0.3-7.9,1.3-10,5.1c-1.7,3.1-4.7,4.7-8.3,6.5c-1.6,0.8-3.1,1.6-4.6,2.5
	c-0.8,0.5-1.5,1-2.2,1.6c-6.3,4.5-8.3,12.5-13.3,17.5c-14,12-25,24-38.2,37c-1.4,0.9-2.1,2.6-1.7,4.3c0.4,1.7,1.8,2.9,3.5,3.1
	c0.6,0,1.1,0.1,1.6,0.2c1.1,0.2,2.3,0.4,3.5,0.4c2.5,0,4.6-0.8,6.2-2.4c0.7-0.7,2.8-2.7,3.9-2.7c0.4,0,1.2,0.1,2.8,1.3
	c0.8,0.6,1.6,1.2,2.4,1.8c0.8,0.6,1.6,1.3,2.3,1.9c3.7,3.1,8.7,6.1,10.7,10.1c1,3-1,8,4,9c3,0,4-3,6-3c8,5,15,10,23.7,12.4
	c1.4,0.5,2.6,0.8,3.8,1.3c2.1,0.8,2.9,1.7,3.5,2.7c1.1,0.9,2.2,1.7,3.5,2.4c12.5,3.2,26.5,11.2,24.9,27.6c0.1,1.5,0.1,3-0.1,4.7
	c0.3,1,0.6,1.9,0.7,2.9c-9,0-9,11-5,18c1,1,3,2,4.5,1.7c1.4,0.1,2.9-0.2,3.8-1c8.6-3.7,16.6-10.7,19.6-18.7c4-8,6-18,13.2-24
	c1-0.9,2-1.7,3-2.5c2.1-1.6,4.5-3.1,7-4.6c9.2-5.4,16.3-12.6,24.3-21.6c5.9-6.8,9.3-14.7,12.6-22.3c2.4-5.5,4.6-10.7,7.7-15.4
	C649.6,924,649.8,922.8,649.4,921.6z"/>
<path class="st1" d="M520.3,106.2c-0.1,1.6,0.1,3.2,0.8,4.9c0.5,1.5,1.2,2.5,1.8,3.3c1.3,1.5,3.7,3.3,8.2,3.5
	c2.3,0.1,3.9,0.4,5.2,1.6c3.9,3.6,8.5,7,15.2,7.9c0.5,0.1,0.9,0.2,1.3,0.4c0.2,0.1,0.4,0.2,0.6,0.4c1,0.7,1.6,1.8,1.7,3
	c0,0.4,0.1,0.8,0.1,1.2v0.1c0,0.5,0.1,1,0.1,1.5c0.1,1.9,2,6.4,3.5,9.9c0.5,1.1,1,2.4,1.6,3.7l0.1,0.1c3.9,8.9,7.3,16.6,11.2,20.3
	c0.4,0.4,0.8,1,1,1.5c1,2.9,2.6,5.3,4.1,7.5c0.9,1.3,1.7,2.5,2.3,3.7c0,1.5,0.3,3,0.8,4.4c0,0,0,0,0,0c1.6,4.1,5.2,7.5,9.1,9
	c0.3,0.1,0.5,0.1,0.8,0.2c0.8,0.1,1.7,0.2,2.5-0.1c12.7,1.2,14.7-15.7,23.3-21.9c0.1-0.1,0.1-0.1,0.2-0.2c1-0.9,2-1.9,3.1-2.8
	c3.1-2.7,6.3-5.4,9.4-8.2c1-0.8,1.9-1.8,2.8-2.8c0.7-0.7,1.2-1.5,1.7-2.3c0.6-2.6,0.6-5.7,3.2-7.8c0.4-0.4,0.9-0.6,1.4-0.8
	c1.8-1.2,3.9-1.9,6.2-1.9c1.6-0.9,2.8-2.2,3.6-3.7c0.6-1,1-2.1,1.3-3.2c0.3-8.6-1.8-17.5-6.2-25c-0.7-1.2-1.5-2.5-2.4-3.6
	c-8-8.8-15-17.8-18.7-28.6c-0.3-1-0.5-2-0.6-3.1c-0.3-2.1-0.4-4.3-0.5-6.5c-0.3-5.3-0.6-10.8-3.2-16.3c-2.2-4.5-5-7.9-9.1-11.2
	c-0.7-0.6-1.6-0.9-2.5-0.9c-0.4,0-0.8,0.1-1.2,0.2c-1.2,0.4-2.2,1.4-2.6,2.7c-0.4,1.4-0.7,2.7-0.9,3.9c-0.4,2.4-0.7,3.7-1.6,4.7
	c-8.6,9.1-15.4,20.4-21.4,35.8c-1.5,4-3,6.6-5.9,8.3c-1.3,0.8-2.1,1.8-2.7,2.5c-0.1,0.1-0.2,0.2-0.3,0.3c-1.1-0.2-2.1-0.5-3.2-0.8
	c-4.1-1.1-8.4-2.2-13.1-2.2h-0.2c-0.5,0-0.9,0-1.3,0c-0.5,0-0.9,0-1.4,0c-1.5,0-3.5,0.1-5.8,1.1c-2.5,1.1-4.6,1.6-6.4,1.6
	c-1.6,0-3.1-0.4-4.5-1.3c-0.1,0-0.1-0.1-0.2-0.1c-2.2-1.5-3.7-2.4-5.3-2.7c-0.4-0.1-0.8-0.1-1.2-0.1c-1.2,0-2.2,0.3-2.9,0.8
	c-0.3,0.2-0.6,0.5-0.9,0.8c-0.3,0.8-0.7,1.7-1,2.5C521.1,103.2,520.6,104.7,520.3,106.2z"/>
<path class="st1" d="M904.2,640.9c0.1-1,0.1-2,0.1-2.9c0-0.9-0.1-1.8-0.3-2.6c-0.3-1.8-1.1-3.4-2.1-4.8c-0.3-0.2-0.6-0.4-0.8-0.7
	c-1.4-1.6-3.3-2.9-5.8-3.9c-0.1-0.1-0.3-0.1-0.4-0.2c-0.5-0.3-1.2-0.6-1.7-0.9l0.1-0.1c0,0-0.1,0-0.1-0.1l-0.1,0.1
	c-1.5-0.8-3-1.7-4.4-2.5c-0.1-0.1-0.2-0.1-0.3-0.2l-0.1-0.1c-1-0.5-1.9-0.9-3-1.2c-0.3-0.1-0.7-0.2-1-0.4c-0.8-0.2-1.6-0.2-2.4-0.2
	c-0.9,0-1.8,0.1-2.7,0.3c-0.4,0.4-0.9,0.7-1.4,0.8c-0.7,0.2-1.3,0.5-1.9,0.7c-0.8,0.3-1.6,0.6-2.4,0.9c-4.3,3.6-13.3,3.6-11.3,11.6
	c0,0,0,0,0,0c0,4-2,7-2,10c0.4,1.4,1,2.7,1.6,4c0.8,2.1,2.2,4.4,3.2,6.7c1.1,3.1,1.3,6.3-1.2,9.9c-0.8,1-1.4,2-1.9,3
	c-0.5,1-0.8,2.1-1.1,3c-0.5,1.5-0.8,2.3-1.2,3c-0.1,0.2-0.2,0.3-0.4,0.5c-0.1,0.1-0.3,0.3-0.4,0.4c0,0,0,0,0,0
	c-0.1,0.1-0.1,0.1-0.2,0.2c-0.7,0.3-1.3,0.6-1.9,0.9c-0.2,0.2-0.4,0.4-0.6,0.6c-0.1,0.2-0.3,0.3-0.5,0.5c-0.6,0.9-1.4,1.7-2.3,2.3
	c-0.8,0.5-1.7,1-2.5,1.5c-0.7,0.7-1,1.5-0.6,2.6c0,2.7-0.4,6-0.5,9.3c-0.1,0.9-0.3,1.8-0.5,2.7c-0.5,1.3-1.2,2.4-2,3.4
	c0.9-0.6,1.8-1.2,2.7-1.8c0.6,3.6,2.1,6.8,6,8.7c1.1,0.7,2.2,1.3,3.4,1.9c2.3,1.1,4.8,1.8,7.3,2c0.5,0.3,1,0.6,1.5,0.8
	c6.9-7.9,17.2-14,21.1-24.2c0.7-1.3,1.4-2.5,2.1-3.8c2.1-3.9,4.2-7.9,6.3-12.1c1.1-2.1,5.3-4.2,6.4-6.2
	C906.2,656.7,901.9,648.4,904.2,640.9z"/>
<path class="st1" d="M985.9,430.8c-0.3-0.1-0.6-0.3-0.8-0.5c-0.3-0.2-0.6-0.4-0.9-0.5c-0.4-0.2-0.7-0.4-1-0.7
	c-0.2-0.1-0.4-0.1-0.7-0.2c0-0.2-0.1-0.5-0.2-0.8c-0.1-0.1-0.2-0.3-0.3-0.4c-0.1-0.2-0.2-0.4-0.3-0.5c-0.7-1.1-1.9-1.7-3.2-1.8
	c-1.5-0.2-2.8-0.7-4-1.5c-1.2-0.8-2.3-1.8-3.4-2.9c-0.5-0.8-1.1-1.5-1.7-2.2c-1.1-1-2.3-2-3.6-2.8c-4-2.3-8.7-3.2-12.4-5.9
	c-0.9-0.4-1.8-0.8-2.6-1.1c-2.6-1.2-5.1-2.3-7.5-3.5c-0.8-0.4-1.6-0.8-2.4-1.2c-0.2-0.1-0.6-0.2-0.9-0.3c-0.2,0-0.3-0.1-0.6-0.1
	c-0.2,0-0.5-0.1-0.7-0.1c-0.7,0-1.5,0.2-2.1,0.5c-0.1,0-0.2,0.1-0.2,0.1l-0.2,0.2c-0.1,0-0.1,0.1-0.2,0.1c0.3,0.5,0.8,0.9,1.3,1.4
	c0.2,0.2,0.4,0.3,0.6,0.5c1.2,0.8,1.9,2.1,1.9,3.5c-0.1,2.9,0,5.9,1.5,8.2c0.5,0.8,1.2,1.5,2.1,2.1c0.1,0.1,0.2,0.2,0.4,0.3
	c2.4,2.9,2,5.5,1.3,8.1c-1.1,2.2-3.1,4.2-5.3,5.8c-0.4,0.1-0.7,0.1-1,0.2c-0.1,0.7-0.2,1.4-0.2,2.1c-1,0-2.2,0-3.3,0.1
	c-0.1,0.1-0.2,0.3-0.3,0.4c0,0.1,0,0.2-0.1,0.3c-1.7,1.7-0.9,3.8,0.8,6.1c1.7,3.3,4.8,6.2,5.6,10.7c0,0.1,0.1,0.2,0.2,0.4
	c0,0.1,0,0.1,0,0.2c0.5,1,1.1,2,1.8,2.8c0.7,0.7,1.4,1.3,2.2,1.9c1.1,0.7,2.4,1.3,3.8,1.6c1.5,0.3,2.9,0.5,4.2,0.5
	c0.4,0,0.8,0,1.2-0.1c1.1,0.2,2.1,0.8,2.7,1.7c7.8-6.4,10.6-17.7,19.7-23.1c1.1-0.6,2.4-1.3,3.6-1.8c1-0.4,1.9-0.8,2.8-1
	c1.4-0.4,2.4-1.3,2.9-2.5c0.2-0.5,0.3-1,0.3-1.5C986.9,432.6,986.5,431.6,985.9,430.8z"/>
<path class="st1" d="M1018,392c-0.1-0.3-0.1-0.6-0.3-0.9c-0.4-0.8-1-1.5-1.8-2c-0.2-0.1-0.4-0.2-0.5-0.3c-0.3-0.1-0.7-0.2-1-0.4
	c-1.6-0.9-3.3-1.5-4.9-1.8c-0.7-0.1-1.4-0.2-2.1-0.2c-1.6,0-3.2,0.2-4.6,0.8c-1,0.3-2,0.6-3.1,0.6c-1.6,0-3.3-0.3-5-0.8
	c-0.3-0.1-0.8-0.1-1.1-0.1c-0.2,0-0.5,0-0.7,0.1c-0.9,1.2-1.8,2.3-2.8,3.3c-1.4,1.4-3.1,2.7-4.9,3.7c-7,5.3-16.7,5.9-25,3.1
	c-1.9-1-3.6-2.1-5.1-3.6c-1.2-0.7-2.4-1-3.5-1.1c-0.5-0.4-1-0.8-1.4-1.2c-1.4-0.7-2.9-1.1-4.3-1.1c-2.5,0-4.4,1.1-5.6,1.8
	c-0.4,0.2-1,0.6-1.1,0.6c-1.4,0-2.6,0.7-3.3,1.8c-0.4,0.5-0.6,1.1-0.8,1.8c-0.3,0.1-0.6,0.3-0.9,0.5c-0.1,0.1-0.1,0.1-0.2,0.2
	c-0.1,0.1-0.2,0.2-0.4,0.3c-0.1,0.1-0.1,0.1-0.2,0.2c-0.1,0.2-0.3,0.3-0.5,0.5c0,0-0.1,0.1-0.1,0.1c0.1,0.3,0.2,0.5,0.3,0.8
	c0.2,0.7,0.4,1.2,0.7,1.8c0.3,0.6,0.6,1.1,0.8,1.5c0.1,0.1,0.1,0.1,0.2,0.2c0.2,0.3,0.4,0.6,0.5,1c0.2,0.5,0.4,1,0.8,1.5
	c0.1,0,0.1-0.1,0.2-0.1l0.2-0.2c0,0,0.1-0.1,0.2-0.1c0.7-0.3,1.5-0.5,2.1-0.5c0.2,0,0.5,0.1,0.7,0.1c0.2,0,0.3,0.1,0.6,0.1
	c0.3,0.1,0.7,0.2,0.9,0.3c0.8,0.4,1.6,0.8,2.4,1.2c2.4,1.2,4.9,2.4,7.5,3.5c0.9,0.4,1.7,0.8,2.6,1.1c3.6,2.7,8.4,3.5,12.4,5.9
	c1.3,0.8,2.5,1.7,3.6,2.8c0.6,0.6,1.2,1.3,1.7,2.2c1.1,1.2,2.2,2.2,3.4,2.9c1.2,0.8,2.5,1.3,4,1.5c1.2,0.1,2.5,0.8,3.2,1.8
	c0.1,0.1,0.2,0.3,0.3,0.5c0.1,0.1,0.2,0.3,0.3,0.4c0.1,0.3,0.2,0.5,0.2,0.8c0.2,0.1,0.4,0.1,0.7,0.2c0.3,0.3,0.7,0.5,1,0.7
	c0.3,0.1,0.6,0.3,0.9,0.5c0.2,0.2,0.5,0.4,0.8,0.5c0.6,0.8,1,1.7,1,2.7c0,0.5-0.1,1.1-0.3,1.5c0.9-0.2,1.8-0.7,2.7-1.2
	c2.5-3.1,4.8-6.3,7.2-9.4c4.4-5.8,9-11.8,13.7-17.3c1.6-1.9,2.8-3.9,3.8-5.6c0.3-0.6,0.6-1.3,1-1.8c0.4-0.8,1-1.6,1.4-2.4
	c0.3-0.6,0.6-1.1,1.1-1.7C1018,394.5,1018.2,393.2,1018,392z"/>
<path class="st2" d="M800.6,408.8c-0.1,0.3,0.2,1.2,1.1,2.4c0,0,0.1,0,0.1,0.1c0.8,0.7,2.3,2.1,2.4,5.2c0,0,0-0.1,0-0.1
	c0-1.7-0.5-3.1-1.5-4.3c-0.7-0.9-1-2-0.9-3.1c0.2-1.1,0.8-2.1,1.7-2.7c0.1-0.1,0.2-0.1,0.3-0.2c-0.4,0.3-0.8,0.5-1.2,0.8
	C801.2,407.7,800.7,408.4,800.6,408.8z"/>
<path class="st2" d="M805.1,405.1c-0.2,0.2-0.5,0.4-0.7,0.6c0.6-0.3,1.3-0.6,2-0.6c0.3,0,0.6,0,0.9,0.1c-0.4-0.2-0.8-0.5-1.2-0.8
	C805.8,404.6,805.5,404.9,805.1,405.1z"/>
<path class="st2" d="M793.4,436c-1.2,2.2-3.6,2.5-4.9,2.5c-1,0-1.8-0.1-2.6-0.5c-0.4-0.2-0.9-0.4-1.3-0.5c-0.3-0.1-0.6-0.1-0.9-0.1
	c-0.5,0-1,0-1.4,0.2c-1.1,0.4-2.3,1.3-3.9,2.9c-2.5,2.5-6.2,4-10.2,4c0,0,0,0,0,0c4.1,0,7.9-1.5,10.1-3.8c2.2-2.2,3.8-3.2,5.3-3.2
	c0.7,0,1.5,0.2,2.3,0.6c0.7,0.3,1.6,0.5,2.6,0.5C790.8,438.6,792.5,437.7,793.4,436c0.9-1.6,2.3-3.1,3.8-4.8c3.2-3.5,7.1-7.8,7-14.7
	c0,0,0,0,0,0c0.1,6.9-3.7,10.9-7,14.6C795.7,432.8,794.3,434.3,793.4,436z"/>
<path class="st2" d="M768.1,444.5C768.1,444.5,768.2,444.5,768.1,444.5c-4.1,0-7.9-1.5-10.4-4.2
	C760.1,442.9,763.9,444.5,768.1,444.5z"/>
<path class="st2" d="M803.8,406.1c0.2-0.1,0.4-0.3,0.6-0.4c-0.1,0.1-0.3,0.2-0.4,0.2C803.9,406,803.9,406,803.8,406.1z"/>
<polygon class="st2" points="757.7,440.3 757.7,440.3 757.7,440.3 "/>
<path class="st2" d="M857.5,392.6c-0.9,1-1.8,1.9-2.7,2.9s-1.9,1.9-2.9,2.8c-0.2,0.3-0.6,0.6-0.9,1c-1.3,1.5-3.6,4-7.9,4h-0.7
	c-3,0-5.5,1.1-7.8,3.4c-2.2,2.2-6.5,4.6-10.2,4.6c-2.4,0-4.4-1-5.6-2.8c-0.7-0.9-1.6-1.5-2.7-1.7c-0.6-0.1-1.4-0.1-2.2-0.2
	c-1.6-0.1-3.8-0.3-5.9-1.2c-0.2-0.1-0.4-0.1-0.7-0.2c2.2,1.2,4.7,1.4,6.6,1.6c3,0.2,3.9,0.4,4.7,1.7c1.2,1.9,3.2,3,5.7,3
	c1.6,0,3.4-0.5,5-1.2c2.1-0.9,4-2.2,5.2-3.4c2.2-2.3,4.8-3.4,7.8-3.4c0.2,0,0.7,0,0.7,0c4.3,0,6.5-2.4,7.9-4c0.3-0.4,0.6-0.7,0.9-1
	c1-1,1.9-1.9,2.8-2.8s1.9-1.9,2.8-2.9c1.2-0.6,1.8-1.3,2.1-2.1c0.1-0.4,0.2-0.8,0.4-1.2c-0.1,0-0.1,0.1-0.2,0.1
	C859,390.4,858.3,391.4,857.5,392.6z"/>
<path class="st1" d="M1032.6,359.3c-0.6-0.7-1.5-1-2.3-1.1c-0.5,0.2-3.2-7.8-3.1-7.5c0.2,1.2,0.4,3-0.5,4.7
	c-0.5,1.1-1.4,2.1-2.5,2.7c-0.4,0.2-0.8,0.4-1.2,0.5c-0.1,0-0.2,0-0.4,0c-0.2,0-0.4,0-0.6,0c-0.3,0.1-0.6,0.1-0.8,0.1
	c-1.4,0-2.5-0.5-3.6-1.4c-0.2-0.2-0.4-0.5-0.6-0.7c-0.1,0-0.3-0.1-0.4-0.1c-0.1-0.1-0.3-0.2-0.4-0.3c-0.2-0.1-0.3-0.2-0.5-0.3
	c0,0,0,0-0.1,0c0,0,0,0,0-0.1c-0.2-0.2-0.5-0.3-0.9-0.4c-0.4-0.1-0.9-0.2-1.3-0.2c-0.4,0-1,0.1-1.6,0.1c-0.4,0-0.7,0.1-1.1,0.2
	c-0.2,0.1-0.5,0.1-0.7,0.3c-0.5,0.3-1,0.8-1.4,1.3c-0.1,0.3-0.3,0.6-0.5,0.9c-0.6,1.1-1.3,2.3-2.4,3.4c-0.5,0.5-1.1,0.9-1.8,1.1
	l-0.8,0.2c-4.6,1.3-9,2.6-14.3,2.6c-0.3,0-0.5,0-0.8,0h-0.3c0,0,0,0,0,0h-0.1c0,0-0.1,0-0.1,0c-0.3,0-0.6,0-0.9,0.1
	c-0.2,0-0.5,0.1-0.7,0.1c-1.1,0.2-2.1,0.5-3,1.1c-0.1,0-0.1,0.1-0.1,0.1c0,0.1,0,0.1-0.1,0.2c-0.3,0.3-0.6,0.6-0.9,0.8
	c-0.6,0.7-1,1.5-1.3,2.5c-0.4,1.3-1,2.3-1.8,3.2c-0.1,0.1-0.2,0.2-0.3,0.3c-0.3,0.2-0.6,0.5-0.9,0.7c-0.6,0.5-1.2,0.9-1.8,1.5
	c-1.7,0.7-3.3,2.3-4.3,4c-0.1,0-0.2,0-0.3,0c-0.2-0.1-0.4-0.1-0.7-0.2c-1.1-1-2.6-2.4-3.7-2.9c-0.1-0.1-0.3-0.3-0.4-0.5
	c0,0,0-0.1-0.1-0.1c-0.7-0.8-1.4-1.7-2.1-2.6c-0.7-0.8-1.4-1.7-2.1-2.5c-0.4-0.7-0.8-1.4-1.2-2.1c-0.1-0.2-0.2-0.5-0.3-0.7
	c-0.3-0.7-0.5-1.3-0.6-1.9c-0.6-2.8,0.7-4.5,1.4-5.1c0.1-0.3,0.2-1.2,0.2-1.8c0-0.8,0.1-1.8,0.4-3s0.8-2.4,1.8-3.5
	c-0.6,0.4-0.6-0.6-1.9-0.2c-1.2,0.8-2.4,1.6-3.6,2.5c-1,0.7-2,1.4-3,2.1c-0.4,0.1-0.8,0.3-1.2,0.6c-2.1,1.5-4.1,2.9-6.2,4.3
	l-0.3,0.2c-1.8,1.2-4.4,2.9-7.4,2.9c-1.6,0-3-0.4-4.3-1.2c-0.1-0.1-0.2-0.1-0.3-0.2c-0.4-0.2-0.7-0.5-1.1-0.8
	c-0.2,0.1-0.5,0.3-0.7,0.4c-0.4,0-0.9,0.1-1.3,0.2c-0.7,0.2-1.3,0.3-2,0.3c-0.7,0-1.9-0.1-3.1-0.9c-0.7-0.5-1.4-1.1-2-1.9l-0.1-0.1
	c0,0,0-0.1,0-0.1c-0.1-0.2-0.2-0.4-0.3-0.6c-0.2,0.3-0.4,0.4-0.4,0.3c-0.6-1.3-1.8-2.1-3.1-2.3c-0.2,0-0.3,0-0.5,0
	c-1.1,0-2.2,0.5-3,1.5c-0.1,0.1-0.2,0.3-0.3,0.4c-1-0.8-1.9-1.8-2.8-2.9c0,0,0,0,0-0.1c-0.2-0.2-0.3-0.4-0.4-0.6
	c-0.2-0.3-0.4-0.5-0.6-0.8c-0.9-1.3-1.9-2.6-3.1-3.8c-1.1-1.2-2.5-2.4-4-3.3c-1.6-1-4.1-2.1-6.9-2.1c-1.4,0-2.7,0.3-4,0.9
	c-2.7,1.2-4.8,1.8-6.6,1.8c-0.2,0-0.3,0-0.4,0c-1.1,0-2.1-0.2-3.1-0.5c-0.3-0.1-0.6-0.1-1.1-0.2c0,0-0.4,0-0.5,0c-0.2,0-0.4,0-0.6,0
	c-0.1,0-0.3,0-0.4,0h-0.4c-0.3,0-0.6,0-0.8-0.1c-1.7,0-3,0.2-4.1,0.5c-0.3,0.1-0.6,0.2-0.9,0.4c-0.3,0.3-0.5,0.6-0.9,0.9
	c-0.5,0.7-1.3,1.3-1.9,2.1c-0.3,1.6-0.5,3.2-0.7,4.8c0,0,0,0-0.1,0c-0.2,2.1-0.2,4.2-0.2,6.1c-1.1,5.4-4.1,9.9-7.1,14.4
	c-1.1,1.5-2.1,2.9-2.7,4.3c-1.4,2.3-2.6,4.7-3.4,7.4c1.4-1,2.7-1.2,3.9-1c0.8,1.3,2.1,2.6,4,4c0.6,0.8,1.2,1.7,1.7,2.6
	c0.2,0.4,0.4,0.9,0.6,1.3c1,2,0,5,1,7c0.5,0.6,1.1,1.2,1.6,1.6c0.8,1.7,2.2,3.1,4.6,3.6c1.3-0.1,2.4-0.7,3-2
	c0.1-0.1,0.3-0.2,0.4-0.3c3.6-1.3,7.3-4.4,11.1-7.8c3.4-1.4,6.3-4.8,9.3-7.8c3-2.1,6-3.8,9-4.2c0.2,0.2,0.4,0.4,0.6,0.5
	c0.7,0.6,1.5,1.1,2.3,1.6c2.4,1.4,5.2,2.3,8,2.6c1.1,0.1,1.6,0.4,2.2,0.8l0.1,0.1c0.2,0.2,0.5,0.5,0.9,0.8c0.9,0.7,2,1,3.1,1
	c0.1,0,0.2,0,0.4,0c0.7,0.2,1.3,0.6,1.8,1.1c0.7,1.2,1.7,1.8,2.6,2c0.3,0.3,0.6,0.7,0.8,1.1c0,0,0.1-0.1,0.1-0.1
	c0.2-0.1,0.4-0.2,0.5-0.5c0.1-0.1,0.1-0.1,0.2-0.2c0.1-0.1,0.3-0.2,0.4-0.3c0.1,0,0.1-0.1,0.2-0.2c0.3-0.2,0.6-0.4,0.9-0.5
	c0.1-0.7,0.3-1.4,0.8-1.8c0.8-1.1,1.9-1.8,3.3-1.8c0.1,0,0.6-0.3,1.1-0.6c1.2-0.7,3.1-1.8,5.6-1.8c1.4,0,2.9,0.3,4.3,1.1
	c0.4,0.4,0.9,0.8,1.4,1.2c1.1,0.1,2.3,0.4,3.5,1.1c1.5,1.4,3.3,2.6,5.1,3.6c8.3,2.8,18,2.2,25-3.1c1.8-1.1,3.5-2.3,4.9-3.7
	c1-1,1.9-2.1,2.8-3.3c0.2,0,0.4-0.1,0.7-0.1c0.3,0,0.8,0,1.1,0.1c1.6,0.5,3.3,0.8,5,0.8c1.1,0,2.2-0.2,3.1-0.6
	c1.4-0.6,3-0.8,4.6-0.8c0.7,0,1.4,0.1,2.1,0.2c1.7,0.3,3.3,0.9,4.9,1.8c0.3,0.2,0.6,0.3,1,0.4c0.2,0.1,0.4,0.2,0.5,0.3
	c0.8,0.5,1.4,1.2,1.8,2c0.1,0,0.2,0,0.3-0.1c1.1-0.4,1.9-1.4,2.3-2.6c1.7-5.2,10.6-12,12-17.8c0.1-0.5,0.3-1.1,0.4-1.6
	c0.5-1.9,1.1-4.1,1.2-6.3C1034,361.5,1033.5,360.2,1032.6,359.3z"/>
<path class="st1" d="M1027.2,350.7c-0.1-0.3-0.1-0.7-0.1-0.8c0.1-1.4-2.6-21.3-2.8-22.8c-0.1-0.5-0.2-1-0.3-1.5
	c-0.4-1.8-0.9-3.5-1.5-5.3c-0.5-1.4-0.9-2.7-1.2-4c-0.2-1.1-0.9-2.1-1.9-2.6c-0.4-0.2-0.9-0.4-1.4-0.4c0.6,2.5,1.3,5,2.2,7.5
	c0.5,1.4,0.9,2.6,1.4,3.7c0,0.1,0.1,0.2,0.1,0.3c0.3,0.7,1,2.6,0.1,4.5c-0.9,1.9-2.6,2.4-3.8,2.8l-0.3,0.1c-0.5,0.2-1,0.3-1.5,0.3
	c-0.2,0-0.5,0-0.7,0.1c0,0-0.1,0-0.1,0c-0.2,0-0.4,0-0.6,0c-0.1,0-0.3,0-0.4,0h-0.2h-0.8c-2.6-0.1-5.1-0.1-7.6-0.1
	c-2.9-0.4-5.9-1-8.8-1.3c-1.3-0.1-2.6-0.2-3.8-0.1c-0.6,0.4-1.3,0.6-2,0.8c-6.3-1.5-6.5,2.5-8.7,7c-2.1,1.7-4.4,2.6-6.8,3.1
	c-4.4-2.1-11.6-1.9-16.8-3.2c-1.7-0.8-3.3-1.6-4.8-2.5c-1.3-1.5-1.8-3.7-0.9-7c-2,1-4,1-6.3,2.2c-1.1,0.2-2.2,0.4-3.3,0.4
	c-3.3,0.2-6.8-0.4-10.2-2.2c-0.1-0.1-0.3-0.2-0.4-0.3c0,0-0.1,0-0.1,0c-0.1-0.1-0.1-0.1-0.2-0.2c-0.6-0.4-1.1-0.9-1.6-1.4
	c-0.7-0.5-1.5-0.8-2.4-0.8c-0.3,0-0.5,0-0.8,0.1c-1.3,0.3-2.4,1.2-2.9,2.5c-0.6,1.6-0.8,3.4-0.7,5.2c0.1,0.3,0.1,0.6,0.2,0.9
	c-1.5,1.6-2,3.4-2.1,4.7c-0.3,3.8,2.3,6.8,3.9,8.3c0.5,0.4,0.6,0.7,0.6,0.7c0,0.2-0.3,1.1-0.5,1.7c-0.1,0.4-0.3,0.8-0.4,1.2
	c0,0.1-0.2,0.3-0.3,0.5c-0.3,0.5-0.7,1.1-1,1.8c-0.8,1.9-0.7,3.9,0.3,5.7c0.1,0.2,0.2,0.4,0.3,0.6c0,0.1,0,0.1,0,0.1l0.1,0.1
	c0.6,0.8,1.3,1.4,2,1.9c1.2,0.8,2.4,0.9,3.1,0.9c0.7,0,1.3-0.1,2-0.3c0.4-0.1,0.9-0.2,1.3-0.2c0.3-0.1,0.5-0.3,0.7-0.4
	c0.4,0.3,0.7,0.6,1.1,0.8c0.1,0.1,0.2,0.1,0.3,0.2c1.3,0.8,2.7,1.2,4.3,1.2c3,0,5.6-1.7,7.4-2.9l0.3-0.2c2.1-1.4,4.1-2.8,6.2-4.3
	c0.4-0.3,0.8-0.5,1.2-0.6c1-0.7,2-1.4,3-2.1c1.2-0.8,2.4-1.7,3.6-2.5c1.3-0.4,1.3,0.6,1.9,0.2c-1,1.1-1.5,2.3-1.8,3.5
	s-0.4,2.3-0.4,3c0,0.6-0.1,1.5-0.2,1.8c-0.7,0.6-2,2.3-1.4,5.1c0.1,0.5,0.3,1.2,0.6,1.9c0.1,0.2,0.2,0.5,0.3,0.7
	c0.3,0.7,0.7,1.4,1.2,2.1c0.8,0.8,1.4,1.7,2.1,2.5c0.7,0.9,1.4,1.8,2.1,2.6c0,0,0,0.1,0.1,0.1c0.1,0.2,0.3,0.3,0.4,0.5
	c1.1,0.5,2.6,1.9,3.7,2.9c0.2,0.1,0.4,0.1,0.7,0.2c0.1,0,0.2,0,0.3,0c1-1.7,2.7-3.3,4.3-4c0.6-0.5,1.2-1,1.8-1.5
	c0.3-0.2,0.6-0.5,0.9-0.7c0.1-0.1,0.2-0.2,0.3-0.3c0.8-0.9,1.5-1.9,1.8-3.2c0.3-1,0.7-1.8,1.3-2.5c0.3-0.2,0.7-0.4,0.9-0.8
	c0-0.1,0-0.1,0.1-0.2c0,0,0.1-0.1,0.1-0.1c0.8-0.5,1.8-0.9,3-1.1c0.2,0,0.5-0.1,0.7-0.1c0.3,0,0.6-0.1,0.9-0.1c0,0,0.1,0,0.1,0h0.1
	c0,0,0,0,0,0h0.3c0.3,0,0.5,0,0.8,0c5.3,0,9.7-1.3,14.3-2.6l0.8-0.2c0.7-0.2,1.3-0.6,1.8-1.1c1.1-1.1,1.8-2.3,2.4-3.4
	c0.2-0.3,0.4-0.6,0.5-0.9c0.4-0.6,0.8-1,1.4-1.3c0.2-0.1,0.4-0.2,0.7-0.3c0.3-0.1,0.7-0.2,1.1-0.2c0.6,0,1.2-0.1,1.6-0.1
	c0.4,0,0.9,0.1,1.3,0.2c0.4,0.1,0.7,0.2,0.9,0.4c0,0,0,0,0,0.1c0,0,0,0,0.1,0c0.2,0.1,0.3,0.2,0.5,0.3c0.1,0.1,0.3,0.2,0.4,0.3
	c0.1,0.1,0.3,0.1,0.4,0.1c0.2,0.2,0.4,0.4,0.6,0.7c1.1,0.9,2.2,1.4,3.6,1.4c0.2,0,0.5,0,0.8-0.1c0.2,0,0.4,0,0.6,0
	c0.1,0,0.3,0,0.4,0c0.4-0.1,0.8-0.3,1.2-0.5c1.1-0.6,2-1.6,2.5-2.7C1027.6,353.7,1027.4,351.9,1027.2,350.7z"/>
<path class="st1" d="M1021.7,324.8c0-0.1-0.1-0.2-0.1-0.3c-0.5-1.1-0.9-2.3-1.4-3.7c-0.8-2.5-1.6-5.1-2.2-7.5
	c-0.6-2.5-1.2-4.9-1.6-7.1c-2.2-10.4-10.8-18.2-20.1-18.2c-1.5,0-3,0.2-4.4,0.6c-2,0.5-4,0.8-6.2,0.8c-5.2,0-10.3-1.6-15.7-3.3
	l-1.5-0.5c-1.2-0.3-2.6-0.8-4.1-1.2l-0.3-0.1c-1.9-0.5-3.5-0.7-5-0.7c-3.7,0-6.8,1.4-9.5,4.2c-0.3,0.3-0.5,0.6-0.7,1
	c-1,1.9-1.9,3.9-2.9,5.8c-0.4,0.8-0.8,1.5-1.1,2.3c-0.4,0.8-0.8,1.5-1.1,2.3c0,0,0,0,0,0c-2.2,2.1-3.1,5.2-4.3,8.2
	c-0.9,3.2-2,6.2-5.9,7.5c-1.6,0.2-3.1,0.9-4.2,2.2c-0.5,0.5-0.8,1.1-1.1,1.7c0,0.1-0.1,0.1-0.1,0.2c-0.3,0.5-0.4,1.1-0.6,1.6
	c-0.1,0.2-0.1,0.4-0.2,0.6c-0.2,0.4-0.3,0.8-0.3,1.2c0,0.4,0,0.8,0,1.2c0,0.1,0,0.2,0,0.3c0.1,0.7,0.4,1.3,0.7,1.6
	c0.8,1.2,1.9,1.7,2.8,1.9c0.2,0.2,0.4,0.4,0.5,0.6c0.5,0.5,1,1,1.6,1.4c0.1,0.1,0.1,0.1,0.2,0.2c0,0,0.1,0,0.1,0
	c0.1,0.1,0.3,0.2,0.4,0.3c3.4,1.7,6.8,2.4,10.2,2.2c1.1-0.1,2.2-0.2,3.3-0.4c2.3-1.2,4.3-1.2,6.3-2.2c-0.9,3.3-0.5,5.5,0.9,7
	c1.5,0.9,3.1,1.7,4.8,2.5c5.2,1.3,12.4,1.1,16.8,3.2c2.4-0.4,4.8-1.4,6.8-3.1c2.2-4.5,2.4-8.5,8.7-7c0.7-0.2,1.4-0.5,2-0.8
	c1.2-0.1,2.5,0,3.8,0.1c2.9,0.3,5.9,0.9,8.8,1.3c2.5,0,5.1,0,7.6,0.1h0.8h0.2c0.1,0,0.3,0,0.4,0c0.2,0,0.4,0,0.6,0c0,0,0.1,0,0.1,0
	c0.2,0,0.5,0,0.7-0.1c0.5-0.1,1-0.1,1.5-0.3l0.3-0.1c1.2-0.4,2.9-0.9,3.8-2.8C1022.7,327.4,1022,325.5,1021.7,324.8z"/>
<path class="st2" d="M828,251.4C828.1,251.3,828.1,251.3,828,251.4c3.6-3.6,11-5.6,15-11.1c-0.7,0.7-1.5,1.1-1.9,1.1
	C835.9,243.9,831.5,247.4,828,251.4z"/>
<path class="st2" d="M814.9,332.6c-1.8,0-3.2,0.3-4.5,0.9c-0.5,0.2-1.1,0.3-1.6,0.3c-0.8,0-1.6-0.2-2.2-0.7
	c-1.8-1.2-4.1-1.9-6.6-1.9c-3.9,0-7.8,1.6-10.8,4.2c2.9-2.4,6.7-3.9,10.5-3.9c2.8,0,5.3,0.8,7.3,2.4c0.7,0.6,1.1,0.7,1.2,0.7
	c0.1,0,0.4-0.1,0.9-0.4c2.1-1.3,4.3-1.4,6-1.4c0.3,0,0.6,0,0.9,0h0.1c1,0,1.6-0.3,1.9-1.7c0,0,0,0,0-0.1
	C817.3,332,816.2,332.6,814.9,332.6z"/>
<path class="st2" d="M817.1,288.4c-1-13.7,2.3-27.1,10.9-37C817.2,260.7,814.8,274.3,817.1,288.4z"/>
<path class="st2" d="M819.1,300.3c0.3,0.6-0.4,1.7-1.4,3c1.6-1.1,2.8-2.1,2.4-3c-1-3-1.8-6-2.5-9c-0.2-1-0.4-1.9-0.5-2.9
	c0.1,1.1,0.2,2.2,0.3,3.3C817.8,294.5,818.4,297.4,819.1,300.3z"/>
<path class="st2" d="M813.1,308.3c0,2,0,4,0.4,6.4c0.2,1.1,0.6,2.1,1.1,3.2c1.6,4.4,5.6,5.4,4.3,10.3c-0.3,0.9-0.6,1.9-0.8,2.8
	c0.3-0.4,0.5-0.8,0.7-1.3c0.1-0.6,0.3-1.2,0.5-1.7c0.1-0.4,0.3-0.9,0.4-1.3c2.5-5.4-5.5-5.4-4.7-9.5c-0.4-1-0.8-2-1-3
	c-0.9-2-0.5-4,0.3-5.8s2.3-3.5,3.4-4.9c0.1-0.1,0.1-0.1,0.2-0.2c-0.1,0.1-0.3,0.2-0.4,0.3C815.6,304.8,813.6,306.3,813.1,308.3z"/>
<path class="st2" d="M844.8,233.8c0-0.2,0.1-0.4,0.1-0.6c-0.1,0.4-0.2,0.8-0.3,1.3C844.7,234.2,844.8,234,844.8,233.8z"/>
<path class="st2" d="M844.5,237.8c-0.1-0.2-0.1-0.4-0.1-0.5c0,0.3,0,0.6-0.1,0.9C844.3,238.1,844.4,237.9,844.5,237.8z"/>
<path class="st2" d="M756.3,357.9c2.5-2.9,5.9-4.9,10.5-6.2c6.4-1.8,11.8-5,16.1-9.3c-4.3,4.1-9.6,7.1-15.8,9
	C762.3,352.8,758.8,354.8,756.3,357.9z"/>
<path class="st2" d="M755,359.6c0.4-0.6,0.8-1.2,1.3-1.7C755.8,358.4,755.4,359,755,359.6C755,359.6,755,359.6,755,359.6z"/>
<path class="st2" d="M844.3,238.2c-0.4,0.7-0.8,1.4-1.2,2C843.6,239.7,844.1,239,844.3,238.2z"/>
<path class="st2" d="M786.6,338.2c-1.1,1.5-2.4,2.9-3.7,4.2c1.4-1.4,2.8-2.9,4-4.5c0.6-0.8,1.2-1.5,1.9-2.1
	C788,336.5,787.3,337.3,786.6,338.2z"/>
<path class="st2" d="M742.9,398.4c0.5,1.3,1,2.5,1,3.4c0,0.6,0.1,1.2,0.3,1.6c-0.1,0.8,0.1,1.7,0.6,2.4c0.1,0.2,0.2,0.3,0.4,0.5
	c-0.1-0.2-0.2-0.4-0.3-0.6c-0.4-0.7-0.6-1.5-0.6-2.3c0-0.4,0-0.7-0.1-1s-0.1-0.5-0.1-0.8c0-0.2,0-0.3,0-0.5
	c-0.1-0.7-0.3-1.4-0.9-2.9c-1.5-3.8-2.7-8.1,0.7-12.3c2.2-2.8,3.8-5.8,5-9.1c-0.1,0-0.1,0-0.2,0c-1.3,3.3-2.9,6.5-5.2,9.3
	C739.9,390.6,741.7,395.3,742.9,398.4z"/>
<path class="st2" d="M745,413.9c0.1-1.7,0.2-3.6,0.5-5.4c0-0.4,0-0.8,0-1.1c-0.5,2.3-0.6,4.5-0.8,6.7c0,0.5-0.1,0.9-0.1,1.4
	c-0.1,1-0.2,1.9-0.3,2.6c0,0.3,0,0.6,0,0.9c0.1-0.3,0.2-0.7,0.3-1C744.8,416.7,744.9,415.3,745,413.9z"/>
<path class="st2" d="M844.2,236.2c0.1,0.2,0.1,0.4,0.1,0.6c0-0.6,0.1-1.2,0.3-1.8v-0.1c0-0.2,0-0.3,0-0.4c0,0.1-0.1,0.2-0.1,0.3
	C844.3,235.2,844.2,235.7,844.2,236.2z"/>
<path class="st2" d="M745.6,406.7c-0.1-0.1-0.3-0.3-0.4-0.4c0.1,0.3,0.2,0.7,0.3,1.1C745.5,407.1,745.6,406.9,745.6,406.7z"/>
<path class="st1" d="M879.4,339.6c-0.3-1.1-1.1-1.9-2.1-2.3c-1.8-0.8-4-2.3-5.3-5.1c-0.7-1.3-1.1-2.8-1.4-4.7c-0.1-0.8,0-1.5,0.1-2
	c0-0.5-0.1-0.9-0.3-1.4c-0.1-0.2-0.2-0.4-0.2-0.6c0-0.1-0.1-0.3-0.1-0.4c-0.1-0.2-0.1-0.4-0.2-0.6c-2.4-7-2.3-14.2-2.3-21.1v-1.9
	c0-1.5-0.2-2.6-0.7-3.4c-0.3-0.4-0.6-0.9-1.2-1.3c-0.2-0.1-0.5-0.3-0.7-0.5l-0.1-0.1c-0.3-0.2-0.6-0.5-0.9-0.7
	c-0.3-0.2-0.5-0.4-0.8-0.6c-1.9-1.6-4.1-4.2-3.2-8.3c0.2-1.2,0.3-2.5,0.4-3.9c0.1-2.6,0.3-5.5,1.6-8.5c0.1-0.3,0.2-0.6,0.3-1
	c0.1-0.6,0.4-1.5,0.5-2.1c-0.1-0.6-0.3-1.2-0.6-1.7c-0.1-0.2-0.2-0.4-0.4-0.6c0,0,0,0,0,0c-0.3-0.5-0.6-1-0.8-1.5
	c0,0-0.1-0.1-0.1-0.1c0-0.1-0.1-0.1-0.1-0.2c-0.1-0.2-0.2-0.3-0.2-0.5c-0.1-0.1-0.1-0.3-0.2-0.4c-0.3-0.8-0.7-1.5-0.9-2.3
	c0-0.1,0-0.2-0.1-0.3c0,0,0,0,0,0c0,0,0,0,0,0c-1.4-5.9-6.5-12.3-3-18.1c0,0,0,0,0,0c0,0,0.1-0.1,0.1-0.1c0.1-0.2,0.3-0.5,0.5-0.7
	c0.1-0.1,0.1-0.2,0.2-0.3c-0.1-1,0.1-1.9,0.7-2.8c0.3-0.4,0.6-0.7,0.9-0.9c-0.1-0.8-0.1-1.6,0.2-2.6c-0.4-1.6-1.6-2.8-3.3-3.1
	c-0.9-0.2-1.7-0.3-2.4-0.5c-0.8-0.2-1.3-0.4-1.8-0.8c-0.9-0.8-1.9-0.9-2.5-0.9c-0.2,0-2.9,0-3.9,2.8c-0.1,0.2-0.1,0.4-0.1,0.6
	c-0.1,0.2-0.1,0.4-0.2,0.7c0,0.1,0,0.3,0,0.4v0.1c-0.2,0.6-0.3,1.2-0.3,1.8c0,0.2,0,0.3,0,0.5c0,0.2,0.1,0.4,0.1,0.5
	c-0.1,0.1-0.1,0.3-0.2,0.4c-0.2,0.8-0.7,1.5-1.2,2c-4,5.5-11.4,7.5-14.9,11.1c0,0-0.1,0-0.1,0.1c-8.6,9.9-12,23.3-10.9,37
	c0.2,1,0.3,1.9,0.5,2.9c0.6,3,1.5,6,2.5,9c0.5,0.9-0.8,1.9-2.4,3c-0.1,0.1-0.1,0.1-0.2,0.2c-1.1,1.4-2.5,3.1-3.4,4.9
	s-1.3,3.8-0.3,5.8c0.2,1,0.6,2,1,3c-0.8,4.1,7.2,4.1,4.7,9.5c-0.1,0.4-0.3,0.9-0.4,1.3c-0.2,0.5-0.4,1.1-0.5,1.7
	c-0.1,0.5-0.4,0.9-0.7,1.3c0,0,0,0,0,0.1c-0.3,1.4-0.9,1.7-1.9,1.7H816c-0.3,0-0.6,0-0.9,0c-1.7,0-3.9,0.1-6,1.4
	c-0.5,0.3-0.8,0.4-0.9,0.4c-0.1,0-0.5-0.1-1.2-0.7c-2-1.6-4.5-2.4-7.3-2.4c-3.7,0-7.5,1.5-10.5,3.9c-0.1,0.1-0.3,0.2-0.4,0.3
	c0,0,0,0,0,0c-0.7,0.7-1.3,1.4-1.9,2.1c-1.2,1.6-2.5,3.1-4,4.5c-4.4,4.3-9.7,7.4-16.1,9.3c-4.6,1.3-8,3.3-10.5,6.2
	c-0.4,0.5-0.9,1.1-1.3,1.7c0,0,0,0-0.1,0c-1.4,2.1-2.5,4.5-3.3,7.5c-0.9,3.3-1.8,6.6-2.9,9.7c0.1,0,0.1,0,0.2,0
	c-1.2,3.3-2.8,6.3-5,9.1c-3.4,4.2-2.2,8.5-0.7,12.3c0.6,1.5,0.8,2.2,0.9,2.9c0,0.2,0,0.3,0,0.5c0,0.3,0,0.5,0.1,0.8s0.1,0.6,0.1,1
	c0,0.8,0.2,1.6,0.6,2.3c0.1,0.2,0.2,0.4,0.3,0.6c0.1,0.1,0.3,0.3,0.4,0.4c-0.1,0.2-0.1,0.4-0.1,0.7c0,0.4,0.1,0.7,0,1.1
	c-0.3,1.8-0.4,3.7-0.5,5.4c-0.1,1.4-0.2,2.8-0.4,4.1c-0.1,0.4-0.2,0.7-0.3,1c0.1,0.8,0.3,1.5,0.8,2.1c0.4,0.5,0.9,0.8,1.4,1.1
	c0,0,0.1,0,0.1,0c0.2,0,0.4-0.1,0.7-0.1c0.8,0,1.7,0.3,2.3,0.8c0.6,0.4,1,0.9,1.3,1.6c0.2,0.2,0.5,0.4,0.8,0.6
	c0.1,0.2,0.2,0.5,0.4,1c0.5,1.2,1.2,2.3,1.8,3.2c1.2,1.8,1.2,2,0.9,2.7c-1,2.3,0,5,2.9,8.3c0,0,0,0,0,0c2.5,2.7,6.3,4.2,10.4,4.2
	c4.1,0,7.8-1.5,10.2-4c1.6-1.6,2.8-2.5,3.9-2.9c0.4-0.2,0.9-0.2,1.4-0.2c0.3,0,0.6,0,0.9,0.1c0.4,0.1,0.9,0.3,1.3,0.5
	c0.8,0.4,1.6,0.5,2.6,0.5c1.3,0,3.7-0.3,4.9-2.5c0.9-1.7,2.3-3.2,3.8-4.9c3.3-3.7,7.1-7.8,7-14.6c-0.1-3.1-1.6-4.5-2.4-5.2
	c0-0.1-0.1-0.1-0.1-0.1c-0.9-1.2-1.2-2.1-1.1-2.4c0.1-0.4,0.6-1.1,2-1.9c0.4-0.3,0.8-0.5,1.2-0.8c0.1-0.1,0.1-0.1,0.2-0.2
	c0.1-0.1,0.3-0.2,0.4-0.2c0.2-0.2,0.5-0.4,0.7-0.6c0.4-0.2,0.7-0.5,1-0.7c0.4,0.3,0.8,0.6,1.2,0.8c0.2,0,0.5,0.1,0.7,0.2
	c2.1,0.9,4.3,1.1,5.9,1.2c0.8,0.1,1.6,0.1,2.2,0.2c1.1,0.2,2,0.8,2.7,1.7c1.2,1.8,3.2,2.8,5.6,2.8c1.6,0,3.2-0.4,4.8-1.1
	c0,0,0.1,0.1,0.1,0.1c2.1-0.9,4-2.2,5.2-3.4c2.2-2.3,4.8-3.4,7.8-3.4c0.2,0,0.7,0,0.7,0c4.3,0,6.5-2.4,7.9-4c0.3-0.4,0.6-0.7,0.9-1
	c1-1,1.9-1.9,2.8-2.8s1.9-1.9,2.8-2.9c1.2-0.6,1.8-1.3,2.1-2.1c0.1-0.4,0.2-0.8,0.4-1.2c0.8-2.7,2.1-5.1,3.4-7.4
	c0.6-1.5,1.6-2.9,2.7-4.3c3-4.5,6-9,7.1-14.4c0-1.9,0.1-4,0.2-6.1c0-0.2,0-0.5,0.1-0.7c-0.1-0.7-0.2-1.5-0.3-2.2
	c0-0.9,0.4-1.6,1-2.3c0-0.1,0-0.3,0.1-0.4c0.5-0.9,1.3-1.8,2.7-2.4c0.5-0.6,0.8-1.2,0.9-2c0.2-1.3,0.6-2.5,1-3.5
	c0-0.3,0.1-0.7,0.3-1l0.4-0.9C879.7,341.2,879.6,340.4,879.4,339.6z"/>
<path class="st1" d="M844.6,229.6c-0.6-1-1.6-1.7-2.7-1.9l-0.6-0.1c-1.3-0.2-2.8-0.5-4.4-0.5c-1,0-2,0.1-2.9,0.3c-0.1,0-0.3,0-0.4,0
	c-5.3-1-10.1-4.6-15.2-7.5c-1.3-0.7-2.5-1.4-3.9-2c-9.5-4.6-22.5,4.4-26.5,0.4c-2-1.8-3.5-4.1-4.9-6.5c-0.7-1.2-1.3-2.5-2-3.7
	c-2.2-5.7-8.2-13.7-15.8-11.2c-1.3-0.6-2.6-1.2-3.9-1.9c-8.1-4-17.2-8.9-22.5-3.7c-0.4,0.5-0.7,1-1,1.6c-0.7,6.5-2.3,13-3.5,19.4
	c0,0.1-0.1,0.2-0.1,0.4c0,0.1,0,0.2-0.1,0.3c-0.4,1.5-1.1,2.7-2.3,3.7c-1.1,0.9-1.6,2-1.9,3c-0.1,0.8-0.1,1.5-0.1,2.1
	c0,0.3,0,0.6-0.1,0.9c0,0,0,0.1,0,0.1c0,0.4,0,0.8,0,1.2c-2.4,2.2-3.5,4.9-4.3,7.5c-0.3,1.1-0.5,2.2-0.7,3.2
	c-0.1,0.7-0.3,1.3-0.4,1.9c-0.4,1.9-0.9,3.5-1.9,4.8c-3.5,4.6-5.9,9.6-8.1,14.5c-0.4,0.8-0.8,1.7-1.2,2.6
	c-2.7,5.8-7.2,11.2-11.5,16.4l-1.4,1.7c-0.5,0.6-2.4,1.1-3.9,1.4c-0.9,0.2-1.8,0.4-2.7,0.7c-1.4,0.4-2.5,1.6-2.8,3
	c-0.1,0.7-0.6,1.1-2.2,2.1c-3.1,1.2-5.7,6.1-3.8,8.4c6.9,0.5,15,5.8,21,7.1c2,1,3,4,3.8,6.2c0.3,1.5,0.4,3,0.4,4.2
	c0.1,1.2,0.1,2.4,0.3,3.2c0.3,1.1,0.6,2.2,0.8,3.3c0.2,1.1,0.3,2.2,0.3,3.2c0,0.2,0,0.5,0,0.7c1.3,12.5-7.4,26.3,1.6,37.2
	c0.9,0.8,1.8,1.5,2.8,2.1c0.4,0.2,0.8,0.4,1.2,0.6c2.2,1.2,4.6,2,7.2,2.4c2,0.2,4.1,0.2,6,0.1c0.8,0.3,1.6,0.8,2.2,1.5
	c1.1,1.1,1.7,2.7,1.7,4.3c0,0.1,0,0.5,0.1,0.8c0.1,1.3,0.5,4.6-1.6,7c-0.1,0.1-0.2,0.2-0.2,0.3c0,0,0,0,0,0c0,0,0,0,0,0
	c-0.1,0.1-0.2,0.3-0.4,0.4c-0.8,0.8-1.9,1.4-3.2,1.7c-3.8,1.5-6.4,5.9-6.8,10.6c-0.1,3.8,1.3,7.5,4.3,10.4c0.2,0.3,0.4,0.6,0.7,0.9
	c0.6,0.5,1.1,1,1.6,1.6c0.6,0.7,1.1,1.4,1.6,2.2c1,1.3,1.7,2.6,1.8,4.3c0.3,1.2,0.6,2.4,0.9,3.8c0,1.4,0.4,3.2,1.4,4.8
	c1.5,1.6,3.4,3,5.5,4.2c0.1,0,0.2,0.1,0.3,0.1c0.5,0,1-0.1,1.9-0.3c1-0.4,1.7-1.1,2.1-2.1c0-0.3,0-0.6,0-0.9
	c0.1-0.7,0.2-1.6,0.3-2.6c0-0.5,0.1-0.9,0.1-1.4c0.2-2.2,0.3-4.5,0.8-6.7c-0.1-0.4-0.1-0.7-0.3-1.1c-0.1-0.2-0.3-0.3-0.4-0.5
	c-0.5-0.7-0.7-1.6-0.6-2.4c-0.2-0.4-0.3-1-0.3-1.6c0-0.9-0.5-2.1-1-3.4c-1.2-3.1-3-7.8,0.7-12.3c2.3-2.8,3.9-6,5.2-9.3
	c1.2-3.2,2.1-6.5,2.9-9.7c0.8-3,1.9-5.4,3.3-7.5c0.4-0.6,0.8-1.2,1.3-1.7c2.5-3,6-5,10.8-6.5c6.2-1.9,11.5-4.9,15.8-9
	c1.3-1.3,2.5-2.7,3.7-4.2c0.7-0.9,1.4-1.7,2.2-2.4c0,0,0,0,0,0c0.1-0.1,0.3-0.2,0.4-0.3c3-2.6,6.9-4.2,10.8-4.2
	c2.5,0,4.8,0.7,6.6,1.9c0.6,0.5,1.4,0.7,2.2,0.7c0.5,0,1.1-0.1,1.6-0.3c1.3-0.6,2.7-0.9,4.5-0.9c1.3,0,2.4-0.6,3.1-1.6
	c0.2-1,0.5-2,0.8-2.8c1.3-4.9-2.7-5.9-4.3-10.3c-0.5-1-0.8-2.1-1.1-3.2c-0.4-2.4-0.4-4.4-0.4-6.4c0.5-2,2.5-3.5,4.2-4.8
	c0.1-0.1,0.3-0.2,0.4-0.3c1-1.3,1.7-2.3,1.4-3c-0.8-2.9-1.3-5.8-1.7-8.7c-0.1-1.1-0.2-2.2-0.3-3.3c-2.3-14,0.1-27.6,10.9-37
	c3.5-4,7.8-7.4,13.1-10.1c0.4,0,1.2-0.4,1.9-1.1c0.5-0.6,0.9-1.3,1.2-2c0.1-0.3,0.1-0.6,0.1-0.9c0-0.2,0-0.3,0-0.5
	c0-0.2-0.1-0.4-0.1-0.6c0-0.5,0.1-1,0.3-1.4c0.1-0.1,0.1-0.2,0.1-0.3c0.1-0.5,0.1-0.9,0.3-1.3c0-0.1,0.1-0.2,0.1-0.3
	C845.3,231.8,845.2,230.6,844.6,229.6z"/>
<path class="st1" d="M957.6,463.5C957.6,463.5,957.6,463.5,957.6,463.5c-0.6-1-1.7-1.6-2.8-1.8c-0.4,0-0.8,0.1-1.2,0.1
	c-1.3,0-2.7-0.2-4.2-0.5c-1.4-0.3-2.7-0.9-3.8-1.6c-0.8-0.5-1.6-1.2-2.2-1.9c-0.8-0.8-1.4-1.8-1.8-2.8c0-0.1,0-0.1,0-0.2
	c-0.1-0.1-0.1-0.2-0.2-0.4c-0.8-4.6-3.9-7.4-5.6-10.7c-1.6-2.3-2.5-4.4-0.8-6.1c0-0.1,0-0.2,0.1-0.3c0.1-0.1,0.2-0.3,0.3-0.4
	c1.1-0.1,2.3-0.1,3.3-0.1c0-0.7,0.1-1.4,0.2-2.1c0.3-0.1,0.7-0.2,1-0.2c2.1-1.6,4.1-3.6,5.3-5.8c0.7-2.7,1.1-5.2-1.3-8.1
	c-0.1-0.1-0.2-0.2-0.4-0.3c-0.9-0.6-1.5-1.3-2.1-2.1c-1.5-2.3-1.6-5.3-1.5-8.2c0-1.4-0.7-2.7-1.9-3.5c-0.2-0.1-0.4-0.3-0.6-0.5
	c-0.2-0.2-0.4-0.4-0.6-0.6c0,0-0.1-0.1-0.1-0.1c-0.2-0.2-0.4-0.4-0.5-0.6c-0.3-0.5-0.6-1-0.8-1.5c-0.1-0.4-0.3-0.7-0.5-1
	c-0.1-0.1-0.1-0.1-0.2-0.2c-0.2-0.4-0.5-0.9-0.8-1.5c-0.1-0.3-0.3-0.5-0.4-0.8c-0.1-0.3-0.2-0.6-0.3-1c-0.1-0.3-0.2-0.5-0.3-0.8
	c-0.2-0.4-0.5-0.8-0.8-1.1c-0.9-0.3-1.8-0.9-2.6-2c-0.4-0.5-1.1-0.9-1.8-1.1c-0.1,0-0.2,0-0.4,0c-1.1,0-2.2-0.3-3.1-1
	c-0.4-0.3-0.7-0.6-0.9-0.8l-0.1-0.1c-0.6-0.4-1.1-0.7-2.2-0.8c-2.8-0.2-5.5-1.1-8-2.6c-0.8-0.5-1.6-1-2.3-1.6
	c-0.2-0.1-0.4-0.3-0.6-0.5c-3,0.4-6,2.1-9,4.2c-3,3-5.8,6.4-9.3,7.8c-3.8,3.4-7.6,6.5-11.1,7.8c-0.1,0.1-0.3,0.2-0.4,0.3
	c-0.6,1.3-1.7,1.9-3,2c-2.5-0.5-3.8-1.8-4.6-3.6c-0.5-0.4-1.1-1-1.6-1.6c-1-2,0-5-1-7c-0.2-0.4-0.4-0.9-0.6-1.3
	c-0.5-0.9-1-1.7-1.7-2.6c-1.9-1.4-3.2-2.7-4-4c-1.2-0.2-2.5,0.1-3.9,1c-0.1,0.4-0.2,0.8-0.4,1.2c-0.3,0.8-0.9,1.5-2.1,2.1
	c-0.9,1-1.8,1.9-2.8,2.9s-1.9,1.9-2.8,2.8c-0.3,0.3-0.6,0.6-0.9,1c-1.4,1.6-3.6,4-7.9,4c0,0-0.5,0-0.7,0c-3,0-5.6,1.1-7.8,3.4
	c-1.2,1.2-3.1,2.5-5.2,3.4c-1.6,0.7-3.4,1.2-5,1.2c-2.5,0-4.5-1.1-5.7-3c-0.8-1.3-1.7-1.5-4.7-1.7c-1.8-0.2-4.3-0.3-6.6-1.6
	c-0.3-0.1-0.6-0.1-0.9-0.1c-0.7,0-1.4,0.2-2,0.6c-0.2,0.1-0.4,0.3-0.6,0.4c-0.1,0.1-0.2,0.2-0.3,0.2c-0.9,0.6-1.5,1.6-1.7,2.7
	c-0.1,1.1,0.2,2.2,0.9,3.1c1,1.2,1.5,2.6,1.5,4.3c0,0,0,0.1,0,0.1c0,0,0,0,0,0c0.1,6.9-3.8,11.2-7,14.7c-1.5,1.7-2.9,3.2-3.8,4.9
	c-0.9,1.6-2.6,2.5-4.9,2.5c-1,0-1.9-0.2-2.6-0.5c-0.8-0.4-1.6-0.6-2.3-0.6c-1.5,0-3.1,1-5.3,3.2c-2.2,2.3-6,3.8-10.1,3.8
	c0,0,0,0,0,0c0,0,0,0-0.1,0c-4.2,0-8-1.6-10.4-4.2c0,0,0,0,0,0c0,0,0,0,0,0c0,0-0.1-0.1-0.1-0.1c-1.6-1.7-2.7-3.4-3.1-4.9
	c-0.4-1.3-1.4-2.4-2.8-2.7c-0.3-0.1-0.7-0.1-1-0.1c-1,0-2,0.4-2.8,1.2c-0.4,0.5-0.9,0.8-1.5,1c-4.4,1.5-6.3,5-8.8,9.6
	c-0.8,1.4-1.6,2.9-2.5,4.3c0,0,0,0,0,0.1c0,0,0,0.1-0.1,0.1c-0.1,0.1-0.1,0.2-0.2,0.3c-0.2,0.3-0.3,0.8-0.6,1.2
	c-0.1,0.2-0.2,0.4-0.3,0.7c-0.5,0.9-0.6,2.1-0.3,3.1c0.1,0.4,0.3,0.8,0.6,1.1c1.3,0.3,2.7,0.9,3.7,2.4c1.3,1.9,0.9,3.8,0.7,5
	c0,0.2-0.1,0.5-0.1,0.7c-0.2,1.3-0.5,2.6-0.7,3.9c-1,5-1.5,8.2,0.6,11.4c2.9,4.5,0.8,8.7-0.6,11.5l-0.4,0.8
	c-0.1,0.2-0.2,0.3-0.3,0.5c-0.1,0.1-0.1,0.2-0.1,0.3c-0.3,1.2-0.1,2.4,0.6,3.4c0.8,1.2,1.1,2.6,0.8,4c-0.4,1.8,0.2,3.7,0.8,6
	c0.5,1.6,1,3.4,1.2,5.3c-1.3,7-1.3,12,2.7,18c1.9,2.5,2.6,7.1,2.1,11.5c-0.1,0.6-0.2,1.2-0.3,1.8c0,0.1,0,0.2-0.1,0.3
	c-0.1,0.6-0.3,1.2-0.4,1.7c0,0,0,0,0,0c-0.2,0.5-0.3,1-0.5,1.5c0,0.1-0.1,0.2-0.2,0.4c-0.2,0.5-0.4,1-0.7,1.5
	c-0.7,1.5-1.3,2.9-1.4,4.2c0.5,0.6,1,1.4,1.5,2.2c1,1,4.9,2,7.6-0.2c0-0.1,0-0.1,0-0.2c0-0.1,0-0.2,0-0.3c0.1,0.1,0.1,0.1,0.2,0.2
	c0.1,0,0.1,0.1,0.1,0.1c1.5-1.1,3-2.1,4.5-3c1.6-1,3.3-1.8,5-2.6c1.5-0.6,2.9-1.4,4.2-2.2c3.2-1.9,6.1-4.2,8.8-6.3
	c2.1-1.6,4-3.2,6.1-4.6c0.2,0,0.4,0,0.6-0.1c2.4-1.6,4.9-2.3,7.8-2.3c1,0,2.1,0.1,3.1,0.3c0.4,0.2,0.8,0.6,1.2,0.9
	c0.7,0.8,1,1.9,0.9,2.9c-0.1,0.6,0,1.2,0.1,1.8c0.2,1.9,1.2,3.3,3.1,4.4c0.3,0.2,0.6,0.4,0.9,0.6c1.7,1,4,2.5,7,2.5
	c1.8,0,3.5-0.5,5.1-1.5c1.5-0.9,3-1.3,4.4-1.3c1.9,0,4,0.9,6.2,2.6c6.8,5.5,14.7,8.4,20.8,10.3c0.8,0.3,1.6,0.4,2.4,0.4
	c1.1,0,2.2-0.2,3.4-0.7c0.4,0,0.9,0.1,1.3,0.3c0.6,0.4,1.1,0.8,1.7,1.2c1.1,0.8,2.1,1.5,3,2.2c2.2,1.8,3.6,3.5,4,6.2
	c0.2,1.8,1,3.2,2.1,4.3c1.1,1.1,2.6,1.7,4.4,1.7c1.9,0,3.5-0.8,4.3-1.2c1.9-1,3.4-1.5,4.9-1.5c1.6,0,3.3,0.6,5.2,1.8
	c2.6,1.7,7.2,2.2,8.5,2.3c1.4,0.1,2.7,0.6,3.9,1.5c0.3,0.2,0.7,0.5,1,0.8c0.8,0.7,1.2,1.6,1.2,2.5c-2,2.2-4.2,4.4-6.4,6.7
	c-2.1,0.8-4,1.7-4.7,3.5c0,0.5,0,1.1,0,1.8c-5.4,6.6-8.6,13.9-3.1,23.1c0.3,0.6,0.5,1.1,0.8,1.6c0,0.1,0.1,0.2,0.1,0.2
	c0.2,0.4,0.5,0.8,0.8,1.2c0.4,0.5,0.7,0.9,1.1,1.2c0.5,0.4,1,0.8,1.5,1.2c0.9,0.7,1.6,1.3,2.2,1.9c0.3,0.3,0.6,0.5,1,0.7
	c0.2,0,0.5,0.1,0.7,0.2c1.1,0.3,2.2,0.8,3.3,1.5c0.2,0.1,0.3,0.2,0.5,0.3l0.5,0.3c1,0.6,2.1,1.3,3.3,1.9l0.1,0.1
	c0.1,0.1,0.3,0.2,0.4,0.2c0,0,1,0.6,1.4,0.8c2.7,1.1,4.8,2.7,6.3,4.7c0.6,0.4,1.4,0.7,2.2,0.7c0.1,0,0.3,0,0.2-0.1
	c1.3-0.1,2.5-0.9,3.1-2c0.8-1.4,1.9-2.4,3.3-3.1c7.1-3.3,6.8-8.4,6.4-10.4c-2-9.5,0.3-18.9,3.3-29.3c3.1-10.8,3.7-20.5,1.8-30.7
	l-0.2-1.1c-1.3-7.2-2.6-14.5-0.8-21.8l0.2-0.8c1.2-4.4,2.6-9.9,0.8-16.2c-0.2-0.8,0-2.6,0.3-4.2c0.4-2.2,0.7-4.5,0.5-7
	c0.5-0.4,1-0.7,1.5-1.1c1.6-1.1,3.4-2.4,5-4.1c0.9,0.4,1.8,0.6,2.7,0.6c3,0,4.9-2.1,6-3.4c0.1-0.2,0.3-0.4,0.4-0.5
	c8-8.4,14.4-17.9,19.1-28.3C958.5,466.1,958.4,464.6,957.6,463.5z"/>
<path class="st1" d="M750.8,553.4c-1.7,0.9-2.7,1.9-4.7,1.9c-3-0.7-4.2-1.9-4.5-3.4c0-0.3,0-0.5,0-0.8c0.1-1.3,0.7-2.7,1.4-4.2
	c1.1-2.1,1.9-4.6,2.2-7.1c0.5-4.4-0.2-9-2.1-11.5c-4-6-4-11-2.7-18c-0.2-1.9-0.8-3.7-1.2-5.3c-0.6-2.3-1.2-4.2-0.8-6
	c0.3-1.4,0-2.8-0.8-4c-0.7-1-0.9-2.2-0.6-3.4c-0.1,0.2-0.2,0.4-0.3,0.6c-0.1,0.2-0.3-0.1-0.7-0.7c-0.3,0-0.6,0-1,0h-0.9
	c-0.5,0-1.1,0-1.5,0.2c-1.5,0.5-3.1,1.5-4.7,2.5c-2.3,1.4-4.8,3.1-8.1,3.9c-1.4,0.3-2.8,0.5-4.1,0.5c-0.7,0-1.2,0-1.7-0.1
	c-0.1,0-0.3,0-0.5,0c-1.6,0-3.2,1-3.9,2.5c-0.5,1.1-1.5,2-2.7,2.3c-0.4,0.1-0.9,0.2-1.3,0.2c-0.1,0-0.1,0-0.2,0c0,0-0.1,0-0.1-0.1
	c0,0,0,0,0,0c-1.2-0.1-2.2-0.6-3-1.4c-0.3-0.4-0.8-0.8-1.3-1c-0.7-0.3-1.4-0.5-2.4-0.9c-1.3-0.4-2.8-1-4.4-1.9
	c-0.7-0.4-1.4-0.7-2.2-0.7c-0.3,0-0.8,0-1.1,0.1c-1,0.2-1.9,0.3-2.7,0.3c-4.7,0-7.4-3.3-9.5-5.6c-0.8-0.9-1.3-1.5-1.9-2
	c-0.2-0.1-0.4-0.3-0.7-0.4c-0.2-0.1-0.4-0.3-0.7-0.4c-0.8-0.5-1.7-0.9-2.6-0.9c-0.3,0-0.5,0-0.9,0.1c-0.4,0.1-0.8,0.1-1.2,0.1
	c-0.3,0-0.7-0.1-1-0.1s-0.7-0.1-1-0.1c-0.2,0-0.3,0-0.5,0c-1.9,0-3.5,1.1-4.1,2.8l-0.2,0.5c-0.1,0.3-0.2,0.7-0.2,1v0.5
	c0,0.3,0,0.9-0.1,1.4c-0.2,1.3-1,2.5-2.2,3.2c-0.7,0.3-1.4,0.5-2.2,0.5c-0.5,0-1.1-0.1-1.6-0.3c-3.4-1.4-6.5-3.3-9.3-4.9
	c-3.6-2.2-7.1-4.1-10.8-5.1c-0.4-0.1-0.9-0.2-1.3-0.4c-0.3-0.1-0.7-0.2-0.9-0.3c-1-0.4-2.1-0.8-4.5-1c-0.7,0-1.4-0.1-2.4-0.1h-0.1
	c-1.4,0-2.7,0.7-3.5,1.7c0,0,0,0.1,0,0.1c0,0,0-0.1,0-0.1c-0.4,0.6-0.7,1.2-0.9,2c-0.1,0.4-0.1,0.9-0.2,1.3c-0.3,2.6-0.7,5-1.9,6.4
	c-0.7,0.8-1.3,1.7-1.9,2.6c-0.5,0.9-1,1.8-1.4,2.6c-2.7,7.9-0.7,17.9-3.7,25.9c-4,8-5,19-13,22c-1,1-3-4-6-3c-6,3-5,11-9,15
	c-2,1-5-1-7,1c-4,8-16,13-12.2,22.9c0,0.1-0.1,0.2-0.2,0.3c-0.8,0.8-1.6,1.5-2.4,2.3c-2.8,2.7-5.8,5.6-8.2,9.2
	c-0.6,0.9-1.2,1.8-1.7,2.8c-0.7,1-1.2,2-1.8,3c-0.4-0.1-0.8-0.2-1.2-0.3c0.4,0.2,0.7,0.4,1,0.6c-4.5,8.5-4.5,17.1,2.2,23.8
	c-0.9,1.6-1.4,3-1.6,4.3c-0.2,1.2-0.2,2.4,0.1,3.5c0.3,1.4,5.1,8,5.5,9.8c0.8,3.4,3.6,5.6,7.4,5.6c0.5,0,1.2-0.1,1.7-0.2
	c0.5-0.1,1.1-0.2,1.6-0.2c2.7,0,5.2,1.5,8.1,3.3c1.7,1.1,3.6,2.2,5.7,3.1c1.3,0.7,2.7,1.5,4.1,2.4c2.4,1.6,26,12.4,31.2,13.8
	c0,0,0,0,0,0c0.9-0.7,1.6-1.6,1.7-2.7c0.1-0.1,0.2-0.3,0.3-0.4c0-0.1,0.1-0.1,0.1-0.1c0.3-0.4,0.5-1,0.9-1.4c1-1.6,1.6-2.7,2.3-3.6
	c0.7-0.9,1-1.3,1.2-1.4c4.9-1.2,6-4.9,6.7-7.4c0.1-0.4,0.3-0.9,0.5-1.3c1.3-2.7,4.3-4.4,8-4.4h0.3c1,0,2-0.4,2.7-1
	c1-0.5,2.4-0.8,4.1-0.9c2.1-0.1,10.1,0.2,11.3,0.2c3.5,0,5.5-3.1,6.3-4.5c0.1-0.1,0.1-0.2,0.2-0.3c0.4-0.5,0.9-0.8,1.9-1.4
	c0.4-0.2,0.9-0.5,1.4-0.9c1.1-0.8,2.4-1.1,4.1-1.1c1.1,0,2.3,0.1,3.5,0.2c1.4,0.2,2.8,0.3,4.3,0.3h0.1c1,0,2.1,0,3.1-0.1
	c1,0,2-0.1,2.8-0.1c1.7,0,2.9,0.3,3.8,0.9c1.2,0.8,2.4,1.3,3.7,1.7c1.2,0.4,2.5,0.6,3.8,0.5c9.4-1.6,14.4-8.6,19.4-15.6c0-1-3-4-2-5
	c1-3,4-7,1-10c-1-1,0-7,2.6-8.7c0.6-0.8,1.2-1.6,1.6-2.6c0.2-0.4,0.3-1,0.5-1.4c1.7-5.2,0-10.7-4.6-13.6c-0.9-0.5-1.2-1-1.3-1.1
	c0.1-0.5,1.1-2.5,1.6-3.4c0.1-0.2,0.2-0.4,0.2-0.4l6.2-5.3h0.2c-0.5-0.6-0.2-1.2,0.3-1.9C729.1,573.3,751.7,560.4,750.8,553.4z"/>
<path class="st1" d="M772.5,742.7c0-0.1,0-0.2,0-0.2c0-0.6-3-3.1-5.6-5.4c-0.6,0.3-1.3,0.8-2,1.3c-0.5,0.4-1,0.8-1.5,1.3
	c-0.6,0.2-1.1,0.4-1.7,0.6c-0.4,0.6-0.8,1-1.1,1.3c-0.6,0.3-1.3,0.4-2.1,0.5c-1.3-0.2-2.6-1.2-4-0.4c-1.6,0-3,0.3-4.1,1
	c-1.1,0.7-2,1.7-2.6,3c-0.5,1.1-1.5,2-2.8,2.3c-0.2,0-0.4,0.2-0.8,0.5c-1.1,0.2-2.2,0.4-3.2,0.4c-0.1,0-0.2,0-0.3,0s-0.3,0-0.5,0
	c-0.4,0-0.8,0-1.3,0c-0.4,0-0.7,0-1.1,0c-0.3,0-0.5,0-0.6,0c-0.1-0.1-0.1-0.3-0.1-0.5c0-0.5-0.1-1-0.2-1.5c-0.3-0.4-0.5-0.8-0.6-1.2
	c-0.5-1.8-1.3-3.3-2.3-4.6c-1-1.3-2.1-2.5-3.2-3.5c0-0.1,0-0.1-0.1-0.2c-0.3-0.3-0.6-0.6-0.9-0.8c0.3-0.3-0.7-0.3-0.7-0.3
	c-0.5-2.4-0.1-5.1,0.7-7.7c0.7-5.7,3.3-11,3.3-16.3c0.1-0.5,0.1-0.9,0.1-1.3c-0.6-1.1-1.6-2-3.1-2.7c-0.8-0.5-1.7-0.9-2.6-1.2
	c-1.6-0.2-2.9-0.7-3.9-1.2c-2.5-1-4.5-2.3-4.5-4.5c-0.6-5.5-0.9-10.3-2.1-14.8c-1.3-0.7-2.9-1.5-2.9-2.2c2-9-11-11-15.7-9.3
	c-1.2,0.5-2.3,1-3.2,1.5c-1.3,0.6-2.3,1.2-3.1,1.2c-0.1,0-0.2,0-0.3,0c-0.2,0-0.4-0.1-0.5-0.1c-0.1,0-0.3,0-0.4-0.1
	c-0.1,0-0.2,0-0.3,0c-0.5-0.1-0.9-0.1-1.4-0.2c-0.8-0.1-1.6-0.1-2.5-0.1c-2.1,0-4.1,0.2-6,0.4c-1.6,0.1-3.2,0.3-4.6,0.3
	c-0.1,0-0.1-0.1-0.1-0.1c-0.8-1.3,1.9-13.6,0.7-18.2c-0.2-0.9-0.6-1.5-1.2-1.7c-7-2.2-9.6-2.9-11.1-2.9c-0.2,0-0.4,0-0.6,0
	c-1,0-1.9,0-2.9,0c-6.7,0-12.1-0.9-16.9-2.9c-0.8-0.3-1.7-0.5-2.6-0.5c-2.8,0-4.6,1.7-5.8,2.8c-0.4,0.4-1,0.9-1.2,1h-0.1
	c-0.4,0.1-0.8,0.2-1.1,0.3c-0.2,0.4-0.4,0.8-0.5,1.3c-0.7,2.5-1.7,6.2-6.7,7.4c-0.2,0.1-0.5,0.5-1.2,1.4c-0.7,0.9-1.3,2-2.3,3.6
	c-0.3,0.4-0.5,1-0.9,1.4c0,0.1-0.1,0.1-0.1,0.1c-0.1,0.2-0.2,0.3-0.3,0.4c-0.2,1.1-0.8,2-1.7,2.7c0,0,0,0,0,0
	c-0.5,0.4-1.1,0.8-1.6,1.3c-1.1,1-1.9,2.2-2.6,3.6c-0.1,0.1-0.1,0.3-0.2,0.4v-0.1c-0.5,1.1-1.4,2-2.6,2.3c-0.4,0.1-0.9,0.3-1.2,0.5
	c-0.1,0-0.2,0.1-0.2,0.1c-0.4,0.2-0.7,0.3-1,0.5c-0.1,0.1-0.2,0.1-0.3,0.2c-0.3,0.2-0.5,0.4-0.8,0.6c-0.1,0.1-0.3,0.2-0.4,0.3
	c-0.2,0.1-0.3,0.3-0.5,0.4c-0.3,0.3-0.6,0.6-0.9,0.9c0,0,0,0,0,0c-0.9,1-1.7,2-2.3,2.8c-0.7,1-1.2,1.6-1.7,2.1
	c-0.4,0.6-0.7,1.1-0.8,1.1c-1,0.7-1.9,2.1-2.2,3.5c0,0.4,0,0.9,0.1,1.4c0.1,0.4,0.1,0.8,0.1,1.1c0,0.3-0.1,0.5-0.1,0.8
	c-0.2,1.6-1.3,3-3.6,5.2c-0.3,0.3-0.7,0.7-1,1c-0.8,0.9-1.2,1.8-1.4,2.6c-0.1,0.4-0.1,0.8-0.1,1.3c0,0.3,0,0.6-0.1,0.9
	c0,0.3,0.1,0.6,0.1,0.8c-1.8,2.2-2.9,4.6-4,6.7c-1.3,2.6-2.4,4.9-4.3,6.3c-0.1,0.1-0.3,0.3-0.4,0.4c-0.5,0.4-0.8,1-1,1.6
	c-0.1,0.5-0.3,0.8-0.6,1.2c-1.9,3.8-5.6,6.1-9.8,8.6c-2.2,1.3-4.7,2.8-7,4.6c-0.6,0.5-1.1,1.2-1.3,1.9c-0.3,1-1.1,1.9-2,2.4
	c-0.4,0.2-0.8,0.4-1.2,0.6h-0.1c-0.2,0.1-0.4,0.2-0.6,0.3c0,0.2,0,0.4,0,0.6c0,0,0,0,0.1,0l0.3-0.2c1.3-0.7,2.6-1.3,4.1-1.9
	c0.7-0.3,1.4-0.5,2.1-0.7c1.8-0.5,3.4-0.8,5.2-0.8c0.6,0,1.3,0,1.9,0.1c0.3,0.1,0.7,0.1,1,0.1c0.1,0,0.2,0.1,0.3,0.1
	c0.4,0,0.8,0.1,1.2,0.2c0.5,0.1,1,0.2,1.5,0.3c0,0,0.1,0,0.1,0l0.4,0.1c2,0.4,3.8,0.8,5.5,0.8c0,0,0,0,0.1,0c0,0,0,0,0,0
	c2.1,0,3.5-0.6,4.8-2c0.8-0.8,1.8-1.2,2.9-1.2c0,0,0,0,0,0c0.3,0,0.6,0.1,0.9,0.1c0.1,0,0.2,0,0.2,0.1c0.3,0.1,0.6,0.2,0.9,0.4
	c0.2,0.1,0.4,0.2,0.6,0.2c0.2,0.1,0.3,0.2,0.4,0.3c0.9,0,1.7,0.3,2.4,0.8c0,0,0,0,0,0c0.2,0.2,0.4,0.4,0.6,0.6
	c0.3,0,0.6,0.1,0.9,0.1c0.9,0.3,1.8,0.6,2.7,0.9c1.3,0.3,2.6,0.6,3.8,0.8c5.3,2,10.4,3.4,15.5,4.5c6.6,1.8,13.4,2.9,20.2,3.1
	c2,0.3,4.1,0.5,6.2,0.8c0.2,0.5,0.4,0.9,0.7,1.3c0,0.1,0,0.2,0,0.2c0.1,0.1,0.3,0.1,0.4,0.2c0.2,0.2,0.5,0.4,0.7,0.5
	c1.2,6.2,3.1,12,5.7,17.5c2.5,7.6,7.9,14.4,14.4,20.4c6.1,6.3,13.4,11.7,21.5,16.1c0.5,0.2,1,0.4,1.4,0.7c0.1,0.1,0.2,0.3,0.3,0.4
	c0.3,0.6,0.5,1.2,0.5,1.9c0.1,1.8-0.3,3.4-1.1,5c3-3.2,6.5-7.3,6.9-8c1.2-2.2,3.5-3.6,6.1-5.3c0.9-0.6,1.8-1.2,2.7-1.8
	c1-0.7,2.1-1.3,3.3-2c2.6-1.5,5.5-3.2,7.6-5.9c2.5-3.2,5.9-5.1,9.6-7.2c1.3-0.7,2.7-1.5,4.1-2.4c0.3-0.2,1.2-0.2,1.9-0.3
	c1.8-0.1,4.7-0.4,6.5-3c1.5-2.2,3.2-2.9,6.8-2.9c0.9,0,1.8,0.1,2.7,0.1h0.7c0.2,0.1,0.7,0.2,1,0.3c0.9,0.3,2,0.6,3.2,0.6
	c11.8-3.6,19.7-11.9,20.3-21.7C777,752.5,775.8,747.6,772.5,742.7z"/>
<path class="st1" d="M891,574.6c-0.3-0.3-0.7-0.6-1-0.8c-1.3-0.9-2.5-1.4-3.9-1.5c-1.3-0.1-5.9-0.6-8.5-2.3
	c-1.9-1.2-3.6-1.8-5.2-1.8c-1.5,0-3,0.5-4.9,1.5c-0.8,0.4-2.4,1.2-4.3,1.2c-1.8,0-3.3-0.6-4.4-1.7c-1.1-1-1.9-2.5-2.1-4.3
	c-0.4-2.7-1.8-4.4-4-6.2c-0.9-0.7-1.9-1.4-3-2.2c-0.6-0.4-1.2-0.8-1.7-1.2c-0.4-0.2-0.9-0.3-1.3-0.3c-1.1,0.4-2.2,0.7-3.4,0.7
	c-0.8,0-1.6-0.1-2.4-0.4c-6.1-1.9-14-4.8-20.8-10.3c-2.2-1.7-4.3-2.6-6.2-2.6c-1.4,0-2.9,0.4-4.4,1.3c-1.6,1-3.3,1.5-5.1,1.5
	c-3,0-5.3-1.5-7-2.5c-0.3-0.2-0.6-0.4-0.9-0.6c-1.9-1.1-2.9-2.5-3.1-4.4c-0.1-0.6-0.2-1.2-0.1-1.8c0.1-1-0.2-2.1-0.9-2.9
	c-0.3-0.4-0.7-0.7-1.2-0.9c-1-0.2-2.1-0.3-3.1-0.3c-2.9,0-5.4,0.7-7.8,2.3c-0.1,0.1-0.3,0.1-0.6,0.1c-2.1,1.4-4,3-6.1,4.6
	c-2.6,2.1-5.5,4.4-8.8,6.3c-1.4,0.8-2.8,1.5-4.2,2.2c-1.7,0.8-3.4,1.6-5,2.6c-1.5,0.9-3.1,1.9-4.5,3c0,0-0.1-0.1-0.1-0.1
	c-0.1-0.1-0.1-0.1-0.2-0.2c0,0.1,0,0.2,0,0.3c0,0.1,0,0.1,0,0.2c-2.7,2.1-6.7,1.2-7.6,0.2c-0.5-0.8-1-1.6-1.5-2.2c0,0.3,0,0.6,0,0.8
	c0.2,1.5,1.5,2.7,4.5,3.4c2,0,3-1,4.7-1.9c0.9,7-21.7,19.9-26.2,22.5c-0.6,0.6-0.8,1.3-0.3,1.9H724l-6.2,5.3c0,0.1-0.1,0.2-0.2,0.4
	c-0.5,0.9-1.5,2.8-1.6,3.4c0.1,0.1,0.4,0.5,1.3,1.1c4.6,2.9,6.3,8.4,4.6,13.6c-0.2,0.4-0.3,1-0.5,1.4c-0.4,0.9-1,1.8-1.6,2.6
	c-2.6,1.7-3.6,7.7-2.6,8.7c3,3,0,7-1,10c-1,1,2,4,2,5c-5,7-10,14-19.4,15.6c-1.3,0-2.5-0.2-3.8-0.5c-1.2-0.4-2.5-1-3.7-1.7
	c-0.9-0.5-2.1-0.9-3.8-0.9c-0.9,0-1.9,0.1-2.8,0.1c-1,0.1-2.1,0.1-3.1,0.1h-0.1c-1.4,0-2.8-0.1-4.3-0.3c-1.2-0.1-2.4-0.2-3.5-0.2
	c-1.7,0-3.1,0.3-4.1,1.1c-0.5,0.3-1,0.7-1.4,0.9c-1,0.7-1.4,0.9-1.9,1.4c-0.1,0.1-0.1,0.2-0.2,0.3c-0.9,1.4-2.8,4.5-6.3,4.5
	c-1.2,0-9.3-0.3-11.3-0.2c-1.7,0.1-3.2,0.3-4.1,0.9c-0.8,0.5-1.7,1-2.7,1h-0.3c-3.7,0-6.7,1.7-8,4.4c0.4-0.1,0.7-0.2,1.1-0.3h0.1
	c0.2-0.1,0.8-0.6,1.2-1c1.2-1.1,3-2.8,5.8-2.8c0.9,0,1.8,0.2,2.6,0.5c4.8,2,10.2,2.9,16.9,2.9c1,0,1.9,0,2.9,0c0.2,0,0.4,0,0.6,0
	c1.5,0,4.1,0.7,11.1,2.9c0.1,0,0.3,0.1,0.4,0.2c0,0,0.1,0.1,0.1,0.1c0.1,0.1,0.2,0.2,0.2,0.3c0,0,0,0.1,0.1,0.1
	c0.2,0.3,0.3,0.6,0.4,1.1v0c1.2,4.6-1.5,16.9-0.7,18.2c0,0.1,0.1,0.1,0.1,0.1c1.4,0,3-0.2,4.6-0.3c1.9-0.2,3.9-0.4,6-0.4
	c0.9,0,1.7,0,2.5,0.1c0.5,0.1,0.9,0.1,1.4,0.2c0.1,0,0.2,0,0.3,0c0.1,0,0.3,0.1,0.4,0.1c0.2,0,0.4,0.1,0.5,0.1c0.1,0,0.2,0,0.3,0
	c0.8,0,1.8-0.6,3.1-1.2c1-0.5,2-1.1,3.2-1.5c4.7-1.7,17.7,0.3,15.7,9.3c0,0.7,1.6,1.5,2.9,2.2c1.3,4.5,1.5,9.3,2.1,14.8
	c0,2.3,1.9,3.6,4.5,4.5c1,0.6,2.3,1,3.9,1.2c0.9,0.3,1.8,0.7,2.6,1.2c1.5,0.7,2.5,1.7,3.1,2.7c0,0.4,0,0.8-0.1,1.3
	c0,5.3-2.6,10.6-3.3,16.3c-0.7,2.6-1.2,5.2-0.7,7.7c0,0,1,0,0.7,0.3c0.3,0.3,0.6,0.5,0.9,0.8c0,0.1,0,0.1,0.1,0.2
	c1.1,1,2.2,2.1,3.2,3.5c1,1.3,1.8,2.9,2.3,4.6c0.1,0.4,0.3,0.9,0.6,1.2c0.1,0.5,0.2,1,0.2,1.5c0,0.2,0,0.4,0.1,0.5
	c0.1,0,0.3,0,0.6,0c0.4,0,0.7,0,1.1,0c0.5,0,0.9,0,1.3,0c0.2,0,0.4,0,0.5,0s0.2,0,0.3,0c1,0,2.1-0.2,3.2-0.4
	c0.4-0.3,0.6-0.5,0.8-0.5c1.3-0.3,2.3-1.2,2.8-2.3c0.6-1.3,1.5-2.3,2.6-3c1.1-0.7,2.5-1,4.1-1c1.5-0.8,2.7,0.1,4,0.4
	c0.7-0.1,1.4-0.2,2.1-0.5c0.4-0.3,0.7-0.7,1.1-1.3c0.6-0.2,1.1-0.4,1.7-0.6c0.5-0.4,1-0.9,1.5-1.3c0.7-0.6,1.4-1.1,2-1.3l0,0
	c-1.9-1.7-3.6-3.2-3.5-3.6c0.5-0.9,8.2-0.8,9-1.5c1.3-1.3,5.5,3,7.4,2.1c4.3-1.3,8.6-2.5,12.9-3.7c4.9-1.1,9.8-2.1,13.4-3.8h0
	c0,0,0,0,0,0c1.2-0.3,2.5-0.5,3.8-0.5c2.1,0,4.2,0.5,6,1.5c2.4-1.7,4.8-3,7.3-4.2c0.8-0.4,1.7-0.8,2.5-1.1c2.7-1.7,7.1-2,7.9-4.6
	c-0.1-0.8-0.1-1.6-0.2-2.4v-0.1c0-0.2,0.1-0.3,0.1-0.4c0.3-0.8,0.5-1.6,0.8-2.3c0.5-2.4,1.7-4.2,3.2-5.7c2.3-3,5.3-5.3,8.5-7.5
	c0,0.1,0,0.3,0.1,0.4c0.3-0.4,0.7-0.7,1-1.1c0.8-1,1.5-2.1,2-3.4c0.2-0.9,0.4-1.8,0.5-2.7c0-3.3,0.5-6.6,0.5-9.3
	c-0.4-1.1-0.1-1.9,0.6-2.6c0.8-0.4,1.7-0.9,2.5-1.5c0.9-0.6,1.7-1.3,2.3-2.3c0.2-0.1,0.3-0.3,0.5-0.5c0.2-0.2,0.4-0.4,0.6-0.6
	c0.6-0.3,1.2-0.6,1.9-0.9c0.1,0,0.1-0.1,0.2-0.2c0,0,0,0,0,0c0.1-0.1,0.3-0.3,0.4-0.4c0.1-0.2,0.3-0.3,0.4-0.5
	c0.4-0.7,0.7-1.5,1.2-3c0.3-0.9,0.7-1.9,1.1-3c0.5-1,1.1-2.1,1.9-3c2.5-3.6,2.3-6.8,1.2-9.9c-1-2.3-2.4-4.6-3.2-6.7
	c-0.6-1.3-1.2-2.6-1.6-4c0-3,2-6,2-10c0,0,0,0,0,0c-2-8,7-8,11.3-11.6c0.8-0.3,1.6-0.6,2.4-0.9c0.6-0.2,1.2-0.5,1.9-0.7
	c0.5-0.2,1-0.5,1.4-0.8c0.5-0.5,0.9-1,1.1-1.8c0.4-1.2,0.2-2.4-0.4-3.3c-0.3-0.4-0.5-0.8-0.8-1.2c0-0.1-0.1-0.2-0.1-0.2
	c-0.3-0.5-0.6-1-0.8-1.6c-5.5-9.1-2.3-16.4,3.1-23.1c0-0.7,0-1.4,0-1.8c0.7-1.8,2.6-2.7,4.7-3.5c2.2-2.3,4.4-4.5,6.4-6.7
	C892.2,576.2,891.8,575.3,891,574.6z"/>
<path class="st1" d="M871,718.4c-0.3-0.9-0.7-1.9-1-2.8c0.1-2.3-0.9-4.3-1.9-5.3c0,0,0,0-0.1,0c-0.5-0.3-1-0.6-1.5-0.8
	c-2.5-0.2-5-0.9-7.3-2c-1.2-0.5-2.3-1.2-3.4-1.9c-3.9-1.9-5.5-5.1-6-8.7c-0.9,0.6-1.8,1.2-2.7,1.8c-0.3,0.4-0.7,0.8-1,1.1
	c0-0.1,0-0.3-0.1-0.4c-3.2,2.2-6.2,4.5-8.5,7.5c-1.5,1.5-2.7,3.3-3.2,5.7c-0.3,0.7-0.5,1.5-0.8,2.3c0,0.1-0.1,0.2-0.1,0.4v0.1
	c0.1,0.7,0.1,1.5,0.2,2.4c-0.8,2.6-5.2,2.9-7.9,4.6c-0.8,0.4-1.7,0.7-2.5,1.1c-2.5,1.2-5,2.5-7.3,4.2c-1.8-1-3.9-1.5-6-1.5
	c-1.3,0-2.6,0.2-3.8,0.5c0,0,0,0,0,0h0c-3.6,1.7-8.5,2.7-13.4,3.8c-4.3,1.2-8.6,2.4-12.9,3.7c-1.9,0.9-6.1-3.4-7.4-2.1
	c-0.7,0.7-8.5,0.6-9,1.5c-0.1,0.4,1.6,1.9,3.5,3.6c2.6,2.2,5.6,4.8,5.6,5.4c0,0.1,0,0.2,0,0.2c3.2,4.9,4.5,9.8,4.2,14.4
	c0.9,0.9,2.1,1.6,3.6,2c0.6,0,1.1-0.2,1.6-0.4c17.2,2.6,35.2,0.6,52.2-2.8c1.1,0,2,0,2.9,0.1c0.9,0,1.8,0.1,2.6,0.2
	c0.3,0.1,0.7,0.1,1,0.1c1.2,0,2.4-0.3,3.4-0.8s1.9-1.2,2.5-2.1c3.6-13,19.6-13,25.4-24.6c0.4-0.9,0.6-2,0.6-3.3
	C872.3,722.4,871.7,720.3,871,718.4z"/>
<path class="st1" d="M625.3,489.5c0.1,0.2,0.2,0.4,0.2,0.7c0.3,0.7,0.6,1.2,0.9,1.9c0,0,0-0.1,0-0.1
	C625.9,491.2,625.6,490.4,625.3,489.5z"/>
<g>
	<path class="st1" d="M626.4,492c-0.5-0.8-0.8-1.6-1.1-2.5c0.1,0.2,0.2,0.4,0.2,0.7C625.8,490.9,626.1,491.4,626.4,492
		C626.4,492.1,626.4,492,626.4,492z"/>
	<path class="st1" d="M584.2,657.9c-2.1-0.9-3.9-2-5.7-3.1c-2.8-1.7-5.3-3.3-8.1-3.3c-0.5,0-1.1,0.1-1.6,0.2
		c-0.5,0.1-1.2,0.2-1.7,0.2c-3.8,0-6.7-2.2-7.4-5.6c-0.3-1.9-5.1-8.4-5.5-9.8c-0.3-1.1-0.3-2.3-0.1-3.5c0.2-1.3,0.8-2.6,1.6-4.3
		c-6.7-6.7-6.7-15.4-2.2-23.8c-0.3-0.2-0.6-0.5-1-0.6c-2.6-0.5-5.2,0-7.8,1c-3.8,2.3-7.1,6.1-9.6,4.9c-0.5-0.2-1-0.3-1.6-0.4
		c-4.1,1.2-10,0.7-14,2.7c-0.4,0.1-0.9,0.2-1.3,0.3c-0.1,0.1-0.3,0.1-0.4,0.2c-0.5,0-1-0.1-1.5-0.2c-1.4-0.1-2.8-0.6-4.4-1.5
		c-1.5-0.8-3-1.7-4.6-2.6c-3.8-2.2-8-4.6-12.7-6.1c-0.4-0.1-0.8-0.3-1.1-0.5c-0.4-0.3-0.7-0.4-1.1-0.5c-0.3,0-0.5-0.1-0.7-0.1
		c-0.9,0-1.8,0.3-2.5,0.9c-1.5,1.2-3.7,1.4-6.3,1.6c-4.1,0.4-9.7,0.9-13.3,6.4c-0.1,0.2-0.2,0.2-0.2,0.3c-1.3,0.3-2.4,1.3-2.9,2.6
		c0,0.1-0.1,0.2-0.1,0.3c-1.1,0.1-2.2,0.6-2.9,1.5c-0.5,0.6-0.8,1.2-0.9,1.9c-0.5,0.2-0.9,0.4-1.4,0.6c-1.3,0.6-2.6,1.1-3.6,1.1
		c-0.4,0-1.1,0-2.5-1.3c0,0,0,0,0,0c-0.1-0.1-0.3-0.3-0.5-0.5c-0.1-0.2-0.3-0.3-0.4-0.4c-0.1-0.1-0.2-0.1-0.2-0.2
		c-0.7-0.5-1.4-0.7-2.2-0.7c-0.7,0-1.4,0.1-2,0.5c-1.6,0.9-2.4,2.8-1.9,4.6c0.1,0.6,0.3,1.1,0.4,1.6c0.2,0.5,0.3,1.1,0.5,1.6
		c0.7,2.6,1.5,4.7,2.9,6.6c0.2,0.2,0.4,0.5,0.6,0.7c-3.5,5.2-5.2,10.3-5.1,15.5c0,1.1,0.1,2.1,0.2,3.2
		c-11.2,10.3-13.2,25.3-8.3,39.4c0.3,1,0.7,1.9,1.1,2.8c0.4,0.9,0.9,1.8,1.4,2.6c1.9,2.8,2,5.6,2.2,9.1v0.7c0.1,1.5-0.4,3.3-0.9,5.2
		c-0.5,2-1.1,4.1-1.1,6.3c0,1,0,1.9,0,2.9c0,2.9,0.1,5.7-0.6,8.4c-0.5,2-0.1,3.9,1,5.4c1.1,1.5,2.9,2.3,4.9,2.3c0.3,0,0.7-0.1,1-0.1
		c0.5-0.1,1.1-0.1,1.7-0.1c1.3,0,2.6,0.2,4,0.4s2.8,0.6,4.3,1c19-2,43-4,42.5,21.6c0.8,1.2,1.2,2.6,1.4,4c0.3,1.5,0.4,3,0.5,4.7
		c0.2,2.9,0.3,6,1.4,9.1c1.6,4.9,4.5,7.2,9,7.2c0.4,0,0.9,0,1.8-0.4c2.3-0.1,5.7-0.6,9.2-2.6c1.4-0.8,2.6-1.2,3.6-1.2
		c0.8,0,1.6,0.2,2.4,0.8c0.7,0.5,1.5,0.7,2.3,0.7c0.8,0,1.7-0.3,2.4-0.8c0.3-0.3,0.7-0.5,1-0.6c0.3-0.1,0.6-0.2,0.9-0.4
		c0.5-0.3,0.9-0.6,1.2-1c0-0.1,0.1-0.1,0.1-0.2c0.5-1.1,0.9-2.5,1.3-4.6c0.3-1.6,0.6-3.3,1.2-5c0.1-0.3,0.3-0.8,0.5-1.3
		c0.4-1,1-2.3,2.3-3.2c0.3-0.3,0.7-0.7,0.9-1.1c0.1-0.3,0.4-0.6,0.6-0.8c0.5-0.5,1.1-0.8,1.7-1c1.4-0.4,2.5-1.6,2.8-3.1
		c0-0.1,0.1-0.2,0.1-0.3c0.1-0.4,0.2-0.7,0.3-1.1c1.4-4.9,4.5-8.4,9.2-10.1c1-0.4,2.1-0.9,3.2-1.5c0.2-0.1,0.4-0.2,0.6-0.3h0.1
		c0.4-0.2,0.8-0.4,1.2-0.6c0.9-0.5,1.7-1.4,2-2.4c0.2-0.7,0.7-1.4,1.3-1.9c2.3-1.8,4.8-3.3,7-4.6c4.2-2.6,8-4.8,9.8-8.6
		c0.2-0.3,0.4-0.7,0.6-1.2c0.2-0.6,0.5-1.2,1-1.6c0.1-0.1,0.3-0.3,0.4-0.4c1.9-1.4,3-3.7,4.3-6.3c1.1-2.1,2.2-4.5,4-6.7
		c0-0.2-0.1-0.5-0.1-0.8c0.1-0.3,0.1-0.6,0.1-0.9c0-0.4,0-0.9,0.1-1.3c0.2-0.9,0.6-1.8,1.4-2.6c0.3-0.3,0.7-0.7,1-1
		c2.2-2.2,3.4-3.6,3.6-5.2c0.1-0.3,0.1-0.5,0.1-0.8c0-0.3,0-0.7-0.1-1.1c-0.1-0.5-0.1-0.9-0.1-1.4c0.3-1.5,1.2-2.8,2.2-3.5
		c0.1-0.1,0.4-0.5,0.8-1.1c0.5-0.5,1-1.1,1.7-2.1c0.6-0.8,1.4-1.8,2.3-2.8c1.3-1.4,3-2.8,5.3-3.4c1.2-0.3,2.1-1.2,2.6-2.3v0.1
		c0.1-0.1,0.1-0.3,0.2-0.4c0.7-1.4,1.5-2.6,2.6-3.6c0.5-0.5,1.1-0.9,1.6-1.3c-5.2-1.4-28.8-12.2-31.2-13.8
		C586.9,659.5,585.5,658.6,584.2,657.9z"/>
</g>
<g>
	<path class="st1" d="M625.3,489.5c0.1,0.2,0.2,0.4,0.2,0.7c0.3,0.7,0.6,1.2,0.9,1.9c0,0,0-0.1,0-0.1
		C625.9,491.2,625.6,490.4,625.3,489.5z"/>
	<path class="st1" d="M751.2,425.5c-0.1-0.4-0.2-0.7-0.3-1c-0.1-0.1-0.3-0.2-0.4-0.4c-0.2-0.3-0.5-0.6-0.8-0.8
		c-0.2-0.1-0.4-0.3-0.8-0.4h-0.1c-0.3-0.1-0.7-0.2-1-0.3c-0.5,0-0.9-0.2-1.3-0.4c-0.1,0-0.1,0-0.2,0c-0.3,0-0.5,0.1-0.8,0.1
		c-0.5,0.1-0.9,0.1-1.3,0.1c-0.1,0-0.1,0-0.2,0c-1-0.1-1.8-0.2-2.7-0.4c-0.4-0.2-0.8-0.5-1.3-0.7c-2.7-0.6-4.4-2.3-5.5-4.2
		c-1.8-2-2.9-4.3-2.4-6.8c0.1-0.6,0.2-1.2,0.1-1.8c-0.5-1.6-1.1-3.1-1.8-4.3c-0.6-0.7-1.2-1.4-1.8-2.1c-0.5-0.5-0.9-1.1-1.4-1.7
		c-0.3-0.2-0.5-0.4-0.8-0.6c-3.4-2.5-4.6-6.7-4.2-10.7c0.1-3.1,1-6.2,2.8-8.8c1-1,3-1,4.2-2c1.5-0.4,2.6-1.1,3.4-1.8
		c0.1-0.1,0.2-0.2,0.3-0.3c0.5-0.7,0.9-1.4,1.2-2.3c0.5-1.6,0.3-3.2,0.2-4.4v-0.1c0-0.2,0-0.3,0-0.5c0-0.1,0-0.2,0-0.3
		c0-1.6-0.6-3.1-1.7-4.2c-0.6-0.7-1.3-1.2-2.2-1.5c-2,0.1-4,0-6-0.4c-4-0.4-7.8-1.6-10.7-4c-0.9-0.7-1.7-1.5-2.3-2.5
		c-5.2-11.5-0.5-23.2,0.2-35.9c0-0.1,0-0.3,0-0.4c0-1-0.1-2.1-0.3-3.1c-0.2-1.1-0.4-2.1-0.8-3.2c0-0.1,0-0.1,0-0.2
		c-0.2-0.7-0.2-1.4-0.3-3c-0.1-1.6-0.2-3.2-0.6-4.7c-3.5-8.1-13.5-9.1-22.5-12.1c-0.9-0.2-1.6-0.6-2-1.1c-3.4-0.2-6.5,0.7-8.8,3.8
		c-0.3,1-0.4,2.1-0.2,3.3c0.5,1.9,1,3.7,1.4,5.5c5,5.6,7.1,12.1,1.6,18.5c-0.3,0.6-0.9,1.1-1.6,1.7c-0.4,0.8-0.9,1.6-1.5,2.4
		c-0.2,0.1-0.4,0.2-0.6,0.3c-0.9,1.9-1.8,3.8-3.4,4.6c-1,0-2,0.1-3,0.2c-0.6,0.1-1.2,0.2-1.8,0.4c-0.4,0.3-0.7,0.6-1.1,1
		c-4.5,6.5-8.9,13.4-9,20.9c0,1.1,0.2,2.2,0.3,3.2c0.4,1.2,0.9,2.5,1.5,3.7c0.6,1.2,1.4,2.3,2.3,3.4c0,0.9-0.1,1.8-0.3,2.7
		c-0.9,4.5-3.3,8.5-5.8,12.7c-0.6,1-1.2,2-1.8,3c-1.1,2-2.2,3.1-3.8,3.5c-1.1,0.3-2,1.1-2.5,2.1c-0.8,1.7-2,3.3-3.3,5
		c-2.2,2.9-4.8,6.3-5.6,10.7c-0.3,1.2-0.6,2.5-1.1,3.9c-0.4,1.2-1,2.4-1.6,3.8c-0.4,0.8-0.8,1.6-1.2,2.4c-0.3,0.4-0.5,0.9-0.7,1.3
		c-0.1,0.2-0.1,0.3-0.2,0.5l-1.1,2c0,0.1-0.1,0.2-0.1,0.3c-0.1,0.2-0.1,0.3-0.2,0.4c0,0.1-0.1,0.2-0.1,0.3l-0.1,0.5
		c-3,9.2-6.1,19.2-8.2,29.7c-0.2,0.8-0.3,1.5-0.3,2.2c-0.3,2.9,0.1,5.5,0.3,7.9c0.2,1.7,0.4,3.2,0.4,4.7c0,0.5,0,1-0.1,1.6
		c-0.1,0.8-0.1,1.5-0.2,2.3c0,2.2,0.3,4.3,0.6,6.3c0.1,0.4,0.1,0.8,0.2,1.3c0,0.2,0,0.3,0.1,0.5c0.2,1.5,0.3,2.9,0.2,4.2
		c0,0.2,0,0.4-0.1,0.6c0,0.1,0,0.2,0,0.4c-0.4,2.5-0.3,4.6,0.2,6.7c0.8-1.1,2.1-1.7,3.5-1.7h0.1c1,0,1.7,0.1,2.4,0.1
		c2.4,0.2,3.5,0.5,4.5,1c0.2,0.1,0.5,0.2,0.9,0.3c0.4,0.2,0.9,0.3,1.3,0.4c3.7,1,7.2,2.9,10.8,5.1c2.7,1.6,5.9,3.5,9.3,4.9
		c0.5,0.2,1.1,0.3,1.6,0.3c0.8,0,1.5-0.2,2.2-0.5c1.2-0.7,2-1.9,2.2-3.2c0.1-0.5,0.1-1.1,0.1-1.4v-0.5c0-0.3,0.1-0.7,0.2-1l0.2-0.5
		c0.7-1.7,2.3-2.8,4.1-2.8c0.2,0,0.3,0,0.5,0c0.3,0,0.7,0.1,1,0.1s0.7,0.1,1,0.1c0.4,0,0.8,0,1.2-0.1c0.3-0.1,0.5-0.1,0.9-0.1
		c0.9,0,1.9,0.3,2.6,0.9c0.2,0.1,0.4,0.3,0.7,0.4c0.2,0.1,0.4,0.3,0.7,0.4c0.5,0.4,1.1,1.1,1.9,2c2.1,2.3,4.8,5.6,9.5,5.6
		c0.9,0,1.7-0.1,2.7-0.3c0.3-0.1,0.8-0.1,1.1-0.1c0.8,0,1.5,0.2,2.2,0.7c1.5,0.9,3.1,1.4,4.4,1.9c1,0.3,1.7,0.5,2.4,0.9
		c0.5,0.2,1,0.5,1.3,1c0.8,0.8,1.8,1.3,3,1.4c0,0,0,0,0,0c0,0,0.1,0,0.1,0.1c0.1,0,0.1,0,0.2,0c0.4,0,0.9-0.1,1.3-0.2
		c1.2-0.3,2.2-1.2,2.7-2.3c0.8-1.5,2.3-2.5,3.9-2.5c0.2,0,0.4,0,0.5,0c0.5,0.1,1.1,0.1,1.7,0.1c1.3,0,2.7-0.2,4.1-0.5
		c3.3-0.9,5.8-2.5,8.1-3.9c1.6-1,3.2-2,4.7-2.5c0.4-0.2,1-0.2,1.5-0.2h0.9c0.3,0,0.6,0,1,0c0,0,0,0,0,0c0.4,0,0.7-0.1,1.1-0.2
		c0.1-0.2,0.1-0.3,0.2-0.5l0.1-0.1c1.9-3.8,3.4-7.5,0.7-11.6c-2.2-3.4-1.5-7.1-0.6-11.4c0.3-1.3,0.5-2.6,0.7-3.9
		c0-0.2,0.1-0.4,0.1-0.7c0.3-1.6,0.5-3.3-0.7-5c-0.5-0.7-1.2-1.3-2-1.7c-0.6-0.3-1.1-0.7-1.4-1.3c-0.3-0.1-0.5-0.1-0.8-0.1
		c-0.5-0.1-0.8-0.5-1.5-2.2c0.5-0.3,1-0.7,1.4-1.2c0.4-0.4,0.7-0.9,0.9-1.4c0.1-0.3,0.2-0.5,0.4-0.7l0.2-0.4c0,0,0,0,0-0.1
		c0,0,0-0.1,0.1-0.1c0,0,0.1-0.1,0.1-0.1c0,0,0-0.1,0.1-0.1c0.1-0.2,0.2-0.4,0.2-0.5c0.9-1.4,1.7-2.9,2.5-4.4c2.1-4,4-7.4,7.5-9.1
		l0.3-0.1c0.4-0.2,0.7-0.3,1-0.4c0.6-0.2,1.2-0.6,1.7-1.1l0.3-0.3c0.6-0.7,1.4-1.6,2-2.8C751.2,428.6,751.4,427.1,751.2,425.5z"/>
</g>
<path class="st3" d="M676.4,582.9c0.5,0,1,0,1.4,0.1c1-0.1,2-0.1,3.4-0.1c1,0,2,0,3,0c1.1,0,2.2,0,3.3,0c4.1,0,7.1,0,9.4-0.4
	c6.7-1.1,8.4-5.4,9.8-9l0.5-1.5c1.5-3.9,1.1-7.5-1-10.3c-2.2-2.7-5.7-4.3-10.1-4.4c-2.2-0.1-4.5-0.1-7.2-0.1c-2.2,0-4.4,0-6.5,0
	c-1.4,0-2.7,0-4.1,0c0,0-0.7,0-1,0c-6,0-7.4,3.9-7.6,5.2c-1,4.1-1.6,7.7-2,11.3c-0.3,2.8,0.4,5,2,6.8
	C670.9,581.6,672.9,582.9,676.4,582.9z"/>
</svg>
