<!-- Generator: Adobe Illustrator 19.1.0, SVG Export Plug-In  -->
<svg version="1.1"
	 xmlns="http://www.w3.org/2000/svg" xmlns:xlink="http://www.w3.org/1999/xlink" xmlns:a="http://ns.adobe.com/AdobeSVGViewerExtensions/3.0/"
	 x="0px" y="0px" width="89.063px" height="90.539px" viewBox="0 0 89.063 90.539"
	 style="enable-background:new 0 0 89.063 90.539;" xml:space="preserve">
<style type="text/css">
	.st0{fill:#FFFFFF;}
</style>
<defs>
</defs>
<g>
	<g>
		<path class="st0" d="M57.012,68.654V4.506c0-2.488-2-4.506-4.466-4.506H4.465C1.999,0,0,2.017,0,4.506v64.149
			c0,2.489,1.999,4.505,4.465,4.505h48.08C55.012,73.16,57.012,71.143,57.012,68.654z M24.978,16.871h2.276
			c0,0.577,0.124,0.992,0.374,1.246c0.249,0.254,0.572,0.38,0.969,0.38c0.332,0,0.583-0.098,0.754-0.293
			c0.171-0.195,0.256-0.452,0.256-0.768c0-0.368-0.089-0.652-0.264-0.855c-0.174-0.202-0.487-0.402-0.934-0.597
			c-1.089-0.437-1.88-0.88-2.376-1.33c-0.496-0.449-0.744-1.108-0.744-1.978c0-0.786,0.263-1.434,0.789-1.944
			c0.525-0.51,1.227-0.806,2.102-0.89V8.37h1.1v1.5c0.83,0.121,1.488,0.465,1.971,1.033c0.485,0.568,0.719,1.292,0.706,2.171
			l-0.014,0.035h-2.29c0-0.507-0.097-0.885-0.29-1.134c-0.194-0.249-0.452-0.374-0.775-0.374c-0.328,0-0.57,0.102-0.726,0.307
			c-0.157,0.205-0.235,0.465-0.235,0.781c0,0.321,0.085,0.582,0.252,0.782c0.169,0.2,0.483,0.402,0.945,0.607
			c1.07,0.461,1.855,0.921,2.358,1.379c0.502,0.458,0.755,1.113,0.755,1.965c0,0.81-0.253,1.461-0.758,1.954
			c-0.505,0.493-1.184,0.784-2.037,0.872v1.403h-1.1v-1.41c-0.895-0.089-1.637-0.404-2.227-0.945
			c-0.59-0.542-0.876-1.337-0.858-2.383L24.978,16.871z M16.774,16.871h2.276c0,0.577,0.124,0.992,0.373,1.246
			c0.25,0.254,0.573,0.38,0.969,0.38c0.331,0,0.583-0.098,0.754-0.293c0.171-0.195,0.256-0.452,0.256-0.768
			c0-0.368-0.089-0.652-0.263-0.855c-0.175-0.202-0.486-0.402-0.933-0.597c-1.089-0.437-1.88-0.88-2.376-1.33
			c-0.495-0.449-0.744-1.108-0.744-1.978c0-0.786,0.263-1.434,0.789-1.944c0.526-0.51,1.227-0.806,2.103-0.89V8.37h1.099v1.5
			c0.831,0.121,1.488,0.465,1.972,1.033c0.485,0.568,0.719,1.292,0.705,2.171l-0.014,0.035h-2.29c0-0.507-0.096-0.885-0.29-1.134
			c-0.194-0.249-0.452-0.374-0.775-0.374c-0.328,0-0.57,0.102-0.726,0.307c-0.157,0.205-0.235,0.465-0.235,0.781
			c0,0.321,0.085,0.582,0.252,0.782c0.169,0.2,0.483,0.402,0.945,0.607c1.07,0.461,1.855,0.921,2.358,1.379
			c0.503,0.458,0.755,1.113,0.755,1.965c0,0.81-0.253,1.461-0.758,1.954c-0.504,0.493-1.184,0.784-2.037,0.872v1.403h-1.099v-1.41
			c-0.895-0.089-1.637-0.404-2.228-0.945c-0.59-0.542-0.876-1.337-0.857-2.383L16.774,16.871z M8.571,16.871h2.276
			c0,0.577,0.124,0.992,0.373,1.246c0.25,0.254,0.573,0.38,0.969,0.38c0.331,0,0.583-0.098,0.754-0.293
			c0.171-0.195,0.256-0.452,0.256-0.768c0-0.368-0.088-0.652-0.263-0.855c-0.175-0.202-0.487-0.402-0.934-0.597
			c-1.089-0.437-1.881-0.88-2.376-1.33c-0.495-0.449-0.744-1.108-0.744-1.978c0-0.786,0.263-1.434,0.789-1.944
			c0.525-0.51,1.227-0.806,2.103-0.89V8.37h1.099v1.5c0.831,0.121,1.488,0.465,1.972,1.033c0.485,0.568,0.719,1.292,0.705,2.171
			l-0.014,0.035h-2.29c0-0.507-0.097-0.885-0.29-1.134c-0.193-0.249-0.452-0.374-0.775-0.374c-0.328,0-0.569,0.102-0.726,0.307
			c-0.157,0.205-0.236,0.465-0.236,0.781c0,0.321,0.085,0.582,0.252,0.782c0.169,0.2,0.483,0.402,0.945,0.607
			c1.07,0.461,1.855,0.921,2.358,1.379c0.503,0.458,0.755,1.113,0.755,1.965c0,0.81-0.253,1.461-0.758,1.954
			c-0.505,0.493-1.184,0.784-2.037,0.872v1.403h-1.099v-1.41c-0.895-0.089-1.637-0.404-2.228-0.945
			c-0.59-0.542-0.876-1.337-0.857-2.383L8.571,16.871z M8.077,29.577h23.401v2.538H8.077V29.577z M10.607,64.463H8.164V47.106h2.442
			V64.463z M14.074,64.463h-2.442V47.106h2.442V64.463z M17.541,64.463h-2.443V47.106h2.443V64.463z M21.009,64.463h-2.443V47.106
			h2.443V64.463z M28.622,64.463H26.18V47.106h2.442V64.463z M32.24,64.463h-2.442V47.106h2.442V64.463z M35.859,64.463h-2.443
			V47.106h2.443V64.463z M39.476,64.463h-2.442V47.106h2.442V64.463z M44.927,64.463h-2.441V47.106h2.441V64.463z M48.846,64.463
			h-2.441V47.106h2.441V64.463z M48.935,26.493H8.077v-2.538h40.858V26.493z M88.72,24.613c-0.535-1.545-1.634-2.788-3.096-3.499
			L60.029,8.658v3.6l24.199,11.777c0.688,0.335,1.206,0.92,1.457,1.647c0.252,0.728,0.208,1.51-0.124,2.204L57.937,85.665
			c-0.481,1.006-1.468,1.631-2.577,1.631c-0.431,0-0.848-0.097-1.239-0.287l-20.502-9.978H26.22L52.724,89.93
			c0.831,0.404,1.718,0.609,2.636,0.609c2.318,0,4.466-1.36,5.473-3.466l27.624-57.778C89.161,27.821,89.255,26.158,88.72,24.613z"
			/>
	</g>
</g>
</svg>