<!-- Generator: Adobe Illustrator 19.1.0, SVG Export Plug-In  -->
<svg version="1.1"
	 xmlns="http://www.w3.org/2000/svg" xmlns:xlink="http://www.w3.org/1999/xlink" xmlns:a="http://ns.adobe.com/AdobeSVGViewerExtensions/3.0/"
	 x="0px" y="0px" width="89.315px" height="75.359px" viewBox="0 0 89.315 75.359"
	 style="enable-background:new 0 0 89.315 75.359;" xml:space="preserve">
<style type="text/css">
	.st0{fill:#FFFFFF;}
</style>
<defs>
</defs>
<g>
	<g>
		<path class="st0" d="M66.332,44.399l-0.629,0.13v3.558l0.629-0.13c0.346-0.072,0.616-0.244,0.811-0.519
			c0.194-0.275,0.292-0.604,0.292-0.99v-1.003c0-0.383-0.098-0.671-0.292-0.864C66.948,44.389,66.678,44.328,66.332,44.399z
			 M77.643,30.274l-0.929,3.366l1.902-0.392l-0.936-2.982L77.643,30.274z M79.19,41.668c-0.351,0.073-0.62,0.254-0.805,0.544
			c-0.186,0.29-0.279,0.634-0.279,1.033v1.003c0,0.4,0.094,0.707,0.283,0.922c0.188,0.215,0.457,0.286,0.808,0.214
			c0.341-0.07,0.604-0.252,0.791-0.543c0.187-0.292,0.281-0.638,0.281-1.039v-1.003c0-0.395-0.094-0.7-0.282-0.915
			C79.799,41.67,79.533,41.597,79.19,41.668z M85.539,4.217L75.082,6.985V4.293c0-1.539-0.776-3.016-1.978-3.761
			c-1.075-0.667-2.348-0.708-3.586-0.115c-0.871,0.418-4.954,2.476-9.665,4.859V4.293c0-1.783-0.705-3.181-1.841-3.647
			c-0.535-0.219-1.617-0.408-2.851,0.811c-1.208,1.195-7.388,7.461-10.538,10.659V1.071c0-0.59-0.484-1.069-1.08-1.069
			c-0.596,0-1.08,0.478-1.08,1.069v11.044c-3.15-3.197-9.329-9.464-10.537-10.658c-1.233-1.218-2.315-1.03-2.85-0.811
			c-1.136,0.466-1.841,1.863-1.841,3.647v0.982c-4.71-2.383-8.794-4.441-9.665-4.859c-1.236-0.593-2.51-0.553-3.586,0.115
			c-1.203,0.745-1.979,2.222-1.979,3.761v2.102L3.776,4.217C1.69,4.217,0,5.89,0,7.954v53.201c0,2.064,1.69,3.737,3.776,3.737
			l39.548,10.468V19.002c0-0.729,0.597-1.32,1.333-1.32s1.333,0.591,1.333,1.32v56.356l39.548-10.468
			c2.086,0,3.776-1.672,3.776-3.737V7.954C89.315,5.89,87.625,4.217,85.539,4.217z M29.396,4.293c0-1.026,0.363-1.612,0.493-1.669
			c0.042,0.001,0.227,0.065,0.512,0.346c0.904,0.894,4.629,4.666,7.757,7.839c-2.588-1.312-5.721-2.901-8.762-4.44V4.293z
			 M14.166,6.967V4.293c0-0.808,0.388-1.591,0.966-1.949c0.436-0.27,0.938-0.271,1.498-0.003c1.613,0.773,14.865,7.49,21.967,11.093
			L14.166,6.967z M56.689,2.97c0.284-0.28,0.469-0.345,0.497-0.348c0.145,0.06,0.508,0.646,0.508,1.672v2.075
			c-3.042,1.539-6.175,3.128-8.763,4.44C52.059,7.636,55.784,3.864,56.689,2.97z M70.459,2.341c0.559-0.268,1.062-0.267,1.497,0.003
			c0.578,0.358,0.965,1.142,0.965,1.949v3.263l-26.857,7.109C51.935,11.686,68.637,3.215,70.459,2.341z M72.657,28.913v8.871
			l-2.074,0.428v-8.871L72.657,28.913z M59.051,50.447l-1.303,0.268v-1.372l0.124-2.553l-0.023,0.001l-1.348,4.181l-0.876,0.181
			l-1.332-3.595l-0.023,0.009l0.123,2.468v1.372l-1.302,0.268v-5.534l1.705-0.352l1.252,3.615l0.023-0.005l1.267-4.134l1.713-0.353
			V50.447z M59.127,40.294c-0.578,0.391-1.305,0.677-2.179,0.857c-1.108,0.228-2.008,0.077-2.699-0.455
			c-0.692-0.531-1.038-1.335-1.038-2.412v-1.852c0-1.068,0.337-2.011,1.013-2.828c0.676-0.818,1.544-1.336,2.607-1.555
			c1.153-0.238,2.017-0.152,2.592,0.258c0.574,0.409,0.901,1.063,0.979,1.961l-0.012,0.039l-1.952,0.403
			c-0.069-0.453-0.223-0.773-0.458-0.96c-0.236-0.187-0.595-0.23-1.08-0.13c-0.484,0.1-0.874,0.37-1.169,0.811
			c-0.296,0.441-0.443,0.962-0.443,1.563v1.864c0,0.618,0.146,1.084,0.437,1.4c0.291,0.315,0.699,0.419,1.225,0.311
			c0.382-0.079,0.682-0.171,0.898-0.276c0.218-0.106,0.39-0.223,0.517-0.351V37.54l-1.41,0.29v-1.365l3.496-0.721v3.333
			C60.147,39.497,59.706,39.903,59.127,40.294z M63.821,44.918l-2.592,0.534v1.19l2.192-0.452v0.988l-2.192,0.452v1.38l2.584-0.533
			v0.989l-3.886,0.801v-5.534l3.894-0.803V44.918z M61.078,44.099l0.791-1.174l1.337-0.276l0.007,0.021l-1.076,1.21L61.078,44.099z
			 M68.736,46.18c0,0.666-0.221,1.257-0.664,1.772c-0.443,0.514-0.993,0.84-1.651,0.975l-2.02,0.416v-5.534l2.02-0.416
			c0.658-0.136,1.208-0.037,1.651,0.296c0.443,0.334,0.664,0.832,0.664,1.496V46.18z M69.074,35.465
			c0,1.012-0.339,1.865-1.019,2.562c-0.679,0.697-1.568,1.158-2.669,1.385c-1.112,0.229-2.009,0.136-2.69-0.28
			c-0.682-0.416-1.022-1.13-1.022-2.141v-5.812l2.087-0.431v5.813c0,0.544,0.141,0.918,0.424,1.122
			c0.283,0.204,0.684,0.252,1.2,0.146c0.513-0.106,0.908-0.317,1.186-0.634c0.277-0.317,0.415-0.75,0.415-1.298v-5.812l2.086-0.43
			V35.465z M70.922,47.999l-1.294,0.267v-5.534l1.294-0.267V47.999z M76.248,43.339l-1.263,0.26c-0.018-0.356-0.1-0.607-0.244-0.752
			c-0.145-0.145-0.391-0.182-0.74-0.11c-0.294,0.061-0.526,0.226-0.696,0.495c-0.168,0.269-0.254,0.594-0.254,0.974v1.163
			c0,0.383,0.093,0.673,0.277,0.871c0.184,0.198,0.438,0.263,0.76,0.197c0.312-0.065,0.533-0.193,0.664-0.384
			c0.13-0.192,0.204-0.47,0.223-0.833l1.264-0.26l0.007,0.021c-0.026,0.653-0.219,1.189-0.582,1.606
			c-0.363,0.417-0.887,0.696-1.576,0.839c-0.691,0.143-1.253,0.048-1.686-0.284c-0.432-0.331-0.648-0.833-0.648-1.504v-1.155
			c0-0.669,0.208-1.257,0.623-1.765c0.416-0.508,0.958-0.831,1.623-0.968c0.706-0.146,1.247-0.081,1.621,0.194
			c0.373,0.275,0.585,0.732,0.634,1.371L76.248,43.339z M81.563,43.536c0,0.682-0.217,1.288-0.655,1.821
			c-0.436,0.532-1.006,0.871-1.71,1.016c-0.709,0.146-1.284,0.044-1.724-0.308c-0.44-0.352-0.66-0.868-0.66-1.549v-0.996
			c0-0.679,0.219-1.285,0.658-1.819c0.439-0.534,1.012-0.874,1.719-1.02c0.701-0.144,1.272-0.04,1.712,0.313
			c0.44,0.352,0.66,0.868,0.66,1.547V43.536z M79.589,36.355l-0.51-1.618l-2.826,0.583l-0.505,1.828l-2.093,0.432l2.893-9.467
			l2.235-0.461l2.899,8.273L79.589,36.355z"/>
	</g>
</g>
</svg>