<!-- Generator: Adobe Illustrator 19.1.0, SVG Export Plug-In  -->
<svg version="1.1"
	 xmlns="http://www.w3.org/2000/svg" xmlns:xlink="http://www.w3.org/1999/xlink" xmlns:a="http://ns.adobe.com/AdobeSVGViewerExtensions/3.0/"
	 x="0px" y="0px" width="103.23px" height="68.434px" viewBox="0 0 103.23 68.434"
	 style="enable-background:new 0 0 103.23 68.434;" xml:space="preserve">
<style type="text/css">
	.st0{fill-rule:evenodd;clip-rule:evenodd;fill:#FFFFFF;}
</style>
<defs>
</defs>
<g>
	<g>
		<path class="st0" d="M51.143,8.605c-0.151-0.084-0.283-0.12-0.416-0.13c-1.428-0.107-2.855-0.256-4.286-0.305
			c-5.458-0.19-10.917-0.351-16.375-0.506c-0.3-0.009-0.625,0.074-0.902,0.197c-8.615,3.827-16.921,8.253-25.073,12.981
			C2.718,21.638,1.354,22.453,0,23.253c3.606,2.667,7.175,5.306,10.787,7.977c6.109-4.022,12.375-7.933,18.799-11.583
			c0.037,0.034,0.074,0.068,0.112,0.102c-0.063,0.135-0.117,0.278-0.193,0.406c-3.515,5.884-6.622,11.989-9.74,18.088
			c-0.182,0.355-0.114,0.542,0.176,0.788c1.141,0.966,2.284,1.931,3.38,2.948c8.173,7.59,16.339,15.188,24.5,22.793
			c1.278,1.192,2.519,2.424,3.804,3.663c6.657-6.348,13.282-12.668,19.961-19.04C58.192,38.638,44.508,28.44,29.764,19.549
			C36.784,15.541,43.878,11.915,51.143,8.605z M103.021,23.085c-5.622-3.354-11.291-6.624-17.157-9.537
			c-0.232-0.115-0.627-0.096-0.861,0.025c-3.873,2.004-7.802,3.913-11.581,6.083c-7.303,4.192-14.214,8.998-21.045,13.916
			c-0.16,0.116-0.315,0.243-0.55,0.424c2.22,0.363,4.308,0.697,6.394,1.046c7.819,1.307,15.59,2.856,23.311,4.651
			c0.617,0.143,0.997-0.006,1.46-0.386c4.58-3.778,9.154-7.562,13.786-11.275c2.068-1.658,4.261-3.159,6.452-4.771
			C103.137,23.181,103.085,23.123,103.021,23.085z M73.427,19.323c0.505-3.542,1.005-7.084,1.516-10.625
			c0.053-0.362-0.095-0.522-0.412-0.659c-7.293-3.143-14.696-5.977-22.398-7.967c-0.358-0.092-0.79-0.103-1.139,0.006
			C47.282,1.23,43.581,2.413,39.878,3.59c-0.166,0.053-0.325,0.129-0.607,0.242c12.002,3.995,23.346,9.108,34.063,15.611
			C73.404,19.354,73.425,19.34,73.427,19.323z M47.941,12.796c-2.634,0.449-5.108,1.304-7.117,3.158
			c-1.309,1.206-2.088,2.663-1.753,4.519c0.308,1.71,1.404,2.878,2.769,3.81c2.901,1.982,6.196,2.573,10.36,2.683
			c0.854-0.119,2.441-0.257,3.992-0.576c2.24-0.46,4.318-1.342,6.031-2.921c2.392-2.205,2.442-5.062,0.158-7.359
			c-1.194-1.2-2.646-1.97-4.216-2.523C54.83,12.413,51.411,12.205,47.941,12.796z"/>
	</g>
</g>
</svg>