<?xml version="1.0" encoding="utf-8"?>
<!-- Generator: Adobe Illustrator 20.1.0, SVG Export Plug-In . SVG Version: 6.00 Build 0)  -->
<svg version="1.1" id="Camada_1" xmlns="http://www.w3.org/2000/svg" xmlns:xlink="http://www.w3.org/1999/xlink" x="0px" y="0px" width="99.887px" height="72.449px"
	 viewBox="0 0 99.9 72.4" style="enable-background:new 0 0 99.9 72.4;" xml:space="preserve">
<style type="text/css">
	.st0{fill:#FFFFFF;}
</style>
<g>
	<g>
		<path class="st0" d="M94.6,26.8c-0.8,3-2.3,5.6-4.4,7.6l-0.1,0.1c-3.4,3.2-7.5,4.9-12,4.9c-4.8,0-8.8-1.6-12.1-4.9
			c-3.2-3.2-4.9-7.3-4.9-12.1c0-4.7,1.6-8.7,4.9-11.9c3.3-3.3,7.4-5,12.1-5c2.8,0,5.4,0.6,7.7,1.8L90,9.4l-8.1,8.1h17.6V0l-6,6
			l-2.4-1.7C87.4,1.4,83,0,78.1,0c-6.2,0-11.5,2.2-15.9,6.5c-4.4,4.3-6.6,9.7-6.6,15.8s2.2,11.5,6.6,15.8c4.4,4.3,9.7,6.5,15.9,6.5
			c6.2,0,11.5-2.2,15.9-6.5c2.9-2.9,4.9-6.5,5.9-10.6L94.6,26.8z M50.5,22.4c0-0.2,0-0.5,0-0.7l-43.5,0c-3.9,0-7,3.1-7.1,7l0,36.7
			c0,3.9,3.1,7,7,7l63.9,0c3.9,0,7-3.1,7.1-7L78,50c-7.6,0-14.1-2.7-19.4-8.1C53.3,36.6,50.5,30,50.5,22.4z M41.4,30.9l1.4,0
			l0.1,7.1l3,0l0,0c0.4,0,0.3,0.2,0.3,1.1l0,0c-0.9,0-1.3,0-2.2,0v0l-3.2,0l0-7.5C40.7,31,40.8,30.9,41.4,30.9z M35,32.9
			c0.7-1.6,1-2.4,1.3-2.5h0c0.3,0,0.6,0.9,1.3,2.6l2.8,6.1c-0.7,0-1.3,0-2,0c-0.2-0.5-0.5-1-0.7-1.5l-2.5,0c-1.1,0-1,0-1.4,1
			l-0.2,0.5l-1.3,0L35,32.9z M27.2,30.9l4.1,0c0,1.1,0,1-0.6,1l-1.6,0c-0.5,0-0.5-0.1-0.5,0.5l0,1.9l1.7,0c0,1.3,0.3,1.2-1.7,1.2
			l0,2.7c0.9,0,1.8,0,2.7,0c0.7,0,0.6,0,0.6,1.1h0l0,0c-1.8,0-3.6,0-5.4,0l0-1.5l0-6C26.5,31,26.6,30.9,27.2,30.9z M19.9,30.9
			c0.8,0,2,0,2.8,0.1c1.8,0.2,3,1.1,2.8,3c-0.1,0.9-0.6,1.8-1.5,2c0.6,0.8,1.4,2,2.2,2.6v0.7c-2.5,0-2.4-0.1-3.8-2.1
			c-0.5-0.7-0.5-0.9-0.5-1.7c2.6-0.4,2.1-3.6-0.2-3.4c-0.4,0-0.3,0.6-0.3,1l0,6.2l-2.1,0l0-7.3C19.2,31.1,19.2,30.9,19.9,30.9z
			 M7.5,39.2c0.4-4.2,4.2-7.8,9.9-8.2c0.3,0,0.4,0.1,0.2,0.3c-0.2,0.2-0.3,0.4-0.5,0.5c-0.4,0.4-0.8,0.7-1.1,1.4
			c-0.1,0.3-0.3,0.6-0.3,0.9c-0.2,0.7-0.2,1.5,0.1,2.2c0.8,2,0.1,2.8-1,2.9c-1.3,0.1-3-0.3-4.5-0.2c-0.8,0-1.5,0.1-2.2,0.3
			C7.7,39.6,7.4,39.9,7.5,39.2z M35.3,62.9l-25.2,0l0-4l25.2,0L35.3,62.9z M55.9,54.1l-46.6,0l0-4l46.6,0L55.9,54.1z M36.7,35.5
			l-0.9-1.9l-1.2,2.8l1.5,0C36.9,36.4,37.1,36.4,36.7,35.5z"/>
	</g>
</g>
</svg>
