<!-- Generator: Adobe Illustrator 19.1.0, SVG Export Plug-In  -->
<svg version="1.1"
	 xmlns="http://www.w3.org/2000/svg" xmlns:xlink="http://www.w3.org/1999/xlink" xmlns:a="http://ns.adobe.com/AdobeSVGViewerExtensions/3.0/"
	 x="0px" y="0px" width="79.408px" height="82.069px" viewBox="0 0 79.408 82.069"
	 style="enable-background:new 0 0 79.408 82.069;" xml:space="preserve">
<style type="text/css">
	.st0{fill:#FFFFFF;}
</style>
<defs>
</defs>
<g>
	<g>
		<path class="st0" d="M76.38,70.738c-6.386-5.56-13.731-9.475-21.99-11.81c-0.905-0.256-1.83-0.438-3.059-0.727
			c0.288,0.743,0.421,1.146,0.596,1.529c0.967,2.126,1.911,4.263,2.937,6.36c0.348,0.711,0.338,1.242-0.05,1.94
			c-2.594,4.664-5.138,9.357-7.699,14.039h32.293C79.408,79.236,77.415,71.638,76.38,70.738z M24.9,68.566
			c-0.485-0.874-0.612-1.592-0.125-2.562c1.215-2.426,2.276-4.93,3.514-7.656c-0.733,0.094-1.198,0.112-1.643,0.219
			c-6.518,1.568-12.598,4.2-18.048,8.094c-2.036,1.455-3.931,3.11-5.822,4.769C1.855,72.238,0,79.306,0,82.069h32.028
			c-0.138-0.401-0.223-0.832-0.422-1.2C29.385,76.76,27.163,72.651,24.9,68.566z M58.455,32.423
			c0.136,1.777-0.558,2.785-2.217,3.462c-0.391,0.159-0.87,0.634-0.921,1.016c-0.541,4.047-1.967,7.76-4.749,10.711
			c-1.359,1.44-1.32,2.906-1.254,4.53c0.015,0.362,0.031,0.732,0.033,1.111c7.328-0.355,13.987-2.297,20.329-6.053
			c-3.531-2.423-5.061-5.798-5.56-9.633c-0.574-4.411-0.92-8.852-1.324-13.284c-0.361-3.96-0.85-7.91-2.479-11.569
			c-2.565-5.764-6.913-9.624-12.486-11.8C45.928,0.172,43.586,0,42.616,0c-0.965,0.568-1.931,1.137-2.881,1.696
			C38.943,1.194,38,0.597,37.057,0c-2.24,0-5.225,0.903-6.052,1.293C24.75,4.24,20.084,8.73,18.156,15.971
			c-1.512,5.679-1.406,11.531-2.087,17.298c-0.303,2.565-0.783,5.132-1.449,7.627c-0.694,2.601-2.302,4.692-4.752,6.318
			c6.387,3.675,12.956,5.698,20.21,6.01c-0.023-2.152,0.559-4.103-1.225-5.83c-0.71-0.688-1.26-1.543-1.788-2.421
			c-1.935-2.608-3.255-5.701-3.749-9.065c-0.028-0.012-0.056-0.031-0.085-0.042c-2.16-0.814-2.815-3.554-1.298-5.355
			c0.674-0.8,1.325-1.669,1.799-2.599c0.089-0.175,0.183-0.348,0.258-0.527c0.614-1.477,1.204-2.966,1.775-4.461
			c0.654-1.712,1.283-3.434,1.882-5.164c0.817-2.36,1.42-4.794,2.129-7.231c0.593,2.046,1.399,3.896,2.385,5.581
			c2.641,4.51,6.619,7.794,11.597,10.175c3.838,1.835,7.941,2.76,12.111,3.448C57.487,29.998,58.343,30.961,58.455,32.423z"/>
	</g>
</g>
</svg>