<?xml version="1.0" encoding="utf-8"?>
<!-- Generator: Adobe Illustrator 20.1.0, SVG Export Plug-In . SVG Version: 6.00 Build 0)  -->
<svg version="1.1" id="Camada_1" xmlns="http://www.w3.org/2000/svg" xmlns:xlink="http://www.w3.org/1999/xlink" x="0px" y="0px"  width="83.04px" height="83.233px" 
	 viewBox="0 0 83 83.2" style="enable-background:new 0 0 83 83.2;" xml:space="preserve">
<style type="text/css">
	.st0{fill:#FFFFFF;}
</style>
<g>
	<g>
		<path class="st0" d="M76.3,41.9l5.2-5.2l-16.5-0.9l0.1,17.4l6.8-6.9c3.4,3.6,5.1,7.9,5,12.9c-0.1,5-1.9,9.2-5.4,12.6
			c-2.9,2.9-6.2,4.6-10.1,5.2l0.2,6.1c5.5-0.6,10.3-2.9,14.3-7c4.6-4.7,6.9-10.4,7.1-17C83.1,52.5,80.9,46.8,76.3,41.9z M55.9,40.6
			l-0.2-6.1c-5.5,0.6-10.3,2.9-14.3,7c-4.6,4.7-6.9,10.4-7.1,17.1C34.2,65.2,36.4,71,41,75.8L35.8,81l16.5,0.9l-0.1-17.4l-6.8,6.9
			c-3.5-3.6-5.1-7.9-5-12.8c0.1-5,1.9-9.2,5.4-12.7C48.6,43,52,41.3,55.9,40.6z M54.1,0H4.6C2.1,0,0,2.1,0,4.6v65.5
			c0,2.5,2.1,4.6,4.6,4.6h27c-2.4-4.5-3.8-9.6-3.8-15.1c0-17.3,13.7-31.4,30.9-32V4.6C58.7,2.1,56.6,0,54.1,0z M32.9,11l1,0l0,5.1
			l2.1,0v0c0.3,0,0.2,0.1,0.2,0.8v0c-0.6,0-0.9,0-1.6,0v0l-2.3,0l0-5.4C32.4,11.1,32.4,11,32.9,11z M28.3,12.5
			c0.5-1.2,0.7-1.8,0.9-1.8h0c0.2,0,0.4,0.6,1,1.9l2,4.4c-0.5,0-0.9,0-1.4,0c-0.2-0.4-0.3-0.7-0.5-1.1l-1.8,0c-0.8,0-0.7,0-1,0.7
			L27.3,17l-0.9,0L28.3,12.5z M22.7,11l2.9,0c0,0.8,0,0.7-0.5,0.7l-1.1,0c-0.4,0-0.3,0-0.3,0.3l0,1.4l1.2,0c0,0.9,0.2,0.9-1.2,0.9
			l0,1.9c0.6,0,1.3,0,1.9,0c0.5,0,0.4,0,0.4,0.8v0c-1.3,0-2.6,0-3.9,0l0-1.1l0-4.3C22.2,11.1,22.2,11,22.7,11z M17.4,11
			c0.6,0,1.4,0,2,0c1.3,0.1,2.1,0.8,2,2.1c-0.1,0.7-0.4,1.3-1.1,1.5c0.5,0.6,1,1.4,1.6,1.9V17c-1.8,0-1.7-0.1-2.8-1.5
			c-0.4-0.5-0.4-0.6-0.4-1.2c1.9-0.3,1.5-2.6-0.1-2.4c-0.3,0-0.2,0.4-0.2,0.7l0,4.5L17,17l0-5.3C17,11.2,17,11,17.4,11z M8.5,17.1
			c0.3-3,3-5.6,7.1-5.9c0.2,0,0.3,0.1,0.1,0.2c-0.1,0.1-0.3,0.3-0.4,0.4c-0.3,0.3-0.6,0.5-0.8,1c-0.1,0.2-0.2,0.4-0.2,0.7
			c-0.1,0.5-0.1,1,0.1,1.6c0.6,1.4,0.1,2-0.7,2.1c-1,0.1-2.2-0.2-3.2-0.1c-0.5,0-1,0.1-1.6,0.2C8.7,17.3,8.5,17.5,8.5,17.1z
			 M32.4,32.8H8.3v-2.6h24.1V32.8z M50.4,27H8.3v-2.6h42.1V27z M29.5,14.4L28.9,13l-0.8,2l1.1,0C29.6,15,29.8,15,29.5,14.4z"/>
	</g>
</g>
</svg>
