<?xml version="1.0" encoding="utf-8"?>
<!-- Generator: Adobe Illustrator 20.1.0, SVG Export Plug-In . SVG Version: 6.00 Build 0)  -->
<svg version="1.1" id="Camada_1" xmlns="http://www.w3.org/2000/svg" xmlns:xlink="http://www.w3.org/1999/xlink" x="0px" y="0px" width="97.464px" height="82.083px"
	 viewBox="0 0 97.5 82.1" style="enable-background:new 0 0 97.5 82.1;" xml:space="preserve">
<style type="text/css">
	.st0{fill:#FFFFFF;}
</style>
<g>
	<g>
		<path class="st0" d="M11.6,41.7C11.6,41.7,11.6,41.8,11.6,41.7L11.6,41.7L11.6,41.7z M82,34.9L66.6,3.7C65,0.4,61-1,57.7,0.7
			l-54,26.9c-3.3,1.6-4.6,5.6-3,8.9l15.4,31.2c1.6,3.3,5.6,4.7,8.9,3l54-26.9C82.3,42.2,83.7,38.2,82,34.9z M36.6,21l1.2-0.6l3,6.1
			l2.5-1.3l0,0c0.3-0.1,0.3,0,0.7,0.8l0,0c-0.7,0.4-1.1,0.6-1.8,0.9l0,0l-2.7,1.4l-3.2-6.4C36.1,21.4,36,21.3,36.6,21z M32.1,22.8
			L32.1,22.8c0.2-0.1,0.9,0.5,2.2,1.6l4.9,4c-0.6,0.3-1.1,0.6-1.7,0.8c-0.4-0.3-0.8-0.7-1.2-1l-2.1,1.1c-0.9,0.5-0.8,0.4-0.7,1.4
			v0.5l-1.1,0.6L32,25.4C31.9,23.7,31.8,22.9,32.1,22.8z M24.6,27l3.5-1.7c0.4,1,0.5,0.8-0.1,1.1L26.6,27c-0.4,0.2-0.4,0.1-0.2,0.6
			l0.8,1.6l1.4-0.7c0.5,1.1,0.8,0.9-0.9,1.7l1.1,2.2c0.8-0.4,1.5-0.8,2.3-1.1c0.6-0.3,0.5-0.2,1,0.7l0,0l0,0c-1.5,0.8-3,1.5-4.6,2.3
			L26.9,33l-2.6-5.1C24.1,27.4,24,27.2,24.6,27z M18.4,30.1c0.7-0.3,1.6-0.9,2.4-1.1c1.6-0.6,3-0.3,3.6,1.3c0.3,0.8,0.3,1.8-0.4,2.3
			c0.9,0.4,2,1.1,2.9,1.3l0.3,0.6c-2.1,1-2,0.9-4.1-0.1c-0.7-0.4-0.8-0.5-1.2-1.2c2-1.4,0.2-3.9-1.6-2.8c-0.3,0.2,0,0.7,0.1,1
			l2.6,5.2l-1.7,0.9l-3.1-6.2C17.9,30.5,17.9,30.3,18.4,30.1z M13.7,41.2c-0.6,0.3-1.2,0.7-1.7,1.2c-0.2,0.3-0.4,0.6-0.6,0
			c-1.4-3.7,0.3-8.4,4.9-11.1c0.3-0.2,0.4,0,0.3,0.2c-0.1,0.2-0.1,0.5-0.2,0.7c-0.2,0.5-0.3,1-0.3,1.6c0,0.3,0,0.6,0.1,0.9
			c0.1,0.7,0.5,1.3,1.1,1.8c1.5,1.4,1.3,2.3,0.4,2.9C16.5,40.1,14.9,40.5,13.7,41.2z M23.5,61.4L21.8,58l21.3-10.6l1.7,3.4
			L23.5,61.4z M19.2,54.2l-1.7-3.4l47.6-23.7l1.7,3.4L19.2,54.2z M34.5,27.9c0.6-0.3,0.8-0.4,0-1L33,25.7l0.2,2.9L34.5,27.9z
			 M95.9,34.5c-1.3-1.8-3.2-2.9-5.4-3.2l-7.3-1.1l1.7,3.4l5.2,0.8c1.3,0.2,2.5,0.9,3.3,2s1.1,2.4,0.9,3.8l-5.2,34.5
			c-0.4,2.5-2.5,4.4-5,4.4c-0.3,0-0.5,0-0.8-0.1l-51.4-7.8l-4,2c-0.3,0.2-0.7,0.3-1.1,0.4l56,8.4c0.4,0.1,0.8,0.1,1.2,0.1l0,0
			c4,0,7.5-3,8.1-7l5.2-34.5C97.7,38.4,97.2,36.3,95.9,34.5z"/>
	</g>
</g>
</svg>
