<!-- Generator: Adobe Illustrator 19.1.0, SVG Export Plug-In  -->
<svg version="1.1"
	 xmlns="http://www.w3.org/2000/svg" xmlns:xlink="http://www.w3.org/1999/xlink" xmlns:a="http://ns.adobe.com/AdobeSVGViewerExtensions/3.0/"
	 x="0px" y="0px" width="83.026px" height="76.057px" viewBox="0 0 83.026 76.057"
	 style="enable-background:new 0 0 83.026 76.057;" xml:space="preserve">
<style type="text/css">
	.st0{fill:#FFFFFF;}
</style>
<defs>
</defs>
<g>
	<g>
		<path class="st0" d="M21.591,21.887c-0.003,0.011-0.006,0.022-0.009,0.033c0.001,0.006,0.001,0.012,0.001,0.018
			C21.586,21.921,21.588,21.904,21.591,21.887z M81.323,47.029c-9.093-8.52-18.191-17.037-27.274-25.57
			c-1.126-1.059-2.227-2.116-3.847-2.339h-0.667c-0.525,0.157-1.086,0.244-1.57,0.485c-1.761,0.875-2.503,2.372-2.497,4.296
			c0.017,5.15,0.032,10.299,0.04,15.449c0.013,7.854,0.009,15.708,0.055,23.561c0.005,0.771,0.155,1.613,0.493,2.294
			c1.323,2.66,4.684,3.167,6.949,1.093c1.625-1.488,3.218-3.011,4.827-4.517c0.139-0.13,0.285-0.253,0.457-0.405
			c0.106,0.231,0.184,0.397,0.257,0.566c1.608,3.735,3.211,7.474,4.825,11.206c1.057,2.446,3.334,3.508,5.758,2.574
			c1.877-0.724,3.696-1.599,5.535-2.421c0.284-0.126,0.555-0.301,0.796-0.499c1.674-1.374,2.117-3.386,1.187-5.453
			c-1.046-2.327-2.115-4.644-3.173-6.966c-0.719-1.579-1.438-3.157-2.173-4.768c0.138-0.024,0.223-0.046,0.311-0.054
			c2.376-0.219,4.751-0.444,7.129-0.653c1.807-0.159,3.161-0.984,3.904-2.671C83.451,50.412,82.962,48.565,81.323,47.029z
			 M64.751,51.786c2.685,5.888,5.338,11.703,8.024,17.591c-1.742,0.769-3.473,1.532-5.266,2.323
			c-2.562-5.944-5.104-11.844-7.669-17.797c-3.301,3.096-6.56,6.153-9.927,9.311V23.584c9.561,8.961,19.083,17.884,28.74,26.936
			C73.936,50.95,69.378,51.365,64.751,51.786z M47.267,15.488c0.284-0.088,0.544-0.153,0.766-0.209
			c0.109-0.027,0.22-0.054,0.328-0.086l0.575-0.172h1.548l0.277,0.038c2.888,0.397,4.708,2.109,6.037,3.359l0.057,0.053
			c0.577,0.543,1.157,1.084,1.734,1.627V5.293C58.589,2.37,56.221,0,53.299,0H5.289C2.368,0,0,2.37,0,5.293v27.655
			c0,2.923,2.368,5.292,5.289,5.292h36.119c-0.009-4.603-0.022-9.206-0.036-13.809H6.957V21.45h34.698
			c0.573-2.322,1.999-4.171,4.161-5.348L47.267,15.488z M7.526,28.054h18.957v2.981H7.526V28.054z M13.101,7.322
			c-0.134,0.146-0.262,0.271-0.384,0.39c-0.31,0.302-0.578,0.564-0.805,1.041c-0.108,0.227-0.197,0.46-0.258,0.699
			c-0.135,0.531-0.133,1.094,0.109,1.691c0.615,1.506,0.106,2.132-0.769,2.219c-0.996,0.098-2.265-0.196-3.35-0.154
			c-0.567,0.022-1.092,0.059-1.625,0.249c-0.263,0.092-0.484,0.283-0.431-0.202c0.287-3.135,3.179-5.886,7.394-6.19
			C13.234,7.047,13.252,7.16,13.101,7.322z M16.732,11.639c-0.394-0.532-0.413-0.641-0.414-1.305c1.955-0.3,1.542-2.722-0.137-2.562
			c-0.295,0.029-0.246,0.457-0.246,0.756l0.024,4.66l-1.543,0.005l-0.021-5.531c-0.003-0.577,0.03-0.701,0.502-0.701
			C15.506,6.959,16.368,6.935,16.987,7c1.334,0.139,2.251,0.824,2.122,2.226c-0.066,0.705-0.438,1.357-1.122,1.519
			c0.487,0.597,1.073,1.492,1.629,1.959l0.001,0.496C17.767,13.203,17.844,13.131,16.732,11.639z M23.193,14.741v-0.247l0.239,0
			l0.001,0.246L23.193,14.741z M24.004,13.198c-1.358,0.002-2.709,0.002-4.072,0.008l-0.014-1.137l-0.028-4.552
			c-0.003-0.456,0.042-0.567,0.515-0.568l3.082-0.006c-0.023,0.845,0.037,0.752-0.487,0.754l-1.181,0.002
			c-0.38,0.001-0.351-0.042-0.346,0.341l0.013,1.417l1.264-0.003c0.002,0.975,0.227,0.93-1.255,0.91l0.021,1.998
			c0.677-0.001,1.354-0.002,2.032-0.004c0.522-0.001,0.432-0.005,0.457,0.833h0.001V13.198z M28.823,13.176
			c-0.179-0.385-0.358-0.769-0.535-1.155l-1.894,0.004c-0.815,0.002-0.729-0.004-1.039,0.754l-0.16,0.395l-0.979,0.013l2.042-4.71
			c0.535-1.236,0.749-1.842,0.955-1.855h0.003c0.219-0.008,0.431,0.653,1.013,1.941l2.083,4.607
			C29.815,13.172,29.319,13.174,28.823,13.176z M34.639,13.175c-0.652,0.001-0.987,0.002-1.638,0.002v-0.003l-2.413,0.009
			L30.554,7.52c-0.003-0.456,0.041-0.566,0.515-0.567l1.06,0.002l0.041,5.384l2.229-0.004v0.004c0.278,0.019,0.22,0.134,0.241,0.829
			V13.175z"/>
	</g>
</g>
</svg>