<svg version="1.1"
	 xmlns="http://www.w3.org/2000/svg" xmlns:xlink="http://www.w3.org/1999/xlink"
	 x="0px" y="0px" width="157.984px" height="54px" viewBox="0 0 157.984 54" style="enable-background:new 0 0 157.984 54;"
	 xml:space="preserve">
<style type="text/css">
	.st0{fill-rule:evenodd;clip-rule:evenodd;fill:#FFFFFF;}
	.st1{fill-rule:evenodd;clip-rule:evenodd;fill:#FFDC0A;}
</style>
<defs>
</defs>
<path class="st0" d="M40.242,2.406C17.327,4.053,1.605,19.003,0.042,36.035c-0.285,2.636,0.917,1.601,2.344,1.097
	c2.9-1.03,5.756-1.231,8.834-1.349c5.902-0.228,12.799,1.368,18.216,0.836c4.759-0.472,7.522-3.876,4.182-12.055
	c-1.319-3.24-1.327-6.3-0.597-9.183c0.333-1.304,0.817-2.571,1.404-3.802c1.234-2.591,2.692-4.013,4.381-5.655
	c0.658-0.645,1.357-1.325,2.086-2.118C41.711,2.919,41.61,2.31,40.242,2.406z M37.812,4.888c-1.893,2.188-3.601,4.701-4.92,7.412
	c-2.024,4.147-2.652,7.13-2.345,11.598c0.175,2.471,0.213,5.336-0.99,7.126c-3.867,5.753-17.669,2.115-25.342,4.283
	C1.8,35.87,2.189,34.969,2.116,33.957C6.098,15.825,18.524,6.76,37.101,3.783C38.977,3.488,39.087,3.404,37.812,4.888z"/>
<path class="st1" d="M35.133,4.084C17.844,7.335,6.047,16.243,2.185,33.633c-0.285,1.469-0.073,2.25,1.783,1.647
	c7.359-2.735,19.13-2.042,22.799-7.995c1.594-2.589,1.565-5.067,1.902-7.811c0.447-3.596,2.4-6.784,4.753-9.996
	c1.668-2.457,3.482-3.813,4.993-5.35c0.193-0.218,0.289-0.366,0.239-0.442c-0.067-0.099-0.26-0.087-0.587-0.059
	C37.093,3.7,36.098,3.903,35.133,4.084L35.133,4.084L35.133,4.084z"/>
<path class="st0" d="M144.56,31.059l12.116-0.024v0.02c1.51,0.102,1.191,0.73,1.308,4.503v0.043
	c-3.543,0.007-5.365,0.01-8.906,0.013v-0.019l-13.116,0.053l-0.187-30.764c-0.021-2.48,0.225-3.079,2.799-3.083l5.76,0.007
	L144.56,31.059L144.56,31.059z M157.984,35.558L157.984,35.558L157.984,35.558z M86.631,31.183c3.68-0.007,7.363-0.013,11.045-0.022
	c2.842-0.006,2.352-0.028,2.485,4.523h0.006v0.044c-7.388,0.014-14.733,0.016-22.141,0.045l-0.077-6.176L77.797,4.864
	c-0.018-2.48,0.231-3.081,2.8-3.087l16.754-0.035c-0.121,4.59,0.2,4.089-2.65,4.098l-6.419,0.012
	c-2.064,0.007-1.902-0.224-1.88,1.848l0.07,7.7l6.869-0.013c0.01,5.294,1.235,5.051-6.821,4.942L86.631,31.183L86.631,31.183z
	 M48.038,35.702L47.92,5.654c-0.01-3.133,0.166-3.809,2.733-3.813c3.312-0.01,7.998-0.143,11.368,0.207
	c7.254,0.757,12.24,4.48,11.535,12.098c-0.359,3.83-2.377,7.369-6.101,8.249c2.651,3.247,5.832,8.11,8.858,10.646l0.004,2.692
	c-10.062,0.02-9.644-0.369-15.68-8.477c-2.147-2.888-2.247-3.48-2.255-7.086C69.011,18.54,66.76,5.38,57.636,6.251
	c-1.602,0.156-1.34,2.481-1.34,4.11l0.134,25.317L48.038,35.702L48.038,35.702z M107.515,33.452l-0.876,2.143l-5.323,0.069
	l11.096-25.587c2.913-6.712,4.073-10.009,5.196-10.076h0.017c1.192-0.043,2.342,3.549,5.504,10.548l11.327,25.029
	c-2.696,0.009-5.396,0.021-8.09,0.031c-0.974-2.088-1.944-4.179-2.913-6.274l-10.297,0.024
	C108.727,29.367,109.201,29.34,107.515,33.452L107.515,33.452L107.515,33.452z M115.886,13.029l-4.688,11.433l6.178-0.011
	c2.759-0.007,3.848,0.03,2.04-3.805L115.886,13.029L115.886,13.029z"/>
<path class="st0" d="M106.218,52.339l0.875-0.708c0.31,0.434,0.655,0.753,1.031,0.961c0.378,0.216,0.786,0.32,1.222,0.32
	c0.491,0,0.874-0.124,1.163-0.374c0.288-0.243,0.431-0.564,0.431-0.969c0-0.603-0.613-1.076-1.819-1.416
	c-0.271-0.08-0.478-0.138-0.622-0.183c-0.677-0.203-1.176-0.477-1.507-0.839c-0.334-0.352-0.496-0.796-0.496-1.325
	c-0.005-0.639,0.218-1.158,0.666-1.564c0.436-0.404,1.012-0.607,1.718-0.607c0.584-0.001,1.11,0.106,1.576,0.318
	c0.47,0.218,0.896,0.55,1.268,0.997l-0.723,0.729c-0.3-0.384-0.616-0.668-0.959-0.854c-0.341-0.187-0.71-0.285-1.101-0.285
	c-0.403,0.006-0.729,0.109-0.968,0.324c-0.244,0.205-0.366,0.484-0.365,0.835c0,0.173,0.036,0.333,0.102,0.476
	c0.075,0.143,0.174,0.256,0.299,0.347c0.24,0.169,0.693,0.349,1.352,0.521c0.325,0.085,0.572,0.153,0.753,0.214
	c0.67,0.207,1.156,0.492,1.464,0.843c0.305,0.351,0.454,0.799,0.458,1.347c0,0.718-0.254,1.294-0.766,1.729
	c-0.507,0.433-1.193,0.651-2.062,0.651c-0.618,0.001-1.191-0.127-1.716-0.386C106.97,53.178,106.542,52.815,106.218,52.339
	L106.218,52.339L106.218,52.339z M98.816,49.747c-0.005-1.299,0.287-2.302,0.861-3.022c0.574-0.715,1.386-1.075,2.432-1.077
	c1.049-0.001,1.855,0.355,2.44,1.067c0.578,0.72,0.87,1.717,0.872,3.016c0.003,1.302-0.285,2.315-0.859,3.031
	c-0.582,0.719-1.387,1.079-2.438,1.079c-1.042,0.005-1.856-0.351-2.431-1.066C99.115,52.055,98.82,51.045,98.816,49.747
	L98.816,49.747L98.816,49.747z M99.935,49.745c0.004,1.032,0.192,1.824,0.57,2.366c0.375,0.544,0.914,0.817,1.618,0.813
	c0.703-0.001,1.236-0.273,1.61-0.822c0.369-0.542,0.55-1.33,0.55-2.35c-0.003-1.035-0.192-1.823-0.558-2.36
	c-0.372-0.537-0.911-0.808-1.613-0.805c-0.704,0.003-1.246,0.272-1.615,0.814C100.118,47.942,99.935,48.724,99.935,49.745
	L99.935,49.745L99.935,49.745z M95.871,53.72l-0.017-7.921h1.119l0.019,7.921H95.871L95.871,53.72z M95.758,44.108v-1.34
	l1.298-0.003l0.006,1.338L95.758,44.108L95.758,44.108z M87.678,53.738l-0.017-7.921l1.012-0.005l0.002,1.2
	c0.435-0.453,0.863-0.797,1.285-1.014c0.423-0.215,0.867-0.323,1.329-0.327c0.66,0,1.171,0.188,1.532,0.575
	c0.355,0.383,0.537,0.92,0.539,1.613l0.01,5.865l-1.073,0.004l-0.012-5.448c0-0.593-0.1-1.017-0.3-1.272
	c-0.2-0.255-0.526-0.384-0.972-0.384c-0.397,0.002-0.782,0.106-1.159,0.304c-0.368,0.2-0.74,0.496-1.102,0.902l0.012,5.905
	L87.678,53.738L87.678,53.738z M80.779,44.865l1.45-2.575l1.321-0.005l1.456,2.573h-0.789l-1.321-1.788l-1.326,1.795H80.779
	L80.779,44.865z M85.262,51.521l0.802,0.5c-0.305,0.633-0.719,1.104-1.237,1.401c-0.513,0.307-1.156,0.46-1.92,0.463
	c-1.029,0.005-1.817-0.345-2.363-1.045c-0.55-0.7-0.82-1.721-0.824-3.052c0-1.274,0.27-2.276,0.82-3.001
	c0.544-0.731,1.301-1.093,2.258-1.095c0.978-0.005,1.739,0.341,2.28,1.044c0.545,0.699,0.813,1.677,0.815,2.934v0.331l-5.042,0.012
	v0.259c0.002,0.819,0.2,1.47,0.59,1.95c0.396,0.485,0.916,0.727,1.569,0.727c0.496,0,0.935-0.126,1.318-0.374
	C84.721,52.328,85.028,51.978,85.262,51.521L85.262,51.521L85.262,51.521z M80.864,49.076l3.857-0.007
	c-0.009-0.76-0.188-1.355-0.529-1.786c-0.345-0.44-0.801-0.656-1.375-0.654c-0.592,0-1.058,0.215-1.395,0.645
	C81.08,47.696,80.897,48.296,80.864,49.076L80.864,49.076L80.864,49.076z M74.956,53.764l-2.61-7.916l1.121-0.003l2.196,6.779
	l2.167-6.786l1.113-0.003l-2.569,7.928L74.956,53.764L74.956,53.764z M65.335,53.785l-0.017-7.922l1.013-0.002v1.203
	c0.437-0.455,0.86-0.798,1.286-1.013c0.422-0.216,0.865-0.325,1.336-0.329c0.657-0.004,1.164,0.185,1.527,0.574
	c0.353,0.386,0.532,0.923,0.537,1.617l0.012,5.86l-1.069,0.003l-0.013-5.444c-0.004-0.595-0.108-1.017-0.308-1.272
	c-0.196-0.258-0.518-0.388-0.97-0.385c-0.393,0-0.778,0.106-1.15,0.302c-0.376,0.201-0.749,0.498-1.108,0.902l0.01,5.903
	L65.335,53.785L65.335,53.785z M56.981,49.835c-0.002-1.3,0.285-2.301,0.863-3.021c0.572-0.712,1.386-1.072,2.43-1.077
	c1.044,0,1.855,0.359,2.438,1.067c0.58,0.718,0.869,1.719,0.874,3.017c0,1.3-0.283,2.31-0.861,3.033
	c-0.582,0.717-1.39,1.076-2.436,1.08c-1.04,0-1.854-0.356-2.432-1.073C57.274,52.146,56.988,51.135,56.981,49.835L56.981,49.835
	L56.981,49.835z M58.102,49.833c0,1.034,0.187,1.826,0.564,2.369c0.372,0.543,0.913,0.815,1.62,0.815
	c0.703-0.002,1.236-0.278,1.61-0.822c0.368-0.545,0.551-1.333,0.549-2.358c0-1.028-0.183-1.816-0.557-2.355
	c-0.372-0.539-0.907-0.807-1.614-0.802c-0.708,0-1.244,0.271-1.619,0.809C58.281,48.033,58.098,48.81,58.102,49.833L58.102,49.833
	L58.102,49.833z M56.091,50.523c-0.266,1.152-0.719,2.024-1.358,2.606c-0.64,0.575-1.478,0.87-2.496,0.87
	c-1.348,0.001-2.386-0.491-3.121-1.466c-0.734-0.981-1.102-2.376-1.106-4.191c-0.004-1.757,0.362-3.135,1.094-4.147
	c0.734-1.004,1.739-1.507,3.012-1.509c1.015-0.002,1.839,0.271,2.469,0.819c0.632,0.545,1.066,1.359,1.294,2.44l-1.1,0.289
	c-0.175-0.818-0.48-1.439-0.924-1.871c-0.441-0.439-0.982-0.654-1.627-0.654c-0.963,0.003-1.701,0.415-2.215,1.218
	c-0.522,0.811-0.78,1.964-0.776,3.458c0.002,1.457,0.271,2.582,0.799,3.379c0.533,0.792,1.278,1.186,2.245,1.186
	c0.718-0.003,1.306-0.235,1.775-0.7c0.472-0.463,0.778-1.117,0.923-1.973L56.091,50.523L56.091,50.523z"/>
</svg>