<!-- Generator: Adobe Illustrator 19.1.0, SVG Export Plug-In  -->
<svg version="1.1"
	 xmlns="http://www.w3.org/2000/svg" xmlns:xlink="http://www.w3.org/1999/xlink" xmlns:a="http://ns.adobe.com/AdobeSVGViewerExtensions/3.0/"
	 x="0px" y="0px" width="417.146px" height="417.507px" viewBox="0 0 417.146 417.507"
	 style="enable-background:new 0 0 417.146 417.507;" xml:space="preserve">
<style type="text/css">
	.st0{fill:#FFFFFF;}
</style>
<defs>
</defs>
<path class="st0" d="M0.018,96.179C2.69,69.173,12.175,44.76,28.564,23.253C34.33,15.685,41.917,9.47,51.476,7.08
	c10.771-2.693,21.703-4.792,32.636-6.76c7.008-1.261,12.612,1.176,16.353,7.643c6.249,10.801,12.828,21.411,19.074,32.214
	c8.989,15.548,17.656,31.283,26.74,46.775c7.332,12.504,7.268,18.447-3.103,28.269c-10.009,9.478-20.95,17.964-31.243,27.154
	c-4.193,3.743-7.997,7.997-11.54,12.373c-3.602,4.448-2.446,9.613-0.345,14.231c2.68,5.891,5.573,11.776,9.141,17.154
	c11.387,17.161,22.381,34.66,34.917,50.96c16.759,21.792,37.562,39.575,60.582,54.583c12.114,7.897,24.493,15.438,37.112,22.495
	c13.63,7.621,18.475,6.575,29.072-5.067c10.195-11.201,20.136-22.632,30.259-33.9c1.657-1.844,3.621-3.431,5.539-5.02
	c5.872-4.866,12.128-5.821,18.927-1.861c15.377,8.957,30.798,17.838,46.182,26.782c12.799,7.442,25.558,14.953,38.363,22.386
	c4.742,2.752,7.093,6.685,7.003,12.252c-0.244,15.058-3.508,29.44-10.064,42.942c-4.881,10.052-13.432,16.878-22.636,22.68
	c-15.197,9.581-31.727,16.065-49.285,19.914c-15.113,3.313-30.353,2.924-45.054-1.11c-47.188-12.948-91.864-31.477-131.191-61.406
	c-33.283-25.329-62.719-54.452-88.831-87.143c-27.294-34.171-45.89-72.703-59.793-113.837c-5.246-15.522-9.932-31.091-10.264-47.634
	C-0.028,101.493,0.018,98.835,0.018,96.179z"/>
</svg>