<svg xmlns="http://www.w3.org/2000/svg" width="180" height="61" viewBox="0 0 158 54"><style type="text/css">  
    .st0{fill-rule:evenodd;clip-rule:evenodd;fill:#FFFFFF;}
    .st1{fill-rule:evenodd;clip-rule:evenodd;fill:#FFDC0A;}
</style><path class="st0" d="M40.2 2.4C17.3 4.1 1.6 19 0 36c-0.3 2.6 0.9 1.6 2.3 1.1 2.9-1 5.8-1.2 8.8-1.3 5.9-0.2 12.8 1.4 18.2 0.8 4.8-0.5 7.5-3.9 4.2-12.1 -1.3-3.2-1.3-6.3-0.6-9.2 0.3-1.3 0.8-2.6 1.4-3.8 1.2-2.6 2.7-4 4.4-5.7 0.7-0.6 1.4-1.3 2.1-2.1C41.7 2.9 41.6 2.3 40.2 2.4zM37.8 4.9c-1.9 2.2-3.6 4.7-4.9 7.4 -2 4.1-2.7 7.1-2.3 11.6 0.2 2.5 0.2 5.3-1 7.1 -3.9 5.8-17.7 2.1-25.3 4.3C1.8 35.9 2.2 35 2.1 34 6.1 15.8 18.5 6.8 37.1 3.8 39 3.5 39.1 3.4 37.8 4.9z"/><path class="st1" d="M35.1 4.1C17.8 7.3 6 16.2 2.2 33.6c-0.3 1.5-0.1 2.3 1.8 1.6 7.4-2.7 19.1-2 22.8-8 1.6-2.6 1.6-5.1 1.9-7.8 0.4-3.6 2.4-6.8 4.8-10 1.7-2.5 3.5-3.8 5-5.3 0.2-0.2 0.3-0.4 0.2-0.4 -0.1-0.1-0.3-0.1-0.6-0.1C37.1 3.7 36.1 3.9 35.1 4.1L35.1 4.1 35.1 4.1z"/><path class="st0" d="M144.6 31.1l12.1 0v0c1.5 0.1 1.2 0.7 1.3 4.5v0c-3.5 0-5.4 0-8.9 0v0l-13.1 0.1 -0.2-30.8c0-2.5 0.2-3.1 2.8-3.1l5.8 0L144.6 31.1 144.6 31.1zM158 35.6L158 35.6 158 35.6zM86.6 31.2c3.7 0 7.4 0 11 0 2.8 0 2.4 0 2.5 4.5h0v0c-7.4 0-14.7 0-22.1 0l-0.1-6.2L77.8 4.9c0-2.5 0.2-3.1 2.8-3.1l16.8 0c-0.1 4.6 0.2 4.1-2.6 4.1l-6.4 0c-2.1 0-1.9-0.2-1.9 1.8l0.1 7.7 6.9 0c0 5.3 1.2 5.1-6.8 4.9L86.6 31.2 86.6 31.2zM48 35.7L47.9 5.7c0-3.1 0.2-3.8 2.7-3.8 3.3 0 8-0.1 11.4 0.2 7.3 0.8 12.2 4.5 11.5 12.1 -0.4 3.8-2.4 7.4-6.1 8.2 2.7 3.2 5.8 8.1 8.9 10.6l0 2.7c-10.1 0-9.6-0.4-15.7-8.5 -2.1-2.9-2.2-3.5-2.3-7.1C69 18.5 66.8 5.4 57.6 6.3c-1.6 0.2-1.3 2.5-1.3 4.1l0.1 25.3L48 35.7 48 35.7zM107.5 33.5l-0.9 2.1 -5.3 0.1 11.1-25.6c2.9-6.7 4.1-10 5.2-10.1h0c1.2 0 2.3 3.5 5.5 10.5l11.3 25c-2.7 0-5.4 0-8.1 0 -1-2.1-1.9-4.2-2.9-6.3l-10.3 0C108.7 29.4 109.2 29.3 107.5 33.5L107.5 33.5 107.5 33.5zM115.9 13l-4.7 11.4 6.2 0c2.8 0 3.8 0 2-3.8L115.9 13 115.9 13z"/><path class="st0" d="M106.2 52.3l0.9-0.7c0.3 0.4 0.7 0.8 1 1 0.4 0.2 0.8 0.3 1.2 0.3 0.5 0 0.9-0.1 1.2-0.4 0.3-0.2 0.4-0.6 0.4-1 0-0.6-0.6-1.1-1.8-1.4 -0.3-0.1-0.5-0.1-0.6-0.2 -0.7-0.2-1.2-0.5-1.5-0.8 -0.3-0.4-0.5-0.8-0.5-1.3 0-0.6 0.2-1.2 0.7-1.6 0.4-0.4 1-0.6 1.7-0.6 0.6 0 1.1 0.1 1.6 0.3 0.5 0.2 0.9 0.6 1.3 1l-0.7 0.7c-0.3-0.4-0.6-0.7-1-0.9 -0.3-0.2-0.7-0.3-1.1-0.3 -0.4 0-0.7 0.1-1 0.3 -0.2 0.2-0.4 0.5-0.4 0.8 0 0.2 0 0.3 0.1 0.5 0.1 0.1 0.2 0.3 0.3 0.3 0.2 0.2 0.7 0.3 1.4 0.5 0.3 0.1 0.6 0.2 0.8 0.2 0.7 0.2 1.2 0.5 1.5 0.8 0.3 0.4 0.5 0.8 0.5 1.3 0 0.7-0.3 1.3-0.8 1.7 -0.5 0.4-1.2 0.7-2.1 0.7 -0.6 0-1.2-0.1-1.7-0.4C107 53.2 106.5 52.8 106.2 52.3L106.2 52.3 106.2 52.3zM98.8 49.7c0-1.3 0.3-2.3 0.9-3 0.6-0.7 1.4-1.1 2.4-1.1 1 0 1.9 0.4 2.4 1.1 0.6 0.7 0.9 1.7 0.9 3 0 1.3-0.3 2.3-0.9 3 -0.6 0.7-1.4 1.1-2.4 1.1 -1 0-1.9-0.4-2.4-1.1C99.1 52.1 98.8 51 98.8 49.7L98.8 49.7 98.8 49.7zM99.9 49.7c0 1 0.2 1.8 0.6 2.4 0.4 0.5 0.9 0.8 1.6 0.8 0.7 0 1.2-0.3 1.6-0.8 0.4-0.5 0.6-1.3 0.6-2.3 0-1-0.2-1.8-0.6-2.4 -0.4-0.5-0.9-0.8-1.6-0.8 -0.7 0-1.2 0.3-1.6 0.8C100.1 47.9 99.9 48.7 99.9 49.7L99.9 49.7 99.9 49.7zM95.9 53.7l0-7.9h1.1l0 7.9H95.9L95.9 53.7zM95.8 44.1v-1.3l1.3 0 0 1.3L95.8 44.1 95.8 44.1zM87.7 53.7l0-7.9 1 0 0 1.2c0.4-0.5 0.9-0.8 1.3-1 0.4-0.2 0.9-0.3 1.3-0.3 0.7 0 1.2 0.2 1.5 0.6 0.4 0.4 0.5 0.9 0.5 1.6l0 5.9 -1.1 0 0-5.4c0-0.6-0.1-1-0.3-1.3 -0.2-0.3-0.5-0.4-1-0.4 -0.4 0-0.8 0.1-1.2 0.3 -0.4 0.2-0.7 0.5-1.1 0.9l0 5.9L87.7 53.7 87.7 53.7zM80.8 44.9l1.5-2.6 1.3 0 1.5 2.6h-0.8l-1.3-1.8 -1.3 1.8H80.8L80.8 44.9zM85.3 51.5l0.8 0.5c-0.3 0.6-0.7 1.1-1.2 1.4 -0.5 0.3-1.2 0.5-1.9 0.5 -1 0-1.8-0.3-2.4-1 -0.5-0.7-0.8-1.7-0.8-3.1 0-1.3 0.3-2.3 0.8-3 0.5-0.7 1.3-1.1 2.3-1.1 1 0 1.7 0.3 2.3 1 0.5 0.7 0.8 1.7 0.8 2.9v0.3l-5 0v0.3c0 0.8 0.2 1.5 0.6 2 0.4 0.5 0.9 0.7 1.6 0.7 0.5 0 0.9-0.1 1.3-0.4C84.7 52.3 85 52 85.3 51.5L85.3 51.5 85.3 51.5zM80.9 49.1l3.9 0c0-0.8-0.2-1.4-0.5-1.8 -0.3-0.4-0.8-0.7-1.4-0.7 -0.6 0-1.1 0.2-1.4 0.6C81.1 47.7 80.9 48.3 80.9 49.1L80.9 49.1 80.9 49.1zM75 53.8l-2.6-7.9 1.1 0 2.2 6.8 2.2-6.8 1.1 0 -2.6 7.9L75 53.8 75 53.8zM65.3 53.8l0-7.9 1 0v1.2c0.4-0.5 0.9-0.8 1.3-1 0.4-0.2 0.9-0.3 1.3-0.3 0.7 0 1.2 0.2 1.5 0.6 0.4 0.4 0.5 0.9 0.5 1.6l0 5.9 -1.1 0 0-5.4c0-0.6-0.1-1-0.3-1.3 -0.2-0.3-0.5-0.4-1-0.4 -0.4 0-0.8 0.1-1.1 0.3 -0.4 0.2-0.7 0.5-1.1 0.9l0 5.9L65.3 53.8 65.3 53.8zM57 49.8c0-1.3 0.3-2.3 0.9-3 0.6-0.7 1.4-1.1 2.4-1.1 1 0 1.9 0.4 2.4 1.1 0.6 0.7 0.9 1.7 0.9 3 0 1.3-0.3 2.3-0.9 3 -0.6 0.7-1.4 1.1-2.4 1.1 -1 0-1.9-0.4-2.4-1.1C57.3 52.1 57 51.1 57 49.8L57 49.8 57 49.8zM58.1 49.8c0 1 0.2 1.8 0.6 2.4 0.4 0.5 0.9 0.8 1.6 0.8 0.7 0 1.2-0.3 1.6-0.8 0.4-0.5 0.6-1.3 0.5-2.4 0-1-0.2-1.8-0.6-2.4 -0.4-0.5-0.9-0.8-1.6-0.8 -0.7 0-1.2 0.3-1.6 0.8C58.3 48 58.1 48.8 58.1 49.8L58.1 49.8 58.1 49.8zM56.1 50.5c-0.3 1.2-0.7 2-1.4 2.6 -0.6 0.6-1.5 0.9-2.5 0.9 -1.3 0-2.4-0.5-3.1-1.5 -0.7-1-1.1-2.4-1.1-4.2 0-1.8 0.4-3.1 1.1-4.1 0.7-1 1.7-1.5 3-1.5 1 0 1.8 0.3 2.5 0.8 0.6 0.5 1.1 1.4 1.3 2.4l-1.1 0.3c-0.2-0.8-0.5-1.4-0.9-1.9 -0.4-0.4-1-0.7-1.6-0.7 -1 0-1.7 0.4-2.2 1.2 -0.5 0.8-0.8 2-0.8 3.5 0 1.5 0.3 2.6 0.8 3.4 0.5 0.8 1.3 1.2 2.2 1.2 0.7 0 1.3-0.2 1.8-0.7 0.5-0.5 0.8-1.1 0.9-2L56.1 50.5 56.1 50.5z"/></svg>