<svg id="Camada_1" data-name="Camada 1" xmlns="http://www.w3.org/2000/svg" xmlns:xlink="http://www.w3.org/1999/xlink" viewBox="0 0 216.58 804.55"><defs><style>.cls-1{fill:#fff;}.cls-2{fill:url(#Gradiente_sem_nome_19);}</style><linearGradient id="Gradiente_sem_nome_19" x1="1.24" y1="1.18" x2="13.07" y2="13.12" gradientUnits="userSpaceOnUse"><stop offset="0" stop-color="#ff2593"/><stop offset="1" stop-color="#ff4f15"/></linearGradient></defs><title>sprite</title><path class="cls-1" d="M108.37,191.72q-46.78,0-93.55,0c-2.21,0-3.24-.12-2.83-2.93,1.36-9.32,3.5-18.37,8.14-26.64A23.64,23.64,0,0,1,32.44,151.1c10.83-4.17,21.57-8.58,32.29-13a119.12,119.12,0,0,1,12.46-4.43,7.83,7.83,0,0,0,5.65-5.45A69.4,69.4,0,0,0,85,116.49c.56-4.26-2.53-7.17-3.89-10.72-.72-1.89-1.79-3.64-2.6-5.49-1.2-2.78-1.35-6.19-5.28-7.11-1.12-.26-1.93-1.7-2.5-3a37.22,37.22,0,0,1-3.54-13.75c-.07-1.78-.34-3.75,1.36-5.15.82-.67.5-1.66.42-2.5a105.17,105.17,0,0,1,.1-22.73,11.82,11.82,0,0,0-.21-3.42,18.59,18.59,0,0,1,4.92-16.09c1.8-2,4.45-3.72,6.71-5.58a4.11,4.11,0,0,0,.81-.67c3.6-5.15,8.65-5.49,14.36-4.89,2.66.28,5.48-1,8.22-1.55A6.49,6.49,0,0,1,109.64,15c1.11.93,2.32.65,3.53.72,3.24.17,6.34,0,9.28,2.37,1.79,1.46,4.9,1.21,7.31,2.05,1.09.38,3.41-.16,2.8,2.53-.09.42,1.4,1.19,2.15,1.81,1.12.92,2.52,1.57,1.86,3.58-.38,1.16,1.29,1.2,1.82,1.95.68.95,3.23,1.5.58,3.13-.58.36-.11.84.32,1.25,2.25,2.15,3.9,4.36,2.57,7.89-.52,1.38.43,3.27.5,4.93.28,6.25.72,12.51-.92,18.67-.22.83.14,1.54.93,1.61,3,.25,3.38,2.73,3.64,4.79.73,5.87-.67,11.54-2.2,17.15a2,2,0,0,1-.88,1.25c-4.12,1.65-3.61,5.73-4.69,8.92-1.21,3.58-1.67,7.44-3.77,10.69-2.55,3.94-1.66,8-.63,12.08,2.11,8.24,8.83,11,16.06,12.3,13,2.31,25.05,6.65,35.68,14.6,5,3.74,7.64,9.08,10.09,14.58a154.18,154.18,0,0,1,8.94,24.81c.8,3.15.76,3.16-2.42,3.16H108.37Z"/><path class="cls-1" d="M142.75,333.11l-6-7.3c-2.51,6.38,1.48,15.16,8.07,18,7.44,3.23,14.56.51,18.18-6.94.4,5.86-1.6,11.41-5.33,14.51,3.22,1.93,7.71,1.74,12.24-.45,4.11-2,5.93-5.82,7.86-9.64-.7,8.14-2.77,15.74-9.12,21.27s-14.29,6.25-22.45,5.23c2.71,2.2,5.79,2.52,9.07,2.29a73.66,73.66,0,0,1,18.28,1.4c7,1.26,10.84,6.41,14.38,11.84,3.38,5.18,4.17,11.16,4.59,17.18.23,3.27.08,6.56.35,9.82.19,2.26-.68,2.72-2.74,2.71-11.46-.08-22.91,0-34.37,0L86.44,413c-19.85,0-39.7-.07-59.54,0-2.44,0-3.06-.62-2.8-3,1.08-10,3.76-19.44,10.21-27.38a25.51,25.51,0,0,1,15.9-9c9.07-1.62,18-3.59,25.87-8.87a25.59,25.59,0,0,0,10.8-15c1.46-5.43,2.23-10.87.06-16.29A13.72,13.72,0,0,0,83,328c-3-2.53-4.86-6-6.85-9.31-.56-.93-1.12-1.86-1.73-2.76-.78-1.15-1.17-2.88-3.3-1.53-.85.54-1.85-.44-2.35-1.38-3.28-6.18-3.79-12.77-2.57-19.53.25-1.39.88-3,3-2.85,1.33.09.82-1.23.84-1.87.12-3.82,0-7.65.17-11.47.56-13.7,5.63-25.16,16.6-33.64A17.34,17.34,0,0,1,92,240.79c5.09-1.67,9.93-4,15.58-3.81,10.31.42,19.9,2.93,27.52,10.13,6.13,5.79,9.24,13.41,10.32,21.88.85,6.72.65,13.43.49,20.16,0,1.31-.52,3.23,1.92,1.56.65-.44,1.19.06,1.51.68a7.11,7.11,0,0,1,.95,3.1,43.09,43.09,0,0,1-2.2,15.57c-.61,1.8-1.08,4.65-4.35,3.16-.64-.29-1,.37-1.25.78a6.28,6.28,0,0,0-1.11,3A39.85,39.85,0,0,0,142.75,333.11Z"/><path class="cls-1" d="M197.57,531.87c0-5.43-2.76-8-8.24-8-12.13,0-24.79.05-36.92.06-.58,0-1.41.11-2.41.15v2.29c0,28,.53,56,.5,84a27.73,27.73,0,0,1-.21,4.56c-.06.39-.49.94-.87,1a35.81,35.81,0,0,1-3.67,0c.09-1.39.27-2.53.27-3.68q0-55.41,0-110.83c0-5.55-2.73-8.29-8.29-8.29H78.16c-5.46,0-8.23,2.75-8.23,8.18,0,38.14,0,76.28,0,114.62-.89,0-2-.07-3,0a1.24,1.24,0,0,1-1.53-1.26,41.53,41.53,0,0,1-.37-4.42q0-42.16,0-84.31c0-1.55-.36-2-2-2-11.69.07-23.38,0-35.08,0-5.92,0-8.58,2.4-8.58,8.27,0,23.84,0,123.79,0,157.79H197.57C197.58,666,197.58,577.14,197.57,531.87ZM40,587H31V577h9Zm0-17.92c-3,0-6,0-9.07,0-.24,0-.54-.49-.54-.75,0-3.05.1-5.3.1-9.3H40ZM40,552H33.65c-3.19,0-3.19-.07-3.19-3.31,0-1.92,0-3.81,0-5.72,0-.83,0-1.24.89-1.23,2.9,0,5.66,0,8.66,0Zm6-10H56.48c0,3,0,6.16,0,9.26,0,.24-.79.61-1.1.62-3,.05-6.34,0-9.34,0Zm10.49,45H46V576.75c3,0,6.43,0,9.52,0a1.39,1.39,0,0,1,.83.89C56.41,580.73,56.49,584,56.49,587Zm0-18.92c0,.34-.79,1-1.12,1-3,.07-6.34,0-9.34,0V559c3,0,6.38,0,9.43,0,.29,0,.92.57.93.88C56.42,562.61,56.53,565.35,56.46,568.08ZM123,616H94V578h29Zm-14.92-69.75a25,25,0,1,1,24.92-25A25,25,0,0,1,108.08,546.25Zm54.29.55c0-1.32,0-2.64,0-4,0-.86.31-1.17,1.15-1.16q4,0,7.9,0c.88,0,1.13.37,1.12,1.19,0,2.58,0,5.16,0,7.74,0,.92-.3,1.27-1.24,1.25q-3.87-.06-7.74,0c-1,0-1.24-.4-1.21-1.29C162.41,549.32,162.37,548.06,162.37,546.8Zm.06,21.38c-.08-3,0-5.18,0-9.18h10.14c0,4,0,6.05,0,8.9,0,.85-.32,1.13-1.16,1.12-2.63,0-5.27,0-7.9-.09C163.1,568.92,162.44,568.48,162.43,568.18ZM172,587H162V577h10Zm16,0H178V577h10Zm0-18H178V559h10Zm0-17H178V542h10Z"/><path class="cls-1" d="M114,505H101v10H91v12h10v10h13V527h9V515h-9Z"/><path class="cls-2" d="M11.19,1H4.31A3.32,3.32,0,0,0,1,4.31v6.88A3.32,3.32,0,0,0,4.31,14.5h6.88a3.32,3.32,0,0,0,3.31-3.31V4.31A3.32,3.32,0,0,0,11.19,1Z"/><path class="cls-1" d="M11.52,9H9v2.51H6.49V9H4V6.49H6.49V4H9V6.49h2.51Z"/></svg>